<svg width="18" height="18" viewBox="0 0 18 18" fill="none" xmlns="http://www.w3.org/2000/svg">
<path d="M2.0625 8.4375H15.9375C16.3353 8.4375 16.7169 8.59554 16.9982 8.87684C17.2795 9.15814 17.4375 9.53968 17.4375 9.9375V13.5H0.5625V9.9375C0.5625 9.53968 0.720535 9.15814 1.00184 8.87684C1.28314 8.59554 1.66468 8.4375 2.0625 8.4375V8.4375Z" stroke="#25A268" stroke-linecap="round" stroke-linejoin="round"/>
<path d="M0.5625 13.5V15.75" stroke="#25A268" stroke-linecap="round" stroke-linejoin="round"/>
<path d="M17.4375 13.5V15.75" stroke="#25A268" stroke-linecap="round" stroke-linejoin="round"/>
<path d="M15.75 8.4375V3.375C15.75 3.07663 15.6315 2.79048 15.4205 2.5795C15.2095 2.36853 14.9234 2.25 14.625 2.25H3.375C3.07663 2.25 2.79048 2.36853 2.5795 2.5795C2.36853 2.79048 2.25 3.07663 2.25 3.375V8.4375" stroke="#25A268" stroke-linecap="round" stroke-linejoin="round"/>
<path d="M6.375 5.625H11.625C11.8239 5.625 12.0147 5.70402 12.1553 5.84467C12.296 5.98532 12.375 6.17609 12.375 6.375V8.4375H5.625V6.375C5.625 6.17609 5.70402 5.98532 5.84467 5.84467C5.98532 5.70402 6.17609 5.625 6.375 5.625V5.625Z" stroke="#25A268" stroke-linecap="round" stroke-linejoin="round"/>
</svg>
