<svg width="239" height="60" viewBox="0 0 239 60" fill="none" xmlns="http://www.w3.org/2000/svg">
<rect x="0.756836" y="0.95874" width="58.9862" height="58.9862" rx="9.83104" fill="white"/>
<path d="M86.981 33.4036C88.3652 32.2068 89.4538 31.2263 90.2468 30.4621C91.0543 29.6835 91.7248 28.8761 92.2583 28.0398C92.7918 27.2035 93.0585 26.3672 93.0585 25.5309C93.0585 24.6658 92.8494 23.9881 92.4313 23.4978C92.0276 23.0076 91.3859 22.7625 90.5064 22.7625C89.6557 22.7625 88.9924 23.0364 88.5166 23.5844C88.0552 24.1178 87.81 24.8388 87.7812 25.7472H85.4021C85.4453 24.1034 85.9356 22.849 86.8728 21.9839C87.8245 21.1043 89.0284 20.6645 90.4847 20.6645C92.0564 20.6645 93.282 21.0971 94.1616 21.9622C95.0555 22.8274 95.5025 23.9809 95.5025 25.4228C95.5025 26.4609 95.2358 27.463 94.7023 28.4291C94.1832 29.3807 93.556 30.2387 92.8206 31.0029C92.0997 31.7526 91.1768 32.625 90.0522 33.6199L89.0789 34.485H95.9351V36.5397H85.4237V34.7446L86.981 33.4036ZM97.7983 33.4685V31.6084L105.065 21.1836H108.05V31.3273H110.062V33.4685H108.05V36.756H105.628V33.4685H97.7983ZM105.736 23.6925L100.632 31.3273H105.736V23.6925ZM126.05 16.3389L120.167 40.5409H117.745L123.606 16.3389H126.05ZM144.443 22.8922L138.431 36.756H135.943L142.021 23.1518H134.018V21.0538H144.443V22.8922ZM157.449 36.9074C156.44 36.9074 155.531 36.7344 154.724 36.3883C153.917 36.0278 153.282 35.5232 152.821 34.8743C152.359 34.2255 152.129 33.4685 152.129 32.6033H154.767C154.825 33.2522 155.077 33.7857 155.524 34.2038C155.986 34.622 156.627 34.8311 157.449 34.8311C158.3 34.8311 158.963 34.6292 159.439 34.2255C159.915 33.8073 160.153 33.2738 160.153 32.625C160.153 32.1203 160.001 31.7094 159.698 31.3922C159.41 31.0749 159.042 30.8298 158.595 30.6568C158.163 30.4838 157.557 30.2963 156.779 30.0945C155.798 29.8349 154.998 29.5754 154.378 29.3158C153.772 29.0419 153.253 28.6237 152.821 28.0614C152.388 27.4991 152.172 26.7493 152.172 25.8121C152.172 24.9469 152.388 24.1899 152.821 23.5411C153.253 22.8922 153.859 22.3948 154.637 22.0487C155.416 21.7027 156.317 21.5297 157.341 21.5297C158.797 21.5297 159.987 21.8973 160.91 22.6327C161.847 23.3536 162.366 24.3486 162.467 25.6174H159.742C159.698 25.0695 159.439 24.6009 158.963 24.2116C158.487 23.8223 157.86 23.6276 157.081 23.6276C156.375 23.6276 155.798 23.8078 155.351 24.1683C154.904 24.5288 154.681 25.0479 154.681 25.7256C154.681 26.187 154.818 26.5691 155.092 26.8719C155.38 27.1602 155.741 27.3909 156.173 27.564C156.606 27.737 157.197 27.9244 157.947 28.1263C158.941 28.4003 159.749 28.6742 160.369 28.9482C161.003 29.2221 161.537 29.6475 161.969 30.2242C162.416 30.7866 162.64 31.5436 162.64 32.4952C162.64 33.2594 162.431 33.9804 162.013 34.658C161.609 35.3357 161.011 35.8836 160.218 36.3018C159.439 36.7055 158.516 36.9074 157.449 36.9074ZM176.342 24.8388V36.756H173.876V35.3501C173.487 35.8404 172.975 36.2297 172.341 36.5181C171.721 36.792 171.057 36.929 170.351 36.929C169.414 36.929 168.57 36.7344 167.82 36.345C167.085 35.9557 166.501 35.379 166.068 34.6148C165.65 33.8506 165.441 32.9278 165.441 31.8464V24.8388H167.885V31.4787C167.885 32.5457 168.152 33.3675 168.685 33.9443C169.219 34.5066 169.947 34.7878 170.87 34.7878C171.793 34.7878 172.521 34.5066 173.054 33.9443C173.602 33.3675 173.876 32.5457 173.876 31.4787V24.8388H176.342ZM182.061 26.5907C182.479 26.0428 183.048 25.5814 183.769 25.2065C184.49 24.8316 185.305 24.6441 186.213 24.6441C187.251 24.6441 188.196 24.9037 189.047 25.4228C189.912 25.9274 190.589 26.6411 191.08 27.564C191.57 28.4868 191.815 29.5466 191.815 30.7433C191.815 31.9401 191.57 33.0143 191.08 33.9659C190.589 34.9032 189.912 35.6385 189.047 36.172C188.196 36.6911 187.251 36.9506 186.213 36.9506C185.305 36.9506 184.497 36.7704 183.791 36.4099C183.084 36.035 182.508 35.5736 182.061 35.0257V42.4226H179.595V24.8388H182.061V26.5907ZM189.306 30.7433C189.306 29.9214 189.133 29.2149 188.787 28.6237C188.455 28.0182 188.008 27.564 187.446 27.2612C186.898 26.9439 186.307 26.7853 185.673 26.7853C185.053 26.7853 184.461 26.9439 183.899 27.2612C183.351 27.5784 182.904 28.0398 182.558 28.6454C182.226 29.251 182.061 29.9647 182.061 30.7866C182.061 31.6084 182.226 32.3294 182.558 32.9494C182.904 33.555 183.351 34.0164 183.899 34.3336C184.461 34.6508 185.053 34.8094 185.673 34.8094C186.307 34.8094 186.898 34.6508 187.446 34.3336C188.008 34.002 188.455 33.5262 188.787 32.9061C189.133 32.2861 189.306 31.5652 189.306 30.7433ZM196.719 26.5907C197.137 26.0428 197.707 25.5814 198.427 25.2065C199.148 24.8316 199.963 24.6441 200.871 24.6441C201.91 24.6441 202.854 24.9037 203.705 25.4228C204.57 25.9274 205.248 26.6411 205.738 27.564C206.228 28.4868 206.473 29.5466 206.473 30.7433C206.473 31.9401 206.228 33.0143 205.738 33.9659C205.248 34.9032 204.57 35.6385 203.705 36.172C202.854 36.6911 201.91 36.9506 200.871 36.9506C199.963 36.9506 199.156 36.7704 198.449 36.4099C197.743 36.035 197.166 35.5736 196.719 35.0257V42.4226H194.253V24.8388H196.719V26.5907ZM203.964 30.7433C203.964 29.9214 203.791 29.2149 203.445 28.6237C203.114 28.0182 202.667 27.564 202.104 27.2612C201.556 26.9439 200.965 26.7853 200.331 26.7853C199.711 26.7853 199.12 26.9439 198.557 27.2612C198.009 27.5784 197.562 28.0398 197.216 28.6454C196.885 29.251 196.719 29.9647 196.719 30.7866C196.719 31.6084 196.885 32.3294 197.216 32.9494C197.562 33.555 198.009 34.0164 198.557 34.3336C199.12 34.6508 199.711 34.8094 200.331 34.8094C200.965 34.8094 201.556 34.6508 202.104 34.3336C202.667 34.002 203.114 33.5262 203.445 32.9061C203.791 32.2861 203.964 31.5652 203.964 30.7433ZM214.081 36.9506C212.956 36.9506 211.939 36.6983 211.031 36.1936C210.123 35.6746 209.409 34.9536 208.89 34.0308C208.371 33.0936 208.111 32.0122 208.111 30.7866C208.111 29.5754 208.378 28.5012 208.911 27.564C209.445 26.6267 210.173 25.9058 211.096 25.4011C212.019 24.8965 213.05 24.6441 214.189 24.6441C215.328 24.6441 216.359 24.8965 217.282 25.4011C218.204 25.9058 218.933 26.6267 219.466 27.564C220 28.5012 220.266 29.5754 220.266 30.7866C220.266 31.9978 219.992 33.072 219.444 34.0092C218.897 34.9464 218.147 35.6746 217.195 36.1936C216.258 36.6983 215.22 36.9506 214.081 36.9506ZM214.081 34.8094C214.715 34.8094 215.306 34.658 215.854 34.3552C216.416 34.0524 216.871 33.5983 217.217 32.9927C217.563 32.3871 217.736 31.6517 217.736 30.7866C217.736 29.9214 217.57 29.1933 217.238 28.6021C216.907 27.9965 216.467 27.5423 215.919 27.2395C215.371 26.9367 214.78 26.7853 214.146 26.7853C213.511 26.7853 212.92 26.9367 212.372 27.2395C211.838 27.5423 211.413 27.9965 211.096 28.6021C210.779 29.1933 210.62 29.9214 210.62 30.7866C210.62 32.0699 210.945 33.0648 211.593 33.7713C212.257 34.4634 213.086 34.8094 214.081 34.8094ZM225.169 26.5691C225.53 25.9635 226.006 25.4949 226.597 25.1632C227.202 24.8172 227.916 24.6441 228.738 24.6441V27.1963H228.111C227.145 27.1963 226.409 27.4414 225.905 27.9316C225.414 28.4219 225.169 29.2726 225.169 30.4838V36.756H222.704V24.8388H225.169V26.5691ZM233.881 26.8502V33.4469C233.881 33.8938 233.982 34.2183 234.184 34.4201C234.4 34.6076 234.761 34.7013 235.265 34.7013H236.779V36.756H234.833C233.722 36.756 232.872 36.4964 232.281 35.9774C231.689 35.4583 231.394 34.6148 231.394 33.4469V26.8502H229.988V24.8388H231.394V21.8757H233.881V24.8388H236.779V26.8502H233.881Z" fill="white"/>
<path d="M43.2482 27.8769C43.0505 21.1313 37.5729 15.7053 30.8672 15.7053C24.1616 15.7053 18.684 21.1313 18.4862 27.8769L17.5953 28.7794V34.9001L18.4801 35.7965V39.9668C18.4801 42.4051 20.4382 44.3888 22.8451 44.3888H23.9411C24.3063 45.4321 25.2898 46.1815 26.4433 46.1815H28.2129C29.3671 46.1815 30.3511 45.431 30.7158 44.3866C30.7663 44.3875 30.817 44.3888 30.8672 44.3888C35.1401 44.3888 38.7152 41.3044 39.5373 37.2179H41.8512L44.1391 34.9001V28.7794L43.2482 27.8769ZM30.8672 17.498C36.1188 17.498 40.4915 21.381 41.3365 26.4616H39.5373C38.7152 22.3752 35.1401 19.2907 30.8672 19.2907C26.5944 19.2907 23.0192 22.3752 22.1972 26.4616H20.398C21.243 21.381 25.6156 17.498 30.8672 17.498ZM37.7216 26.4616C34.8614 26.4529 32.8412 26.6294 31.1755 24.1627L30.3667 22.965L29.6716 24.2339C28.6588 26.0827 27.2949 26.4616 25.5585 26.4616H24.0129C24.8006 23.3723 27.575 21.0834 30.8672 21.0834C34.1594 21.0834 36.9339 23.3723 37.7216 26.4616ZM22.0193 35.4252H20.6162L19.3649 34.1576V29.522L20.6162 28.2543H22.0193V35.4252ZM20.2497 39.9668V37.2179H22.1955C22.5286 38.8896 23.3256 40.4241 24.5062 41.6566C24.2587 41.9245 24.0646 42.2433 23.9411 42.5961H22.8451C21.414 42.5961 20.2497 41.4166 20.2497 39.9668ZM28.2129 44.3888H26.4433C25.9553 44.3888 25.5585 43.9868 25.5585 43.4924C25.5585 42.9982 25.9553 42.5961 26.4433 42.5961H28.2129C28.7007 42.5961 29.0977 42.9982 29.0977 43.4924C29.0977 43.9868 28.7007 44.3888 28.2129 44.3888ZM37.9456 35.4252C37.9456 39.3792 34.7702 42.5961 30.8672 42.5961C30.8165 42.5961 30.7654 42.5951 30.7143 42.5939C30.3485 41.5517 29.3655 40.8034 28.2129 40.8034C26.3961 40.8074 26.425 40.7942 26.1986 40.8153C24.6625 39.4512 23.7889 37.5084 23.7889 35.4252V28.2543H25.5585C27.1244 28.2543 29.0314 27.9928 30.5076 26.1727C32.4553 28.2405 34.8355 28.2543 36.9722 28.2543H37.9456V35.4252ZM42.3696 34.1576L41.1183 35.4252H39.7152V28.2543H41.1183L42.3696 29.522V34.1576Z" fill="#01B537"/>
</svg>
