<svg width="18" height="18" viewBox="0 0 18 18" fill="none" xmlns="http://www.w3.org/2000/svg">
<path d="M2.25 8.4375V6.75C2.25 6.45163 2.36853 6.16548 2.5795 5.9545C2.79048 5.74353 3.07663 5.625 3.375 5.625H7.875C8.17337 5.625 8.45952 5.74353 8.6705 5.9545C8.88147 6.16548 9 6.45163 9 6.75V8.4375" stroke="#25A268" stroke-linecap="round" stroke-linejoin="round"/>
<path d="M9 8.4375V6.75C9 6.45163 9.11853 6.16548 9.3295 5.9545C9.54048 5.74353 9.82663 5.625 10.125 5.625H14.625C14.9234 5.625 15.2095 5.74353 15.4205 5.9545C15.6315 6.16548 15.75 6.45163 15.75 6.75V8.4375" stroke="#25A268" stroke-linecap="round" stroke-linejoin="round"/>
<path d="M2.0625 8.4375H15.9375C16.3353 8.4375 16.7169 8.59554 16.9982 8.87684C17.2795 9.15814 17.4375 9.53968 17.4375 9.9375V13.5H0.5625V9.9375C0.5625 9.53968 0.720535 9.15814 1.00184 8.87684C1.28314 8.59554 1.66468 8.4375 2.0625 8.4375V8.4375Z" stroke="#25A268" stroke-linecap="round" stroke-linejoin="round"/>
<path d="M0.5625 13.5V15.75" stroke="#25A268" stroke-linecap="round" stroke-linejoin="round"/>
<path d="M17.4375 13.5V15.75" stroke="#25A268" stroke-linecap="round" stroke-linejoin="round"/>
<path d="M15.75 8.4375V3.375C15.75 3.07663 15.6315 2.79048 15.4205 2.5795C15.2095 2.36853 14.9234 2.25 14.625 2.25H3.375C3.07663 2.25 2.79048 2.36853 2.5795 2.5795C2.36853 2.79048 2.25 3.07663 2.25 3.375V8.4375" stroke="#25A268" stroke-linecap="round" stroke-linejoin="round"/>
</svg>
