<svg width="18" height="18" viewBox="0 0 18 18" fill="none" xmlns="http://www.w3.org/2000/svg">
<path d="M16.3125 7.03125C16.0141 7.03125 15.728 7.14978 15.517 7.36075C15.306 7.57173 15.1875 7.85788 15.1875 8.15625V9.28125C15.1875 9.43043 15.1282 9.57351 15.0227 9.679C14.9173 9.78449 14.7742 9.84375 14.625 9.84375H3.375C3.22582 9.84375 3.08274 9.78449 2.97725 9.679C2.87176 9.57351 2.8125 9.43043 2.8125 9.28125V8.15625C2.8125 7.85788 2.69397 7.57173 2.483 7.36075C2.27202 7.14978 1.98587 7.03125 1.6875 7.03125C1.38913 7.03125 1.10298 7.14978 0.892005 7.36075C0.681026 7.57173 0.5625 7.85788 0.5625 8.15625V10.4062C0.5625 11.003 0.799553 11.5753 1.22151 11.9972C1.64347 12.4192 2.21576 12.6562 2.8125 12.6562H15.1875C15.7842 12.6562 16.3565 12.4192 16.7785 11.9972C17.2004 11.5753 17.4375 11.003 17.4375 10.4062V8.15625C17.4375 7.85788 17.319 7.57173 17.108 7.36075C16.897 7.14978 16.6109 7.03125 16.3125 7.03125Z" stroke="#25A268" stroke-linecap="round" stroke-linejoin="round"/>
<path d="M2.8125 12.6562V14.3438" stroke="#25A268" stroke-linecap="round" stroke-linejoin="round"/>
<path d="M15.1875 12.6562V14.3438" stroke="#25A268" stroke-linecap="round" stroke-linejoin="round"/>
<path d="M1.6875 7.03125C1.6875 6.13614 2.04308 5.2777 2.67601 4.64476C3.30895 4.01183 4.16739 3.65625 5.0625 3.65625H12.9375C13.8326 3.65625 14.691 4.01183 15.324 4.64476C15.9569 5.2777 16.3125 6.13614 16.3125 7.03125" stroke="#25A268" stroke-linecap="round" stroke-linejoin="round"/>
<path d="M9 9.84375V3.65625" stroke="#25A268" stroke-linecap="round" stroke-linejoin="round"/>
</svg>
