<svg width="19" height="21" viewBox="0 0 19 21" fill="none" xmlns="http://www.w3.org/2000/svg">
<path d="M18.875 7.375H12.625V20.9004H10.5254V14.6504H8.47461V20.9004H6.375V7.375H0.125V5.27539H18.875V7.375ZM8.03516 0.734375C8.45833 0.311198 8.94661 0.0996094 9.5 0.0996094C10.0534 0.0996094 10.5417 0.311198 10.9648 0.734375C11.388 1.125 11.5996 1.59701 11.5996 2.15039C11.5996 2.70378 11.388 3.19206 10.9648 3.61523C10.5417 4.03841 10.0534 4.25 9.5 4.25C8.94661 4.25 8.45833 4.03841 8.03516 3.61523C7.61198 3.19206 7.40039 2.70378 7.40039 2.15039C7.40039 1.59701 7.61198 1.125 8.03516 0.734375Z" fill="#01B537"/>
</svg>
