<svg width="14" height="14" viewBox="0 0 14 14" fill="none" xmlns="http://www.w3.org/2000/svg">
<path d="M2.51904 9.61719C4.0555 8.99219 5.52686 8.67969 6.93311 8.67969C8.33936 8.67969 9.79769 8.99219 11.3081 9.61719C12.8446 10.2161 13.6128 11.0104 13.6128 12V13.6797H0.253418V12C0.253418 11.0104 1.00863 10.2161 2.51904 9.61719ZM9.27686 6.02344C8.62581 6.67448 7.84456 7 6.93311 7C6.02165 7 5.2404 6.67448 4.58936 6.02344C3.93831 5.3724 3.61279 4.59115 3.61279 3.67969C3.61279 2.76823 3.93831 1.98698 4.58936 1.33594C5.2404 0.658854 6.02165 0.320312 6.93311 0.320312C7.84456 0.320312 8.62581 0.658854 9.27686 1.33594C9.9279 1.98698 10.2534 2.76823 10.2534 3.67969C10.2534 4.59115 9.9279 5.3724 9.27686 6.02344Z" fill="#989898"/>
</svg>
