<svg width="31" height="31" viewBox="0 0 31 31" fill="none" xmlns="http://www.w3.org/2000/svg">
<path fill-rule="evenodd" clip-rule="evenodd" d="M11.6726 26.3762C9.59267 26.3762 7.61573 25.5397 6.10602 24.0212C3.10669 21.003 2.9836 16.2177 5.83095 13.3527L15.1078 4.02066C16.0736 3.04852 17.3774 2.51221 18.7778 2.51221C20.2762 2.51221 21.7005 3.11383 22.787 4.20655C24.9485 6.38069 25.0314 9.83594 22.9703 11.9083L13.6822 21.2392C13.0806 21.8458 12.2705 22.1787 11.4013 22.1787C10.4832 22.1787 9.61277 21.8119 8.95211 21.1475C7.62954 19.8149 7.5881 17.691 8.86042 16.4098L17.4326 7.79997C17.9225 7.30761 18.7163 7.3051 19.2086 7.79494C19.6997 8.28478 19.7022 9.07983 19.2124 9.57093L10.6414 18.1821C10.34 18.486 10.3814 19.0223 10.7344 19.3765C10.9178 19.5611 11.1614 19.6667 11.4013 19.6667C11.5395 19.6667 11.7379 19.6327 11.9012 19.4682L21.1893 10.1374C22.2783 9.04089 22.1966 7.17573 21.0059 5.97751C19.8668 4.83204 17.9338 4.74161 16.8888 5.79162L7.61196 15.1237C5.7355 17.0115 5.85858 20.2092 7.88828 22.2502C8.92197 23.2915 10.2659 23.8642 11.6726 23.8642C12.9299 23.8642 14.0954 23.3894 14.952 22.5278L24.2301 13.1957C24.7187 12.7046 25.5137 12.7009 26.0061 13.1907C26.4972 13.6806 26.4997 14.4744 26.0111 14.9667L16.733 24.2988C15.4017 25.6377 13.6043 26.3762 11.6726 26.3762Z" fill="#50555C"/>
<mask id="mask0_202_793" style="mask-type:alpha" maskUnits="userSpaceOnUse" x="3" y="2" width="24" height="25">
<path fill-rule="evenodd" clip-rule="evenodd" d="M11.6726 26.3762C9.59267 26.3762 7.61573 25.5397 6.10602 24.0212C3.10669 21.003 2.9836 16.2177 5.83095 13.3527L15.1078 4.02066C16.0736 3.04852 17.3774 2.51221 18.7778 2.51221C20.2762 2.51221 21.7005 3.11383 22.787 4.20655C24.9485 6.38069 25.0314 9.83594 22.9703 11.9083L13.6822 21.2392C13.0806 21.8458 12.2705 22.1787 11.4013 22.1787C10.4832 22.1787 9.61277 21.8119 8.95211 21.1475C7.62954 19.8149 7.5881 17.691 8.86042 16.4098L17.4326 7.79997C17.9225 7.30761 18.7163 7.3051 19.2086 7.79494C19.6997 8.28478 19.7022 9.07983 19.2124 9.57093L10.6414 18.1821C10.34 18.486 10.3814 19.0223 10.7344 19.3765C10.9178 19.5611 11.1614 19.6667 11.4013 19.6667C11.5395 19.6667 11.7379 19.6327 11.9012 19.4682L21.1893 10.1374C22.2783 9.04089 22.1966 7.17573 21.0059 5.97751C19.8668 4.83204 17.9338 4.74161 16.8888 5.79162L7.61196 15.1237C5.7355 17.0115 5.85858 20.2092 7.88828 22.2502C8.92197 23.2915 10.2659 23.8642 11.6726 23.8642C12.9299 23.8642 14.0954 23.3894 14.952 22.5278L24.2301 13.1957C24.7187 12.7046 25.5137 12.7009 26.0061 13.1907C26.4972 13.6806 26.4997 14.4744 26.0111 14.9667L16.733 24.2988C15.4017 25.6377 13.6043 26.3762 11.6726 26.3762Z" fill="white"/>
</mask>
<g mask="url(#mask0_202_793)">
<rect width="30.144" height="30.144" fill="#50555C"/>
</g>
</svg>
