<svg width="23" height="21" viewBox="0 0 23 21" fill="none" xmlns="http://www.w3.org/2000/svg">
<path fill-rule="evenodd" clip-rule="evenodd" d="M20.3433 0H2.69872C1.48565 0 0.504177 0.992505 0.504177 2.20557L0.494629 19.3912C0.494083 20.374 1.68227 20.8665 2.3772 20.1716L4.58128 17.9675C4.7881 17.7607 5.06859 17.6445 5.36107 17.6445H20.3433C21.5563 17.6445 22.5488 16.652 22.5488 15.439V2.20557C22.5488 0.992505 21.5563 0 20.3433 0ZM6.00692 7.71949H17.0348C17.6413 7.71949 18.1375 8.21574 18.1375 8.82227C18.1375 9.4288 17.6413 9.92506 17.0348 9.92506H6.00692C5.40038 9.92506 4.90413 9.4288 4.90413 8.82227C4.90413 8.21574 5.40038 7.71949 6.00692 7.71949ZM12.6236 13.2334H6.00692C5.40038 13.2334 4.90413 12.7372 4.90413 12.1306C4.90413 11.5241 5.40038 11.0278 6.00692 11.0278H12.6236C13.2301 11.0278 13.7264 11.5241 13.7264 12.1306C13.7264 12.7372 13.2301 13.2334 12.6236 13.2334ZM17.0348 6.6167H6.00692C5.40038 6.6167 4.90413 6.12045 4.90413 5.51392C4.90413 4.90739 5.40038 4.41114 6.00692 4.41114H17.0348C17.6413 4.41114 18.1375 4.90739 18.1375 5.51392C18.1375 6.12045 17.6413 6.6167 17.0348 6.6167Z" fill="#B8B8B8"/>
</svg>
