<svg width="28" height="32" viewBox="0 0 28 32" fill="none" xmlns="http://www.w3.org/2000/svg">
<path d="M22.8889 17.062C22.8749 14.4735 24.0413 12.5198 26.4024 11.081C25.0813 9.18372 23.0857 8.13987 20.4506 7.93534C17.9561 7.73785 15.2297 9.39531 14.2319 9.39531C13.1779 9.39531 10.7606 8.00587 8.86339 8.00587C4.94242 8.06934 0.775513 11.1445 0.775513 17.4005C0.775513 19.2484 1.1128 21.1574 1.78738 23.1276C2.68681 25.716 5.9332 32.0638 9.32014 31.958C11.0909 31.9156 12.3417 30.6955 14.6465 30.6955C16.881 30.6955 18.0404 31.958 20.015 31.958C23.43 31.9086 26.3672 26.1392 27.2245 23.5437C22.643 21.3784 22.8889 17.196 22.8889 17.062ZM18.9118 5.48088C20.8301 3.1957 20.6544 1.11505 20.5982 0.367432C18.9047 0.466174 16.9442 1.52413 15.827 2.82894C14.5973 4.22544 13.8735 5.95343 14.0281 7.90007C15.8621 8.04113 17.5345 7.09602 18.9118 5.48088Z" fill="white"/>
</svg>
