<svg width="16" height="16" viewBox="0 0 16 16" fill="none" xmlns="http://www.w3.org/2000/svg">
<path d="M13.8203 0.5H2.17969C1.71094 0.5 1.30729 0.669271 0.96875 1.00781C0.65625 1.32031 0.5 1.71094 0.5 2.17969V13.8203C0.5 14.2891 0.65625 14.6927 0.96875 15.0312C1.30729 15.3438 1.71094 15.5 2.17969 15.5H13.8203C14.2891 15.5 14.6797 15.3438 14.9922 15.0312C15.3307 14.6927 15.5 14.2891 15.5 13.8203V2.17969C15.5 1.71094 15.3307 1.32031 14.9922 1.00781C14.6797 0.669271 14.2891 0.5 13.8203 0.5ZM9.67969 12.1797H3.82031V10.5H9.67969V12.1797ZM12.1797 8.82031H3.82031V7.17969H12.1797V8.82031ZM12.1797 5.5H3.82031V3.82031H12.1797V5.5Z" fill="#989898"/>
</svg>
