<svg width="19" height="18" viewBox="0 0 19 18" fill="none" xmlns="http://www.w3.org/2000/svg">
<path d="M16.1266 11.875V9.94336H14.2399V11.875H16.1266ZM16.1266 15.6934V13.8066H14.2399V15.6934H16.1266ZM12.3082 4.19336V2.30664H10.3766V4.19336H12.3082ZM12.3082 8.05664V6.125H10.3766V8.05664H12.3082ZM12.3082 11.875V9.94336H10.3766V11.875H12.3082ZM8.48987 4.19336V2.30664H6.55823V4.19336H8.48987ZM8.48987 8.05664V6.125H6.55823V8.05664H8.48987ZM8.48987 11.875V9.94336H6.55823V11.875H8.48987ZM4.62659 8.05664V6.125H2.73987V8.05664H4.62659ZM4.62659 11.875V9.94336H2.73987V11.875H4.62659ZM4.62659 15.6934V13.8066H2.73987V15.6934H4.62659ZM14.2399 8.05664H18.0582V17.625H10.3766V13.8066H8.48987V17.625H0.808228V4.19336H4.62659V0.375H14.2399V8.05664Z" fill="#313131"/>
</svg>
