<svg width="18" height="18" viewBox="0 0 18 18" fill="none" xmlns="http://www.w3.org/2000/svg">
<path d="M4 15C5.6568 15 7 13.6568 7 12C7 10.3432 5.6568 9 4 9C2.3432 9 1 10.3432 1 12C1 13.6568 2.3432 15 4 15Z" stroke="#25A268" stroke-linecap="round" stroke-linejoin="round"/>
<path d="M14 15C15.1045 15 16 14.1045 16 13C16 11.8955 15.1045 11 14 11C12.8955 11 12 11.8955 12 13C12 14.1045 12.8955 15 14 15Z" stroke="#25A268" stroke-linecap="round" stroke-linejoin="round"/>
<path d="M11 12H9.5M6 6L4 12H9.5M6 6L9.5 12M6 6H3" stroke="#25A268" stroke-linecap="round" stroke-linejoin="round"/>
<path d="M9.66667 5.6H17V12H16M9.66667 5.6V12H12M9.66667 5.6L7.83333 3H6" stroke="#25A268" stroke-linecap="round" stroke-linejoin="round"/>
</svg>
