<svg width="18" height="18" viewBox="0 0 18 18" fill="none" xmlns="http://www.w3.org/2000/svg">
<path d="M3.375 14.2778C4.9283 14.2778 6.1875 13.0186 6.1875 11.4653C6.1875 9.91203 4.9283 8.65283 3.375 8.65283C1.8217 8.65283 0.5625 9.91203 0.5625 11.4653C0.5625 13.0186 1.8217 14.2778 3.375 14.2778Z" stroke="#25A268" stroke-linecap="round" stroke-linejoin="round"/>
<path d="M14.625 14.2778C16.1783 14.2778 17.4375 13.0186 17.4375 11.4653C17.4375 9.91203 16.1783 8.65283 14.625 8.65283C13.0717 8.65283 11.8125 9.91203 11.8125 11.4653C11.8125 13.0186 13.0717 14.2778 14.625 14.2778Z" stroke="#25A268" stroke-linecap="round" stroke-linejoin="round"/>
<path d="M15.1874 6.40283C15.4858 6.40283 15.7719 6.28431 15.9829 6.07333C16.1939 5.86235 16.3124 5.5762 16.3124 5.27783C16.3124 4.97946 16.1939 4.69332 15.9829 4.48234C15.7719 4.27136 15.4858 4.15283 15.1874 4.15283H12.6314C12.5402 4.15302 12.4504 4.17535 12.3698 4.21791C12.2891 4.26047 12.22 4.32198 12.1683 4.39716C12.1167 4.47233 12.0841 4.55892 12.0733 4.64949C12.0625 4.74005 12.0739 4.83188 12.1064 4.91708L14.6249 11.4653" stroke="#25A268" stroke-linecap="round" stroke-linejoin="round"/>
<path d="M7.87493 4.15275L4.01318 3.1875" stroke="#25A268" stroke-linecap="round" stroke-linejoin="round"/>
<path d="M7.902 9.32558L5.625 3.59033" stroke="#25A268" stroke-linecap="round" stroke-linejoin="round"/>
<path d="M3.375 11.4653L12.894 6.96533" stroke="#25A268" stroke-linecap="round" stroke-linejoin="round"/>
</svg>
