<svg width="18" height="18" viewBox="0 0 18 18" fill="none" xmlns="http://www.w3.org/2000/svg">
<path d="M15.1875 16.5C16.4301 16.5 17.4375 15.4926 17.4375 14.25C17.4375 13.0074 16.4301 12 15.1875 12C13.9449 12 12.9375 13.0074 12.9375 14.25C12.9375 15.4926 13.9449 16.5 15.1875 16.5Z" stroke="#25A268" stroke-linecap="round" stroke-linejoin="round"/>
<path d="M13.41 5.53955L1.6875 6.37505C1.38913 6.37505 1.10298 6.49358 0.892005 6.70456C0.681026 6.91553 0.5625 7.20168 0.5625 7.50005C0.5625 7.79842 0.681026 8.08457 0.892005 8.29555C1.10298 8.50652 1.38913 8.62505 1.6875 8.62505H2.9925C3.64198 8.62544 4.28367 8.76641 4.87351 9.03829C5.46334 9.31016 5.98734 9.70649 6.4095 10.2001L8.1 12.1696C8.20561 12.2928 8.33664 12.3917 8.4841 12.4596C8.63155 12.5274 8.79194 12.5625 8.95425 12.5626H10.1595C10.3245 12.5626 10.4875 12.5263 10.637 12.4564C10.7864 12.3864 10.9186 12.2843 11.0243 12.1575L12.5438 10.3343C12.8275 9.99364 13.1793 9.71594 13.5765 9.51897C13.9738 9.322 14.4077 9.21009 14.8507 9.1904C15.2936 9.1707 15.7358 9.24366 16.1489 9.4046C16.5621 9.56554 16.9371 9.81092 17.25 10.1251L17.4412 10.3163" stroke="#25A268" stroke-linecap="round" stroke-linejoin="round"/>
<path d="M2.8125 16.5C4.05514 16.5 5.0625 15.4926 5.0625 14.25C5.0625 13.0074 4.05514 12 2.8125 12C1.56986 12 0.5625 13.0074 0.5625 14.25C0.5625 15.4926 1.56986 16.5 2.8125 16.5Z" stroke="#25A268" stroke-linecap="round" stroke-linejoin="round"/>
<path d="M15.1875 14.25L12.8445 2.76825C12.7913 2.51564 12.6529 2.289 12.4524 2.12636C12.2519 1.96372 12.0016 1.87497 11.7435 1.875H10.4062" stroke="#25A268" stroke-linecap="round" stroke-linejoin="round"/>
<path d="M2.8125 14.25L7.11675 11.022" stroke="#25A268" stroke-linecap="round" stroke-linejoin="round"/>
<path d="M10.6875 5.73389V7.50014C10.6875 7.79851 10.569 8.08465 10.358 8.29563C10.147 8.50661 9.8609 8.62514 9.56253 8.62514H8.34078C8.04262 8.62507 7.75668 8.50665 7.54578 8.29589L5.36328 6.11339" stroke="#25A268" stroke-linecap="round" stroke-linejoin="round"/>
<path d="M16.5938 6.9375C16.2208 6.9375 15.8631 6.78934 15.5994 6.52562C15.3357 6.2619 15.1875 5.90421 15.1875 5.53125C15.1875 5.15829 15.3357 4.8006 15.5994 4.53688C15.8631 4.27316 16.2208 4.125 16.5938 4.125H17.1562V6.9375H16.5938Z" stroke="#25A268" stroke-linecap="round" stroke-linejoin="round"/>
</svg>
