<svg width="31" height="31" viewBox="0 0 31 31" fill="none" xmlns="http://www.w3.org/2000/svg">
<circle cx="15.5" cy="15.5" r="15" fill="#C9F0D5" stroke="#01B537"/>
<path d="M19.6562 19.6562V12.3438H10.3438V19.6562H19.6562ZM17.6562 7.65625H19V9H19.6562C20.0104 9 20.3229 9.13542 20.5938 9.40625C20.8646 9.67708 21 9.98958 21 10.3438V19.6562C21 20.0104 20.8646 20.3229 20.5938 20.5938C20.3229 20.8646 20.0104 21 19.6562 21H10.3438C9.96875 21 9.64583 20.875 9.375 20.625C9.125 20.3542 9 20.0312 9 19.6562V10.3438C9 9.98958 9.125 9.67708 9.375 9.40625C9.64583 9.13542 9.96875 9 10.3438 9H11V7.65625H12.3438V9H17.6562V7.65625ZM18.3438 15V18.3438H15V15H18.3438Z" fill="#01B537"/>
</svg>
