<svg width="79" height="79" viewBox="0 0 79 79" fill="none" xmlns="http://www.w3.org/2000/svg">
<path d="M76.9278 39.1599H75.5358C75.5358 49.2074 71.4656 58.2944 64.8814 64.8814C58.2944 71.4656 49.2074 75.5358 39.1599 75.5358C29.1096 75.5358 20.0254 71.4656 13.4384 64.8814C6.85425 58.2944 2.78401 49.2074 2.78401 39.1599C2.78401 29.1096 6.85425 20.0254 13.4384 13.4384C20.0254 6.8542 29.1096 2.78397 39.1599 2.78397C49.2074 2.78397 58.2944 6.8542 64.8814 13.4384C71.4656 20.0254 75.5358 29.1096 75.5358 39.1599H76.9278H78.3198C78.317 17.5309 60.7861 -4.57764e-05 39.1599 -4.57764e-05C17.5309 -4.57764e-05 0 17.5309 0 39.1599C0 60.7861 17.5309 78.3198 39.1599 78.3198C60.7861 78.3198 78.317 60.7861 78.3198 39.1599H76.9278Z" fill="#01B636"/>
<mask id="path-2-outside-1_229_723" maskUnits="userSpaceOnUse" x="11.2507" y="15.5716" width="51.6188" height="51.6188" fill="black">
<rect fill="white" x="11.2507" y="15.5716" width="51.6188" height="51.6188"/>
<path d="M22.9867 27.1653C22.7958 34.7808 25.5815 41.8654 30.8328 47.1167C36.0841 52.368 43.1687 55.1537 50.7842 54.9628C52.1244 54.927 53.2419 53.8096 53.2757 52.4714L53.4188 46.7966C53.4506 45.4643 52.2994 44.3131 50.9672 44.3449C49.0663 44.3926 47.2151 44.1441 45.4673 43.6052C44.5984 43.3289 43.6082 43.5794 43.0256 44.1699L39.4564 46.9039C35.422 44.8221 33.0956 42.4957 31.0436 38.4911L33.7041 35.0075C34.3702 34.3414 34.6247 33.383 34.3642 32.4902C33.8214 30.7345 33.5728 28.8833 33.6185 26.9844C33.6384 26.3163 33.3899 25.69 32.9246 25.2247C32.4593 24.7594 31.833 24.5108 31.1669 24.5287L25.4782 24.6739C24.14 24.7077 23.0225 25.8252 22.9867 27.1653Z"/>
</mask>
<path d="M50.7842 54.9628L50.8678 58.0937L50.8627 58.0939L50.7842 54.9628ZM53.2757 52.4714L56.4067 52.5504L56.4067 52.5505L53.2757 52.4714ZM53.4188 46.7966L56.5499 46.8713L56.5498 46.8755L53.4188 46.7966ZM50.9672 44.3449L50.8886 41.2139L50.8924 41.2138L50.9672 44.3449ZM45.4673 43.6052L44.5445 46.5982L44.5312 46.5941L44.5179 46.5899L45.4673 43.6052ZM43.0256 44.1699L45.2552 46.3695L45.1026 46.5242L44.9302 46.6563L43.0256 44.1699ZM39.4564 46.9039L41.361 49.3903L39.7847 50.5978L38.0202 49.6872L39.4564 46.9039ZM31.0436 38.4911L28.2562 39.9194L27.3551 38.1607L28.5545 36.5902L31.0436 38.4911ZM33.7041 35.0075L31.2149 33.1065L31.3417 32.9405L31.4894 32.7928L33.7041 35.0075ZM34.3642 32.4902L37.3565 31.5651L37.3639 31.589L37.3709 31.613L34.3642 32.4902ZM33.6185 26.9844L30.4874 26.909L30.4876 26.9001L30.4879 26.8912L33.6185 26.9844ZM31.1669 24.5287L31.251 27.6596L31.2468 27.6597L31.1669 24.5287ZM25.4782 24.6739L25.558 27.8049L25.5572 27.8049L25.4782 24.6739ZM26.1177 27.2438C25.9477 34.0268 28.4204 40.2749 33.0475 44.902L28.6182 49.3314C22.7427 43.4559 19.6439 35.5348 19.8557 27.0868L26.1177 27.2438ZM33.0475 44.902C37.6746 49.5292 43.9227 52.0018 50.7057 51.8318L50.8627 58.0939C42.4147 58.3056 34.4936 55.2069 28.6182 49.3314L33.0475 44.902ZM50.7006 51.8319C50.5135 51.8369 50.3803 51.9157 50.3052 51.9908C50.23 52.066 50.1495 52.2012 50.1446 52.3923L56.4067 52.5505C56.3307 55.5588 53.8698 58.0136 50.8678 58.0937L50.7006 51.8319ZM50.1446 52.3924L50.2878 46.7176L56.5498 46.8755L56.4067 52.5504L50.1446 52.3924ZM50.2877 46.7218C50.2812 46.993 50.3942 47.1783 50.4898 47.2739C50.5854 47.3695 50.7707 47.4825 51.0419 47.476L50.8924 41.2138C54.0126 41.1393 56.6245 43.7512 56.5499 46.8713L50.2877 46.7218ZM51.0458 47.4759C48.8202 47.5318 46.6299 47.2412 44.5445 46.5982L46.3901 40.6123C47.8003 41.047 49.3124 41.2534 50.8886 41.2139L51.0458 47.4759ZM44.5179 46.5899C44.6654 46.6368 44.7814 46.6291 44.8629 46.6097C44.9382 46.5918 45.0881 46.5389 45.2552 46.3695L40.7959 41.9703C42.2365 40.51 44.4666 40.0003 46.4167 40.6206L44.5179 46.5899ZM44.9302 46.6563L41.361 49.3903L37.5518 44.4176L41.121 41.6836L44.9302 46.6563ZM38.0202 49.6872C33.4106 47.3086 30.6091 44.5111 28.2562 39.9194L33.831 37.0628C35.5822 40.4803 37.4334 42.3356 40.8927 44.1206L38.0202 49.6872ZM28.5545 36.5902L31.2149 33.1065L36.1932 36.9084L33.5328 40.3921L28.5545 36.5902ZM31.4894 32.7928C31.3695 32.9127 31.2888 33.1318 31.3575 33.3674L37.3709 31.613C37.9606 33.6342 37.3709 35.77 35.9187 37.2221L31.4894 32.7928ZM31.3719 33.4153C30.7246 31.3216 30.4339 29.1315 30.4874 26.909L36.7496 27.0598C36.7117 28.6351 36.9182 30.1474 37.3565 31.5651L31.3719 33.4153ZM30.4879 26.8912C30.4823 27.0782 30.5597 27.2891 30.71 27.4393L35.1393 23.01C36.2201 24.0908 36.7945 25.5544 36.7492 27.0776L30.4879 26.8912ZM30.71 27.4393C30.8593 27.5887 31.067 27.6646 31.251 27.6596L31.0828 21.3979C32.5989 21.3571 34.0593 21.93 35.1393 23.01L30.71 27.4393ZM31.2468 27.6597L25.558 27.8049L25.3983 21.5429L31.087 21.3977L31.2468 27.6597ZM25.5572 27.8049C25.7484 27.8001 25.8836 27.7195 25.9587 27.6444C26.0338 27.5693 26.1126 27.436 26.1176 27.2489L19.8558 27.0817C19.936 24.0797 22.3907 21.6189 25.3991 21.5429L25.5572 27.8049Z" fill="#313131" mask="url(#path-2-outside-1_229_723)"/>
</svg>
