<svg width="18" height="18" viewBox="0 0 18 18" fill="none" xmlns="http://www.w3.org/2000/svg">
<path d="M12.625 0.5625H5.375C4.75368 0.5625 4.25 1.06618 4.25 1.6875V15.1875C4.25 15.8088 4.75368 16.3125 5.375 16.3125H12.625C13.2463 16.3125 13.75 15.8088 13.75 15.1875V1.6875C13.75 1.06618 13.2463 0.5625 12.625 0.5625Z" stroke="#25A268" stroke-linecap="round" stroke-linejoin="round"/>
<path d="M5.375 16.3125V17.4375" stroke="#25A268" stroke-linecap="round" stroke-linejoin="round"/>
<path d="M12.625 16.3125V17.4375" stroke="#25A268" stroke-linecap="round" stroke-linejoin="round"/>
<path d="M11.5 8.15625C11.5556 8.15625 11.61 8.17275 11.6563 8.20365C11.7025 8.23455 11.7386 8.27848 11.7598 8.32987C11.7811 8.38126 11.7867 8.43781 11.7758 8.49237C11.765 8.54693 11.7382 8.59704 11.6989 8.63637C11.6595 8.67571 11.6094 8.70249 11.5549 8.71335C11.5003 8.7242 11.4438 8.71863 11.3924 8.69734C11.341 8.67605 11.2971 8.64001 11.2661 8.59375C11.2352 8.5475 11.2188 8.49313 11.2188 8.4375C11.2188 8.36291 11.2484 8.29137 11.3011 8.23863C11.3539 8.18588 11.4254 8.15625 11.5 8.15625" stroke="#25A268" stroke-linecap="round" stroke-linejoin="round"/>
</svg>
