<svg width="18" height="19" viewBox="0 0 18 19" fill="none" xmlns="http://www.w3.org/2000/svg">
<path d="M17.8559 9.41181C17.8559 14.3426 13.8587 18.3397 8.92793 18.3397C3.99717 18.3397 0 14.3426 0 9.41181C0 4.48106 3.99717 0.483887 8.92793 0.483887C13.8587 0.483887 17.8559 4.48106 17.8559 9.41181ZM1.84104 9.41181C1.84104 13.3258 5.01394 16.4987 8.92793 16.4987C12.8419 16.4987 16.0148 13.3258 16.0148 9.41181C16.0148 5.49783 12.8419 2.32492 8.92793 2.32492C5.01394 2.32492 1.84104 5.49783 1.84104 9.41181Z" fill="#01B537"/>
<path d="M12.8339 9.41183C12.8339 11.569 11.0851 13.3178 8.92794 13.3178C6.77073 13.3178 5.02197 11.569 5.02197 9.41183C5.02197 7.25462 6.77073 5.50586 8.92794 5.50586C11.0851 5.50586 12.8339 7.25462 12.8339 9.41183ZM6.97078 9.41183C6.97078 10.4927 7.84703 11.369 8.92794 11.369C10.0089 11.369 10.8851 10.4927 10.8851 9.41183C10.8851 8.33092 10.0089 7.45467 8.92794 7.45467C7.84703 7.45467 6.97078 8.33092 6.97078 9.41183Z" fill="#01B537"/>
</svg>
