<svg width="15" height="20" viewBox="0 0 15 20" fill="none" xmlns="http://www.w3.org/2000/svg">
<path d="M5.7262 8.83203C6.20536 9.28125 6.77437 9.50586 7.43323 9.50586C8.09208 9.50586 8.64612 9.28125 9.09534 8.83203C9.5745 8.35286 9.81409 7.78385 9.81409 7.125C9.81409 6.46615 9.5745 5.91211 9.09534 5.46289C8.64612 4.98372 8.09208 4.74414 7.43323 4.74414C6.77437 4.74414 6.20536 4.98372 5.7262 5.46289C5.27698 5.91211 5.05237 6.46615 5.05237 7.125C5.05237 7.78385 5.27698 8.35286 5.7262 8.83203ZM2.67151 2.4082C3.98922 1.09049 5.57646 0.431641 7.43323 0.431641C9.29 0.431641 10.8623 1.09049 12.15 2.4082C13.4677 3.69596 14.1266 5.26823 14.1266 7.125C14.1266 8.05339 13.887 9.11654 13.4078 10.3145C12.9586 11.5124 12.4046 12.6354 11.7457 13.6836C11.0869 14.7318 10.428 15.7201 9.76917 16.6484C9.14026 17.5469 8.6012 18.2656 8.15198 18.8047L7.43323 19.5684C7.25354 19.3587 7.01396 19.0892 6.71448 18.7598C6.415 18.4004 5.87594 17.7116 5.09729 16.6934C4.31864 15.6452 3.62984 14.6419 3.03088 13.6836C2.46187 12.6953 1.93778 11.5872 1.45862 10.3594C0.979451 9.13151 0.739868 8.05339 0.739868 7.125C0.739868 5.26823 1.38375 3.69596 2.67151 2.4082Z" fill="#7B7B7B"/>
</svg>
