<svg width="21" height="18" viewBox="0 0 21 18" fill="none" xmlns="http://www.w3.org/2000/svg">
<path d="M20.9598 4.23535L13.594 10.8725C12.7727 11.6107 11.66 12.0252 10.5 12.0252C9.33997 12.0252 8.2273 11.6107 7.406 10.8725L0.04025 4.23535C0.028 4.35993 0 4.47267 0 4.59646V14.0578C0.00138938 15.103 0.462772 16.105 1.28294 16.844C2.10311 17.5831 3.2151 17.9988 4.375 18.0001H16.625C17.7849 17.9988 18.8969 17.5831 19.7171 16.844C20.5372 16.105 20.9986 15.103 21 14.0578V4.59646C21 4.47267 20.972 4.35993 20.9598 4.23535Z" fill="#B8B8B8"/>
<path d="M12.4795 9.84118L21 2.05501C20.5872 1.42966 20.0051 0.912042 19.3097 0.55209C18.6143 0.192138 17.8291 0.00199506 17.0299 0H3.97015C3.17092 0.00199506 2.38573 0.192138 1.69032 0.55209C0.994918 0.912042 0.41276 1.42966 0 2.05501L8.52052 9.84118C9.04624 10.3196 9.75801 10.5882 10.5 10.5882C11.242 10.5882 11.9538 10.3196 12.4795 9.84118Z" fill="#B8B8B8"/>
</svg>
