<svg width="17" height="16" viewBox="0 0 17 16" fill="none" xmlns="http://www.w3.org/2000/svg">
<path d="M3.35706 11.0098C5.12398 10.291 6.81604 9.93164 8.43323 9.93164C10.0504 9.93164 11.7275 10.291 13.4645 11.0098C15.2314 11.6986 16.1149 12.612 16.1149 13.75V15.6816H0.751587V13.75C0.751587 12.612 1.62008 11.6986 3.35706 11.0098ZM11.1285 6.87695C10.3798 7.62565 9.4814 8 8.43323 8C7.38505 8 6.48661 7.62565 5.73792 6.87695C4.98922 6.12826 4.61487 5.22982 4.61487 4.18164C4.61487 3.13346 4.98922 2.23503 5.73792 1.48633C6.48661 0.707682 7.38505 0.318359 8.43323 0.318359C9.4814 0.318359 10.3798 0.707682 11.1285 1.48633C11.8772 2.23503 12.2516 3.13346 12.2516 4.18164C12.2516 5.22982 11.8772 6.12826 11.1285 6.87695Z" fill="#7B7B7B"/>
</svg>
