<svg width="23" height="27" viewBox="0 0 23 27" fill="none" xmlns="http://www.w3.org/2000/svg">
<path d="M11.1001 23.5293L11.1708 23.6L11.2415 23.5293L17.3855 17.3854L17.3148 17.3147L17.3855 17.3854C18.6145 16.1563 19.4514 14.5903 19.7904 12.8855C20.1295 11.1808 19.9554 9.41378 19.2902 7.80796C18.625 6.20214 17.4985 4.82963 16.0533 3.86398C14.6081 2.89834 12.909 2.38293 11.1708 2.38293C9.43267 2.38293 7.73356 2.89834 6.28833 3.86398C4.84311 4.82963 3.71667 6.20214 3.05147 7.80796C2.38627 9.41378 2.21218 11.1808 2.55121 12.8855C2.89024 14.5903 3.72717 16.1563 4.95616 17.3854L5.02687 17.3147L4.95616 17.3854L11.1001 23.5293ZM11.1708 26.8273L3.34252 18.999C1.79426 17.4507 0.739877 15.4781 0.312718 13.3306C-0.114441 11.183 0.104806 8.95708 0.942734 6.93417C1.78066 4.91125 3.19964 3.18223 5.02022 1.96576C6.8408 0.749288 8.98123 0.1 11.1708 0.1C13.3604 0.1 15.5008 0.749288 17.3214 1.96576C19.142 3.18223 20.561 4.91125 21.3989 6.93417C22.2368 8.95708 22.4561 11.183 22.0289 13.3306C21.6018 15.4781 20.5474 17.4507 18.9991 18.999L11.1708 26.8273ZM11.1708 13.7531C11.8557 13.7531 12.5126 13.481 12.9969 12.9968C13.4811 12.5125 13.7532 11.8556 13.7532 11.1707C13.7532 10.4858 13.4811 9.82898 12.9969 9.34468C12.5126 8.86039 11.8557 8.58831 11.1708 8.58831C10.4859 8.58831 9.82908 8.86039 9.34478 9.34468C8.86049 9.82898 8.58842 10.4858 8.58842 11.1707C8.58842 11.8556 8.86049 12.5125 9.34478 12.9968C9.82908 13.481 10.4859 13.7531 11.1708 13.7531ZM11.1708 16.0355C9.88059 16.0355 8.64321 15.523 7.73088 14.6107C6.81855 13.6983 6.30601 12.4609 6.30601 11.1707C6.30601 9.88049 6.81855 8.64311 7.73088 7.73078C8.64321 6.81845 9.88059 6.30591 11.1708 6.30591C12.461 6.30591 13.6984 6.81845 14.6108 7.73078C15.5231 8.64311 16.0356 9.88049 16.0356 11.1707C16.0356 12.4609 15.5231 13.6983 14.6108 14.6107C13.6984 15.523 12.461 16.0355 11.1708 16.0355Z" fill="#01B537" stroke="white" stroke-width="0.2"/>
</svg>
