<svg width="21" height="17" viewBox="0 0 21 17" fill="none" xmlns="http://www.w3.org/2000/svg">
<path d="M18.8496 4.34961V2.25H2.15039V4.34961H18.8496ZM18.8496 14.75V8.5H2.15039V14.75H18.8496ZM18.8496 0.150391C19.4355 0.150391 19.9238 0.361979 20.3145 0.785156C20.7051 1.17578 20.9004 1.66406 20.9004 2.25V14.75C20.9004 15.3359 20.7051 15.8405 20.3145 16.2637C19.9238 16.6543 19.4355 16.8496 18.8496 16.8496H2.15039C1.56445 16.8496 1.07617 16.6543 0.685547 16.2637C0.294922 15.8405 0.0996094 15.3359 0.0996094 14.75V2.25C0.0996094 1.66406 0.294922 1.17578 0.685547 0.785156C1.07617 0.361979 1.56445 0.150391 2.15039 0.150391H18.8496Z" fill="#01B537"/>
</svg>
