<svg width="22" height="21" viewBox="0 0 22 21" fill="none" xmlns="http://www.w3.org/2000/svg">
<path fill-rule="evenodd" clip-rule="evenodd" d="M18.847 20.9611H15.3513V15.7176C15.333 13.2537 13.2762 11.2746 10.8754 11.3325C8.55243 11.3885 6.62842 13.3345 6.61208 15.7176V20.9611H3.1164C1.66844 20.9611 0.494629 19.7873 0.494629 18.3393V10.3814C0.494506 9.91972 0.677047 9.47672 1.00239 9.14916L8.41589 1.12303C8.47812 1.05568 8.54301 0.990832 8.61036 0.928565C10.0282 -0.381828 12.2398 -0.294777 13.5502 1.12303L20.9767 9.15178C21.2925 9.47799 21.469 9.91427 21.4688 10.3683V18.3393C21.4688 19.7873 20.295 20.9611 18.847 20.9611ZM8.35996 15.7176C8.35996 14.2697 9.53378 13.0959 10.9817 13.0959C12.4297 13.0959 13.6035 14.2697 13.6035 15.7176V20.9612H8.35996V15.7176Z" fill="white"/>
</svg>
