<svg width="18" height="20" viewBox="0 0 18 20" fill="none" xmlns="http://www.w3.org/2000/svg">
<path d="M16.125 12.9062C16.125 13.2792 15.9885 13.6369 15.7456 13.9006C15.5026 14.1643 15.1731 14.3125 14.8295 14.3125H3.17045C2.82688 14.3125 2.49737 14.1643 2.25443 13.9006C2.01148 13.6369 1.875 13.2792 1.875 12.9062C1.875 12.5333 2.01148 12.1756 2.25443 11.9119C2.49737 11.6482 2.82688 11.5 3.17045 11.5H14.8295C15.1731 11.5 15.5026 11.6482 15.7456 11.9119C15.9885 12.1756 16.125 12.5333 16.125 12.9062Z" stroke="#25A268" stroke-linecap="round" stroke-linejoin="round"/>
<path d="M3.75 1V11.5" stroke="#25A268" stroke-linecap="round" stroke-linejoin="round"/>
<path d="M3.75 14.5V19" stroke="#25A268" stroke-linecap="round" stroke-linejoin="round"/>
<path d="M14.25 14.5V19" stroke="#25A268" stroke-linecap="round" stroke-linejoin="round"/>
<path d="M14.25 1V11.5" stroke="#25A268" stroke-linecap="round" stroke-linejoin="round"/>
<path d="M14.25 2.5H3.75V4.75H14.25V2.5Z" stroke="#25A268" stroke-linecap="round" stroke-linejoin="round"/>
<path d="M14.25 7H3.75V9.25H14.25V7Z" stroke="#25A268" stroke-linecap="round" stroke-linejoin="round"/>
</svg>
