<svg width="68" height="47" viewBox="0 0 40 40" fill="none" xmlns="http://www.w3.org/2000/svg">
<path d="M31.8903 38.9801C30.9769 38.6374 26.9454 36.8507 26.6634 36.6637C26.4557 36.526 26.137 36.2206 25.9551 35.9849L25.6245 35.5564L14.0182 35.5561L2.41203 35.5558L2.00105 35.3508C1.54688 35.1243 1.23118 34.7311 1.09384 34.2207C0.96427 33.7392 0.971025 2.83417 1.10082 2.3183C1.23124 1.79994 1.79931 1.23142 2.31726 1.1009C2.83272 0.971002 33.7134 0.964241 34.1945 1.09392C34.7044 1.23137 35.0974 1.54731 35.3237 2.00184L35.5285 2.41315V12.1828V21.9525L35.9125 22.0032C36.5536 22.088 37.8876 22.4438 38.3408 22.6508C39.0535 22.9764 39.0158 22.6078 38.9884 28.9877C38.9646 34.5305 38.9641 34.5455 38.7835 34.9876C38.5119 35.652 38.0595 36.2574 37.5752 36.6045C37.1719 36.8935 32.68 38.8868 32.2137 38.9837C32.1025 39.0068 31.957 39.0052 31.8903 38.9801ZM34.0757 36.3588C36.4267 35.3487 36.6776 35.2128 36.9601 34.7964L37.1859 34.4635L37.2078 29.2684L37.2298 24.0733L36.8947 23.983C35.4986 23.6068 33.9298 23.4742 31.4289 23.5211C29.3551 23.56 28.7901 23.6208 27.421 23.9521L26.873 24.0847L26.8955 29.1932L26.9181 34.3016L27.0992 34.6408C27.1989 34.8274 27.4008 35.0719 27.5479 35.1842C27.8194 35.3915 31.8273 37.1552 32.0545 37.1674C32.1225 37.1711 33.0321 36.8072 34.0757 36.3588ZM25.1983 28.4824L25.2202 23.1081L25.4174 22.898C25.7676 22.5251 27.5256 22.0719 29.3839 21.8755C29.8953 21.8215 31.105 21.7751 32.0722 21.7724L33.8306 21.7676V12.2768V2.78593H28.6563H23.4819V8.32451C23.4819 12.09 23.4531 13.9977 23.3919 14.2835C23.158 15.3746 21.8689 15.9611 20.9199 15.4081C20.778 15.3254 20.1335 14.8337 19.4875 14.3153C18.7176 13.6975 18.2772 13.3944 18.2092 13.4356C18.1521 13.4702 17.5961 13.9054 16.9736 14.4026C16.351 14.8998 15.7144 15.3732 15.5587 15.4545C14.9691 15.7626 14.0397 15.5843 13.5616 15.0713C13.1239 14.6018 13.1332 14.7437 13.1332 8.53337V2.78593H7.95888H2.78453V18.3213V33.8566H13.9805H25.1764L25.1983 28.4824ZM6.85834 30.0333C6.76442 30.0148 6.5881 29.8958 6.46652 29.7688C6.10593 29.3921 6.17594 28.7548 6.60954 28.4669C6.75771 28.3685 7.5049 28.3453 11.1929 28.3244C14.1841 28.3076 15.6951 28.3277 15.898 28.3871C16.4591 28.5514 16.7172 29.2175 16.3971 29.6749C16.11 30.0851 16.052 30.0898 11.3774 30.0779C8.98582 30.0719 6.95227 30.0518 6.85834 30.0333ZM16.2044 12.8225C17.3327 11.9246 17.5812 11.7621 17.935 11.691C18.3974 11.5979 18.8324 11.6692 19.1785 11.8947C19.3695 12.0192 21.1615 13.4331 21.5618 13.7752C21.6963 13.8902 21.7033 13.6237 21.7033 8.34103V2.78593H18.2672H14.8311V8.32849C14.8311 11.3769 14.8436 13.871 14.8589 13.871C14.8743 13.871 15.4797 13.3992 16.2044 12.8225Z" fill="#313131" stroke="#313131"/>
</svg>
