<svg width="18" height="19" viewBox="0 0 18 19" fill="none" xmlns="http://www.w3.org/2000/svg">
<path d="M1.6875 5.34375L1.6875 14.8438L16.3125 14.8438V5.34375L1.6875 5.34375Z" stroke="#25A268" stroke-linecap="round" stroke-linejoin="round"/>
<path d="M1.6875 14.8438V16.0313" stroke="#25A268" stroke-linecap="round" stroke-linejoin="round"/>
<path d="M16.3125 14.8438V16.0313" stroke="#25A268" stroke-linecap="round" stroke-linejoin="round"/>
<path d="M7.875 12.4688H10.125" stroke="#25A268" stroke-linecap="round" stroke-linejoin="round"/>
<path d="M1.6875 10.0938H16.3125" stroke="#25A268" stroke-linecap="round" stroke-linejoin="round"/>
<path d="M9 5.34375V10.0938" stroke="#25A268" stroke-linecap="round" stroke-linejoin="round"/>
<path d="M16.875 2.96875H1.125C0.81434 2.96875 0.5625 3.23458 0.5625 3.5625V4.75C0.5625 5.07792 0.81434 5.34375 1.125 5.34375H16.875C17.1857 5.34375 17.4375 5.07792 17.4375 4.75V3.5625C17.4375 3.23458 17.1857 2.96875 16.875 2.96875Z" stroke="#25A268" stroke-linecap="round" stroke-linejoin="round"/>
<path d="M4.5 7.71875H6.1875" stroke="#25A268" stroke-linecap="round" stroke-linejoin="round"/>
<path d="M11.8125 7.71875H13.5" stroke="#25A268" stroke-linecap="round" stroke-linejoin="round"/>
</svg>
