<svg width="18" height="18" viewBox="0 0 18 18" fill="none" xmlns="http://www.w3.org/2000/svg">
<path d="M12.1875 7.3125H5.8125L4.125 4.5H13.875L12.1875 7.3125Z" stroke="#25A268" stroke-linecap="round" stroke-linejoin="round"/>
<path d="M2.5625 4.5H15.4375" stroke="#25A268" stroke-linecap="round" stroke-linejoin="round"/>
<path d="M5.81264 7.3125L4.41314 13.26C4.38203 13.3911 4.39904 13.5291 4.46108 13.6487C4.52312 13.7684 4.62605 13.8618 4.75115 13.9119C4.87625 13.9621 5.0152 13.9656 5.1427 13.922C5.27021 13.8783 5.3778 13.7903 5.44589 13.674L9.18764 7.3125" stroke="#25A268" stroke-linecap="round" stroke-linejoin="round"/>
<path d="M12.1875 7.3125L13.587 13.26C13.6181 13.3911 13.6011 13.5291 13.5391 13.6487C13.477 13.7684 13.3741 13.8618 13.249 13.9119C13.1239 13.9621 12.9849 13.9656 12.8574 13.922C12.7299 13.8783 12.6223 13.7903 12.5542 13.674L8.8125 7.3125" stroke="#25A268" stroke-linecap="round" stroke-linejoin="round"/>
</svg>
