<svg width="14" height="11" viewBox="0 0 14 11" fill="none" xmlns="http://www.w3.org/2000/svg">
<path d="M13.7348 3.73592C13.8414 3.65519 14 3.73071 14 3.85832V9.18384C14 9.87394 13.4121 10.4338 12.6875 10.4338H1.3125C0.587891 10.4338 0 9.87394 0 9.18384V3.86092C0 3.73071 0.155859 3.6578 0.265234 3.73853C0.877734 4.19165 1.68984 4.76717 4.47891 6.69686C5.05586 7.0979 6.0293 7.94165 7 7.93644C7.97617 7.94425 8.96875 7.08227 9.52383 6.69686C12.3129 4.76717 13.1223 4.18905 13.7348 3.73592ZM7 6.1005C7.63438 6.11092 8.54766 5.34009 9.00703 5.02238C12.6355 2.51457 12.9117 2.29582 13.7484 1.67082C13.907 1.55363 14 1.37134 14 1.17863V1.68384C14 0.993734 13.4121 0.433838 12.6875 0.433838H1.3125C0.587891 0.433838 0 0.993734 0 1.68384V1.17863C0 1.37134 0.0929687 1.55103 0.251563 1.67082C1.08828 2.29321 1.36445 2.51457 4.99297 5.02238C5.45234 5.34009 6.36562 6.11092 7 6.1005Z" fill="#01B537"/>
</svg>
