<svg width="12" height="15" viewBox="0 0 12 15" fill="none" xmlns="http://www.w3.org/2000/svg">
<path d="M8.65625 10.0901V8.77759H6.65625V6.77759H5.34375V8.77759H3.34375V10.0901H5.34375V12.0901H6.65625V10.0901H8.65625ZM3.9375 3.43384V4.77759H8.0625V3.43384C8.0625 2.87134 7.85417 2.39217 7.4375 1.99634C7.04167 1.57967 6.5625 1.37134 6 1.37134C5.4375 1.37134 4.94792 1.57967 4.53125 1.99634C4.13542 2.39217 3.9375 2.87134 3.9375 3.43384ZM10 4.77759C10.3542 4.77759 10.6667 4.913 10.9375 5.18384C11.2083 5.43384 11.3438 5.73592 11.3438 6.09009V12.7776C11.3438 13.1318 11.2083 13.4443 10.9375 13.7151C10.6667 13.9651 10.3542 14.0901 10 14.0901H2C1.64583 14.0901 1.33333 13.9651 1.0625 13.7151C0.791667 13.4443 0.65625 13.1318 0.65625 12.7776V6.09009C0.65625 5.73592 0.791667 5.43384 1.0625 5.18384C1.33333 4.913 1.64583 4.77759 2 4.77759H2.65625V3.43384C2.65625 2.51717 2.97917 1.73592 3.625 1.09009C4.29167 0.423421 5.08333 0.0900879 6 0.0900879C6.91667 0.0900879 7.69792 0.423421 8.34375 1.09009C9.01042 1.73592 9.34375 2.51717 9.34375 3.43384V4.77759H10Z" fill="#01B537"/>
</svg>
