<svg width="49" height="49" viewBox="0 0 49 49" fill="none" xmlns="http://www.w3.org/2000/svg">
<circle cx="24.5" cy="24.5" r="23.7097" fill="#C9F0D5" stroke="#01B537" stroke-width="1.58065"/>
<path d="M25.8336 28.7047V18.1341H21.5856V20.2581H23.7096V28.7047H25.8336ZM31.0695 13.9355C31.6293 13.9355 32.1233 14.1496 32.5513 14.5777C32.9794 15.0058 33.1935 15.4997 33.1935 16.0595V30.7793C33.1935 31.3391 32.9794 31.8331 32.5513 32.2611C32.1233 32.6892 31.6293 32.9033 31.0695 32.9033H16.3497C15.7899 32.9033 15.296 32.6892 14.8679 32.2611C14.4398 31.8331 14.2257 31.3391 14.2257 30.7793V16.0595C14.2257 15.4997 14.4398 15.0058 14.8679 14.5777C15.296 14.1496 15.7899 13.9355 16.3497 13.9355H31.0695Z" fill="#01B537"/>
</svg>
