<svg width="49" height="49" viewBox="0 0 49 49" fill="none" xmlns="http://www.w3.org/2000/svg">
<circle cx="24.5" cy="24.5" r="23.7097" fill="#C9F0D5" stroke="#01B537" stroke-width="1.58065"/>
<path d="M26.8709 21.8387V20.2581C26.8709 19.6653 26.6733 19.1714 26.2782 18.7762C25.883 18.3481 25.3891 18.1341 24.7963 18.1341H20.5483V20.2581H24.7963V22.3821H22.6723V24.4567H24.7963V26.5806H20.5483V28.7046H24.7963C25.3891 28.7046 25.883 28.5071 26.2782 28.1119C26.6733 27.6838 26.8709 27.1734 26.8709 26.5806V25C26.8709 24.539 26.7227 24.1603 26.4263 23.8639C26.13 23.5675 25.7513 23.4194 25.2903 23.4194C25.7513 23.4194 26.13 23.2712 26.4263 22.9748C26.7227 22.6784 26.8709 22.2997 26.8709 21.8387ZM31.1189 13.9355C31.6787 13.9355 32.1562 14.1495 32.5513 14.5776C32.9794 15.0057 33.1935 15.4997 33.1935 16.0595V30.7792C33.1935 31.339 32.9794 31.833 32.5513 32.2611C32.1562 32.6892 31.6787 32.9032 31.1189 32.9032H16.3497C15.7899 32.9032 15.296 32.6892 14.8679 32.2611C14.4398 31.833 14.2257 31.339 14.2257 30.7792V16.0595C14.2257 15.4997 14.4398 15.0057 14.8679 14.5776C15.296 14.1495 15.7899 13.9355 16.3497 13.9355H31.1189Z" fill="#01B537"/>
</svg>
