<svg width="49" height="49" viewBox="0 0 49 49" fill="none" xmlns="http://www.w3.org/2000/svg">
<circle cx="24.5" cy="24.5" r="23.7097" fill="#C9F0D5" stroke="#01B537" stroke-width="1.58065"/>
<path d="M26.8709 22.3821V20.2581C26.8709 19.6654 26.6569 19.1714 26.2288 18.7763C25.8336 18.3482 25.3397 18.1341 24.7469 18.1341H20.5483V20.2581H24.7469V22.3821H22.6723C22.0796 22.3821 21.5692 22.5797 21.1411 22.9749C20.7459 23.37 20.5483 23.864 20.5483 24.4567V28.7047H26.8709V26.5807H22.6723V24.4567H24.7469C25.3397 24.4567 25.8336 24.2591 26.2288 23.864C26.6569 23.4688 26.8709 22.9749 26.8709 22.3821ZM31.0695 13.9355C31.6293 13.9355 32.1233 14.1496 32.5513 14.5777C32.9794 15.0058 33.1935 15.4997 33.1935 16.0595V30.7793C33.1935 31.3391 32.9794 31.8331 32.5513 32.2611C32.1233 32.6892 31.6293 32.9033 31.0695 32.9033H16.3497C15.7899 32.9033 15.296 32.6892 14.8679 32.2611C14.4398 31.8331 14.2257 31.3391 14.2257 30.7793V16.0595C14.2257 15.4997 14.4398 15.0058 14.8679 14.5777C15.296 14.1496 15.7899 13.9355 16.3497 13.9355H31.0695Z" fill="#01B537"/>
</svg>
