<svg width="18" height="18" viewBox="0 0 18 18" fill="none" xmlns="http://www.w3.org/2000/svg">
<path d="M14.1875 7.3125H3.8125L2.125 4.5H15.875L14.1875 7.3125Z" stroke="#25A268" stroke-linecap="round" stroke-linejoin="round"/>
<path d="M0.5625 4.5H17.4375" stroke="#25A268" stroke-linecap="round" stroke-linejoin="round"/>
<path d="M3.81264 7.3125L2.41314 13.26C2.38203 13.3911 2.39904 13.5291 2.46108 13.6487C2.52312 13.7684 2.62605 13.8618 2.75115 13.9119C2.87625 13.9621 3.0152 13.9656 3.1427 13.922C3.27021 13.8783 3.3778 13.7903 3.44589 13.674L7.18764 7.3125" stroke="#25A268" stroke-linecap="round" stroke-linejoin="round"/>
<path d="M14.1875 7.3125L15.587 13.26C15.6181 13.3911 15.6011 13.5291 15.5391 13.6487C15.477 13.7684 15.3741 13.8618 15.249 13.9119C15.1239 13.9621 14.9849 13.9656 14.8574 13.922C14.7299 13.8783 14.6223 13.7903 14.5542 13.674L10.8125 7.3125" stroke="#25A268" stroke-linecap="round" stroke-linejoin="round"/>
</svg>
