<svg width="18" height="18" viewBox="0 0 18 18" fill="none" xmlns="http://www.w3.org/2000/svg">
<path d="M13.1875 7.3125H4.8125L3.125 4.5H14.875L13.1875 7.3125Z" stroke="#25A268" stroke-linecap="round" stroke-linejoin="round"/>
<path d="M1.5625 4.5H16.4375" stroke="#25A268" stroke-linecap="round" stroke-linejoin="round"/>
<path d="M4.81264 7.3125L3.41314 13.26C3.38203 13.3911 3.39904 13.5291 3.46108 13.6487C3.52312 13.7684 3.62605 13.8618 3.75115 13.9119C3.87625 13.9621 4.0152 13.9656 4.1427 13.922C4.27021 13.8783 4.3778 13.7903 4.44589 13.674L8.18764 7.3125" stroke="#25A268" stroke-linecap="round" stroke-linejoin="round"/>
<path d="M13.1875 7.3125L14.587 13.26C14.6181 13.3911 14.6011 13.5291 14.5391 13.6487C14.477 13.7684 14.3741 13.8618 14.249 13.9119C14.1239 13.9621 13.9849 13.9656 13.8574 13.922C13.7299 13.8783 13.6223 13.7903 13.5542 13.674L9.8125 7.3125" stroke="#25A268" stroke-linecap="round" stroke-linejoin="round"/>
</svg>
