<svg width="18" height="18" viewBox="0 0 18 18" fill="none" xmlns="http://www.w3.org/2000/svg">
<path d="M12.375 14.9062H5.625C4.28277 14.9049 2.99591 14.371 2.04681 13.4219C1.09771 12.4728 0.56389 11.186 0.5625 9.84375C0.5625 9.3962 0.74029 8.96698 1.05676 8.65051C1.37322 8.33404 1.80245 8.15625 2.25 8.15625C2.69755 8.15625 3.12677 8.33404 3.44324 8.65051C3.75971 8.96698 3.9375 9.3962 3.9375 9.84375C3.9379 10.2912 4.11581 10.7202 4.4322 11.0366C4.74858 11.3529 5.17757 11.5309 5.625 11.5312H12.375C12.8224 11.5309 13.2514 11.3529 13.5678 11.0366C13.8842 10.7202 14.0621 10.2912 14.0625 9.84375C14.0625 9.3962 14.2403 8.96698 14.5568 8.65051C14.8732 8.33404 15.3024 8.15625 15.75 8.15625C16.1976 8.15625 16.6268 8.33404 16.9432 8.65051C17.2597 8.96698 17.4375 9.3962 17.4375 9.84375C17.4361 11.186 16.9023 12.4728 15.9532 13.4219C15.0041 14.371 13.7172 14.9049 12.375 14.9062V14.9062Z" stroke="#25A268" stroke-linecap="round" stroke-linejoin="round"/>
<path d="M2.8125 16.0313L3.5895 14.478" stroke="#25A268" stroke-linecap="round" stroke-linejoin="round"/>
<path d="M15.1874 16.0313L14.4104 14.478" stroke="#25A268" stroke-linecap="round" stroke-linejoin="round"/>
<path d="M14.9579 8.35425L14.3579 3.87675C14.2762 3.34542 14.007 2.8609 13.5989 2.51091C13.1909 2.16092 12.671 1.9686 12.1334 1.96875H5.86794C5.33049 1.96878 4.8108 2.16118 4.40291 2.51115C3.99502 2.86113 3.72588 3.34554 3.64419 3.87675L3.04419 8.35425" stroke="#25A268" stroke-linecap="round" stroke-linejoin="round"/>
<path d="M11.8125 9.28125V8.15625C11.8125 7.85788 11.694 7.57173 11.483 7.36075C11.272 7.14978 10.9859 7.03125 10.6875 7.03125H7.3125C7.01413 7.03125 6.72798 7.14978 6.517 7.36075C6.30603 7.57173 6.1875 7.85788 6.1875 8.15625V9.28125" stroke="#25A268" stroke-linecap="round" stroke-linejoin="round"/>
</svg>
