<svg width="24" height="24" viewBox="0 0 24 24" fill="none" xmlns="http://www.w3.org/2000/svg">
<path d="M23.0379 11.5189C23.0379 17.8807 17.8807 23.0379 11.5189 23.0379C5.15721 23.0379 0 17.8807 0 11.5189C0 5.15721 5.15721 0 11.5189 0C17.8807 0 23.0379 5.15721 23.0379 11.5189ZM2.37533 11.5189C2.37533 16.5688 6.46907 20.6626 11.5189 20.6626C16.5688 20.6626 20.6626 16.5688 20.6626 11.5189C20.6626 6.46907 16.5688 2.37533 11.5189 2.37533C6.46907 2.37533 2.37533 6.46907 2.37533 11.5189Z" fill="#01B537"/>
<path d="M16.5584 11.5189C16.5584 14.3022 14.3022 16.5584 11.5189 16.5584C8.73565 16.5584 6.47937 14.3022 6.47937 11.5189C6.47937 8.73565 8.73565 6.47937 11.5189 6.47937C14.3022 6.47937 16.5584 8.73565 16.5584 11.5189ZM8.99375 11.5189C8.99375 12.9135 10.1243 14.0441 11.5189 14.0441C12.9135 14.0441 14.0441 12.9135 14.0441 11.5189C14.0441 10.1243 12.9135 8.99375 11.5189 8.99375C10.1243 8.99375 8.99375 10.1243 8.99375 11.5189Z" fill="#01B537"/>
</svg>
