<svg width="35" height="35" viewBox="0 0 35 35" fill="none" xmlns="http://www.w3.org/2000/svg">
<path fill-rule="evenodd" clip-rule="evenodd" d="M17.1393 34.2786C26.605 34.2786 34.2786 26.605 34.2786 17.1393C34.2786 7.67352 26.605 0 17.1393 0C7.67352 0 0 7.67352 0 17.1393C0 26.605 7.67352 34.2786 17.1393 34.2786ZM17.1393 29.1506C10.5056 29.1506 5.12799 23.7729 5.12799 17.1393C5.12799 10.5056 10.5056 5.12799 17.1393 5.12799C23.7729 5.12799 29.1506 10.5056 29.1506 17.1393C29.1506 23.7729 23.7729 29.1506 17.1393 29.1506ZM17.1393 24.0877C20.9768 24.0877 24.0877 20.9768 24.0877 17.1393C24.0877 13.3018 20.9768 10.191 17.1393 10.191C13.3018 10.191 10.191 13.3018 10.191 17.1393C10.191 20.9768 13.3018 24.0877 17.1393 24.0877ZM17.1393 20.5681C15.2457 20.5681 13.7106 19.033 13.7106 17.1393C13.7106 15.2457 15.2457 13.7106 17.1393 13.7106C19.033 13.7106 20.5681 15.2457 20.5681 17.1393C20.5681 19.033 19.033 20.5681 17.1393 20.5681Z" fill="#FC4C00"/>
</svg>
