<svg width="18" height="18" viewBox="0 0 18 18" fill="none" xmlns="http://www.w3.org/2000/svg">
<path d="M7.875 5.25C7.875 4.76675 8.26675 4.375 8.75 4.375C9.23325 4.375 9.625 4.76675 9.625 5.25C9.625 5.73325 9.23325 6.125 8.75 6.125C8.26675 6.125 7.875 5.73325 7.875 5.25ZM7.875 8.75C7.875 8.26675 8.26675 7.875 8.75 7.875C9.23325 7.875 9.625 8.26675 9.625 8.75V12.25C9.625 12.7332 9.23325 13.125 8.75 13.125C8.26675 13.125 7.875 12.7332 7.875 12.25V8.75ZM8.75 0C3.92 0 0 3.92 0 8.75C0 13.58 3.92 17.5 8.75 17.5C13.58 17.5 17.5 13.58 17.5 8.75C17.5 3.92 13.58 0 8.75 0ZM8.75 15.75C4.89125 15.75 1.75 12.6087 1.75 8.75C1.75 4.89125 4.89125 1.75 8.75 1.75C12.6087 1.75 15.75 4.89125 15.75 8.75C15.75 12.6087 12.6087 15.75 8.75 15.75Z" fill="#01B537"/>
</svg>
