<svg width="23" height="15" viewBox="0 0 23 15" fill="none" xmlns="http://www.w3.org/2000/svg">
<path d="M15.6504 8.52539C16.5618 8.52539 17.5547 8.6556 18.6289 8.91602C19.7031 9.17643 20.696 9.59961 21.6074 10.1855C22.5189 10.7715 22.9746 11.4388 22.9746 12.1875V14.7754H16.7246V12.1875C16.7246 10.7552 16.041 9.55078 14.6738 8.57422C14.9017 8.54167 15.2272 8.52539 15.6504 8.52539ZM4.37109 8.91602C5.44531 8.6556 6.43815 8.52539 7.34961 8.52539C8.26107 8.52539 9.25391 8.6556 10.3281 8.91602C11.4023 9.17643 12.3789 9.59961 13.2578 10.1855C14.1693 10.7715 14.625 11.4388 14.625 12.1875V14.7754H0.0253906V12.1875C0.0253906 11.4388 0.48112 10.7715 1.39258 10.1855C2.30404 9.59961 3.29688 9.17643 4.37109 8.91602ZM9.49805 5.54688C8.91211 6.16536 8.19596 6.47461 7.34961 6.47461C6.50326 6.47461 5.77083 6.16536 5.15234 5.54688C4.53385 4.92839 4.22461 4.19596 4.22461 3.34961C4.22461 2.50326 4.53385 1.77083 5.15234 1.15234C5.77083 0.533854 6.50326 0.224609 7.34961 0.224609C8.19596 0.224609 8.91211 0.533854 9.49805 1.15234C10.1165 1.77083 10.4258 2.50326 10.4258 3.34961C10.4258 4.19596 10.1165 4.92839 9.49805 5.54688ZM17.8477 5.54688C17.2292 6.16536 16.4967 6.47461 15.6504 6.47461C14.804 6.47461 14.0716 6.16536 13.4531 5.54688C12.8346 4.92839 12.5254 4.19596 12.5254 3.34961C12.5254 2.50326 12.8346 1.77083 13.4531 1.15234C14.0716 0.533854 14.804 0.224609 15.6504 0.224609C16.4967 0.224609 17.2292 0.533854 17.8477 1.15234C18.4661 1.77083 18.7754 2.50326 18.7754 3.34961C18.7754 4.19596 18.4661 4.92839 17.8477 5.54688Z" fill="#01B537"/>
</svg>
