<svg width="200" height="60" viewBox="0 0 200 60" fill="none" xmlns="http://www.w3.org/2000/svg">
<rect x="0.756836" y="0.972473" width="58.9862" height="58.9862" rx="9.83104" fill="white"/>
<path d="M89.0986 21.7381V36.7698H86.633V30.1948H79.5605V36.7698H77.0949V21.7381H79.5605V28.1833H86.633V21.7381H89.0986ZM91.5227 30.7571C91.5227 29.5603 91.7678 28.5006 92.258 27.5777C92.7627 26.6549 93.4404 25.9412 94.2911 25.4365C95.1562 24.9175 96.1079 24.6579 97.146 24.6579C98.0832 24.6579 98.8979 24.8454 99.59 25.2203C100.297 25.5807 100.859 26.0349 101.277 26.5828V24.8526H103.764V36.7698H101.277V34.9962C100.859 35.5586 100.289 36.0272 99.5684 36.4021C98.8474 36.777 98.0256 36.9644 97.1028 36.9644C96.079 36.9644 95.1418 36.7049 94.2911 36.1858C93.4404 35.6523 92.7627 34.9169 92.258 33.9797C91.7678 33.0281 91.5227 31.9539 91.5227 30.7571ZM101.277 30.8004C101.277 29.9785 101.104 29.2648 100.758 28.6592C100.426 28.0536 99.9865 27.5922 99.4386 27.2749C98.8907 26.9577 98.2995 26.7991 97.6651 26.7991C97.0307 26.7991 96.4395 26.9577 95.8916 27.2749C95.3437 27.5777 94.8967 28.0319 94.5506 28.6375C94.219 29.2287 94.0532 29.9352 94.0532 30.7571C94.0532 31.579 94.219 32.2999 94.5506 32.9199C94.8967 33.5399 95.3437 34.0158 95.8916 34.3474C96.4539 34.6646 97.0451 34.8232 97.6651 34.8232C98.2995 34.8232 98.8907 34.6646 99.4386 34.3474C99.9865 34.0302 100.426 33.5688 100.758 32.9632C101.104 32.3432 101.277 31.6222 101.277 30.8004ZM111.328 36.9644C110.391 36.9644 109.548 36.7986 108.798 36.467C108.063 36.1209 107.479 35.6595 107.046 35.0828C106.613 34.4916 106.383 33.8355 106.354 33.1146H108.906C108.949 33.6192 109.187 34.0446 109.62 34.3907C110.067 34.7223 110.622 34.8881 111.285 34.8881C111.977 34.8881 112.511 34.7583 112.886 34.4988C113.275 34.2248 113.47 33.8788 113.47 33.4606C113.47 33.0137 113.253 32.682 112.821 32.4657C112.403 32.2495 111.732 32.0115 110.809 31.752C109.915 31.5069 109.187 31.269 108.625 31.0383C108.063 30.8076 107.572 30.4543 107.154 29.9785C106.75 29.5027 106.549 28.8754 106.549 28.0968C106.549 27.4624 106.736 26.8856 107.111 26.3666C107.486 25.8331 108.019 25.4149 108.711 25.1121C109.418 24.8093 110.225 24.6579 111.134 24.6579C112.489 24.6579 113.578 25.004 114.4 25.6961C115.236 26.3738 115.683 27.3038 115.741 28.4861H113.275C113.232 27.9526 113.015 27.5273 112.626 27.2101C112.237 26.8928 111.711 26.7342 111.047 26.7342C110.398 26.7342 109.901 26.8568 109.555 27.1019C109.209 27.347 109.036 27.6715 109.036 28.0752C109.036 28.3924 109.151 28.6592 109.382 28.8754C109.613 29.0917 109.894 29.2647 110.225 29.3945C110.557 29.5099 111.047 29.6613 111.696 29.8487C112.561 30.0794 113.268 30.3173 113.816 30.5624C114.378 30.7931 114.861 31.1392 115.265 31.6006C115.669 32.062 115.878 32.6748 115.892 33.439C115.892 34.1167 115.705 34.7223 115.33 35.2558C114.955 35.7893 114.421 36.2074 113.729 36.5102C113.051 36.813 112.251 36.9644 111.328 36.9644ZM122.882 36.9644C121.945 36.9644 121.101 36.7986 120.351 36.467C119.616 36.1209 119.032 35.6595 118.599 35.0828C118.167 34.4916 117.936 33.8355 117.907 33.1146H120.459C120.503 33.6192 120.741 34.0446 121.173 34.3907C121.62 34.7223 122.175 34.8881 122.839 34.8881C123.531 34.8881 124.064 34.7583 124.439 34.4988C124.828 34.2248 125.023 33.8788 125.023 33.4606C125.023 33.0137 124.807 32.682 124.374 32.4657C123.956 32.2495 123.286 32.0115 122.363 31.752C121.469 31.5069 120.741 31.269 120.178 31.0383C119.616 30.8076 119.126 30.4543 118.708 29.9785C118.304 29.5027 118.102 28.8754 118.102 28.0968C118.102 27.4624 118.289 26.8856 118.664 26.3666C119.039 25.8331 119.573 25.4149 120.265 25.1121C120.971 24.8093 121.779 24.6579 122.687 24.6579C124.043 24.6579 125.131 25.004 125.953 25.6961C126.789 26.3738 127.236 27.3038 127.294 28.4861H124.828C124.785 27.9526 124.569 27.5273 124.18 27.2101C123.79 26.8928 123.264 26.7342 122.601 26.7342C121.952 26.7342 121.454 26.8568 121.108 27.1019C120.762 27.347 120.589 27.6715 120.589 28.0752C120.589 28.3924 120.705 28.6592 120.935 28.8754C121.166 29.0917 121.447 29.2647 121.779 29.3945C122.11 29.5099 122.601 29.6613 123.25 29.8487C124.115 30.0794 124.821 30.3173 125.369 30.5624C125.931 30.7931 126.414 31.1392 126.818 31.6006C127.222 32.062 127.431 32.6748 127.445 33.439C127.445 34.1167 127.258 34.7223 126.883 35.2558C126.508 35.7893 125.975 36.2074 125.283 36.5102C124.605 36.813 123.805 36.9644 122.882 36.9644ZM132.575 20.7648V36.7698H130.11V20.7648H132.575ZM146.735 30.5192C146.735 30.9662 146.706 31.3699 146.648 31.7304H137.543C137.615 32.682 137.968 33.4462 138.602 34.023C139.237 34.5997 140.015 34.8881 140.938 34.8881C142.265 34.8881 143.202 34.333 143.75 33.2227H146.41C146.05 34.3186 145.394 35.2197 144.442 35.9263C143.505 36.6184 142.337 36.9644 140.938 36.9644C139.799 36.9644 138.775 36.7121 137.867 36.2074C136.973 35.6884 136.267 34.9674 135.747 34.0446C135.243 33.1074 134.99 32.026 134.99 30.8004C134.99 29.5748 135.236 28.5006 135.726 27.5777C136.23 26.6405 136.93 25.9196 137.824 25.4149C138.732 24.9103 139.77 24.6579 140.938 24.6579C142.063 24.6579 143.065 24.903 143.945 25.3933C144.824 25.8835 145.509 26.5756 145.999 27.4696C146.49 28.3492 146.735 29.3657 146.735 30.5192ZM144.161 29.7406C144.146 28.8322 143.822 28.104 143.188 27.5561C142.553 27.0082 141.767 26.7342 140.83 26.7342C139.979 26.7342 139.251 27.0082 138.646 27.5561C138.04 28.0896 137.68 28.8178 137.564 29.7406H144.161ZM163.625 21.7381V23.7495H157.245V28.1833H162.219V30.1948H157.245V36.7698H154.779V21.7381H163.625ZM168.376 26.5828C168.736 25.9772 169.212 25.5086 169.803 25.177C170.409 24.831 171.123 24.6579 171.945 24.6579V27.2101H171.317C170.351 27.2101 169.616 27.4552 169.111 27.9454C168.621 28.4357 168.376 29.2864 168.376 30.4976V36.7698H165.91V24.8526H168.376V26.5828ZM185.133 30.5192C185.133 30.9662 185.104 31.3699 185.047 31.7304H175.941C176.013 32.682 176.367 33.4462 177.001 34.023C177.635 34.5997 178.414 34.8881 179.337 34.8881C180.663 34.8881 181.601 34.333 182.149 33.2227H184.809C184.448 34.3186 183.792 35.2197 182.841 35.9263C181.903 36.6184 180.736 36.9644 179.337 36.9644C178.198 36.9644 177.174 36.7121 176.266 36.2074C175.372 35.6884 174.665 34.9674 174.146 34.0446C173.641 33.1074 173.389 32.026 173.389 30.8004C173.389 29.5748 173.634 28.5006 174.124 27.5777C174.629 26.6405 175.328 25.9196 176.222 25.4149C177.131 24.9103 178.169 24.6579 179.337 24.6579C180.462 24.6579 181.464 24.903 182.343 25.3933C183.223 25.8835 183.908 26.5756 184.398 27.4696C184.888 28.3492 185.133 29.3657 185.133 30.5192ZM182.56 29.7406C182.545 28.8322 182.221 28.104 181.586 27.5561C180.952 27.0082 180.166 26.7342 179.229 26.7342C178.378 26.7342 177.65 27.0082 177.044 27.5561C176.439 28.0896 176.078 28.8178 175.963 29.7406H182.56ZM198.482 30.5192C198.482 30.9662 198.453 31.3699 198.395 31.7304H189.29C189.362 32.682 189.715 33.4462 190.35 34.023C190.984 34.5997 191.763 34.8881 192.686 34.8881C194.012 34.8881 194.949 34.333 195.497 33.2227H198.158C197.797 34.3186 197.141 35.2197 196.189 35.9263C195.252 36.6184 194.084 36.9644 192.686 36.9644C191.547 36.9644 190.523 36.7121 189.614 36.2074C188.72 35.6884 188.014 34.9674 187.495 34.0446C186.99 33.1074 186.738 32.026 186.738 30.8004C186.738 29.5748 186.983 28.5006 187.473 27.5777C187.978 26.6405 188.677 25.9196 189.571 25.4149C190.48 24.9103 191.518 24.6579 192.686 24.6579C193.81 24.6579 194.812 24.903 195.692 25.3933C196.572 25.8835 197.256 26.5756 197.747 27.4696C198.237 28.3492 198.482 29.3657 198.482 30.5192ZM195.908 29.7406C195.894 28.8322 195.569 28.104 194.935 27.5561C194.301 27.0082 193.515 26.7342 192.577 26.7342C191.727 26.7342 190.999 27.0082 190.393 27.5561C189.787 28.0896 189.427 28.8178 189.312 29.7406H195.908Z" fill="white"/>
<path d="M42.6335 31.5185V17.6012C42.6335 17.1047 42.2322 16.7022 41.737 16.7022H17.7178C17.2227 16.7022 16.8213 17.1047 16.8213 17.6012V32.6279C16.3888 32.6911 15.966 32.8595 15.592 33.1379C14.4129 33.9764 14.134 35.8527 15.1217 37.0099L19.1597 41.9191C21.6593 44.8527 24.3146 45.2122 28.2619 45.2122C31.6493 45.2122 33.1638 45.2272 36.116 44.5526L38.9906 43.8631C39.4568 44.5158 40.1967 44.9387 41.0286 44.9387H42.4447C43.8518 44.9387 44.9965 43.7294 44.9965 42.2429V34.2062C44.9966 32.7868 43.9527 31.6209 42.6335 31.5185ZM38.6039 33.3678L37.4094 32.7594C35.4454 31.7653 33.1747 31.7285 31.1797 32.6586C30.6354 32.8733 29.4482 33.5936 28.8325 33.5695H24.6875C23.3126 33.5695 22.194 34.6912 22.194 36.07V36.7257C22.1863 36.7175 22.1783 36.7098 22.1707 36.7015L19.2107 33.4796C19.0316 33.2846 18.8303 33.1214 18.6143 32.9905V24.0709H25.9509V27.3666C25.9509 27.8631 26.3523 28.2656 26.8474 28.2656H32.5044C32.9995 28.2656 33.4009 27.8631 33.4009 27.3666V24.0709H40.8406V31.5184C39.7931 31.5995 38.9197 32.351 38.6039 33.3678ZM27.7439 24.0709H31.6079V26.4675H27.7439V24.0709ZM40.8405 22.2729H33.4009V18.5003H40.8406V22.2729H40.8405ZM31.6079 18.5003V22.2729H27.7439V18.5003H31.6079ZM25.9509 18.5003V22.2729H18.6143V18.5003H25.9509ZM35.6999 42.8035C32.9727 43.4299 31.3302 43.4046 28.2941 43.4046C24.5885 43.4046 22.7981 43.3445 20.543 40.7748L16.5049 35.8657C15.8026 34.9485 17.0748 33.8657 17.892 34.6977L20.852 37.9198C21.6343 38.7476 22.6187 39.2031 23.832 39.2299H32.0385C32.5336 39.2299 32.935 38.8274 32.935 38.3309C32.935 37.8344 32.5336 37.4318 32.0385 37.4318H23.987V36.0699C23.987 35.6826 24.3012 35.3675 24.6874 35.3675H28.8324C29.7662 35.4345 31.114 34.6526 31.9356 34.289C33.4297 33.5923 35.1305 33.6199 36.5995 34.3634L38.477 35.3198V42.1373L35.6999 42.8035ZM43.2035 42.2428C43.2035 42.7378 42.8632 43.1406 42.4448 43.1406H41.0287C40.6103 43.1406 40.27 42.7378 40.27 42.2428V34.2062C40.27 33.7111 40.6104 33.3084 41.0287 33.3084H42.4448C42.8632 33.3084 43.2035 33.7111 43.2035 34.2062V42.2428Z" fill="#01B537"/>
</svg>
