<svg width="31" height="30" viewBox="0 0 31 30" fill="none" xmlns="http://www.w3.org/2000/svg">
<path d="M28.6335 15.5185V1.60122C28.6335 1.10472 28.2322 0.702187 27.737 0.702187H3.71778C3.22268 0.702187 2.82128 1.10472 2.82128 1.60122V16.6279C2.38881 16.6911 1.96602 16.8595 1.59199 17.1379C0.412912 17.9764 0.134039 19.8527 1.12169 21.0099L5.15972 25.9191C7.6593 28.8527 10.3146 29.2122 14.2619 29.2122C17.6493 29.2122 19.1638 29.2272 22.116 28.5526L24.9906 27.8631C25.4568 28.5158 26.1967 28.9387 27.0286 28.9387H28.4447C29.8518 28.9387 30.9965 27.7294 30.9965 26.2429V18.2062C30.9966 16.7868 29.9527 15.6209 28.6335 15.5185ZM24.6039 17.3678L23.4094 16.7594C21.4454 15.7653 19.1747 15.7285 17.1797 16.6586C16.6354 16.8733 15.4482 17.5936 14.8325 17.5695H10.6875C9.31263 17.5695 8.19403 18.6912 8.19403 20.07V20.7257C8.18632 20.7175 8.17825 20.7098 8.17066 20.7015L5.2107 17.4796C5.03158 17.2846 4.83035 17.1214 4.61435 16.9905V8.07094H11.9509V11.3666C11.9509 11.8631 12.3523 12.2656 12.8474 12.2656H18.5044C18.9995 12.2656 19.4009 11.8631 19.4009 11.3666V8.07094H26.8406V15.5184C25.7931 15.5995 24.9197 16.351 24.6039 17.3678ZM13.7439 8.07094H17.6079V10.4675H13.7439V8.07094ZM26.8405 6.27287H19.4009V2.50026H26.8406V6.27287H26.8405ZM17.6079 2.50026V6.27293H13.7439V2.50026H17.6079ZM11.9509 2.50026V6.27293H4.61429V2.50026H11.9509ZM21.6999 26.8035C18.9727 27.4299 17.3302 27.4046 14.2941 27.4046C10.5885 27.4046 8.79809 27.3445 6.54297 24.7748L2.50493 19.8657C1.80255 18.9485 3.07475 17.8657 3.89201 18.6977L6.85196 21.9198C7.63425 22.7476 8.61867 23.2031 9.832 23.2299H18.0385C18.5336 23.2299 18.935 22.8274 18.935 22.3309C18.935 21.8344 18.5336 21.4318 18.0385 21.4318H9.98698V20.0699C9.98698 19.6826 10.3012 19.3675 10.6874 19.3675H14.8324C15.7662 19.4345 17.114 18.6526 17.9356 18.289C19.4297 17.5923 21.1305 17.6199 22.5995 18.3634L24.477 19.3198V26.1373L21.6999 26.8035ZM29.2035 26.2428C29.2035 26.7378 28.8632 27.1406 28.4448 27.1406H27.0287C26.6103 27.1406 26.27 26.7378 26.27 26.2428V18.2062C26.27 17.7111 26.6104 17.3084 27.0287 17.3084H28.4448C28.8632 17.3084 29.2035 17.7111 29.2035 18.2062V26.2428Z" fill="#01B537"/>
</svg>
