<svg width="12" height="12" viewBox="0 0 12 12" fill="none" xmlns="http://www.w3.org/2000/svg">
<path d="M11.1429 0.301514H0.854464C0.383036 0.301514 0 0.657541 0 1.09459V10.5084C0 10.9455 0.383036 11.3015 0.854464 11.3015H11.1429C11.6143 11.3015 12 10.9455 12 10.5084V1.09459C12 0.657541 11.6143 0.301514 11.1429 0.301514ZM3.62679 9.73009H1.84821V4.48053H3.62946V9.73009H3.62679ZM2.7375 3.76357C2.16696 3.76357 1.70625 3.33879 1.70625 2.81825C1.70625 2.29772 2.16696 1.87294 2.7375 1.87294C3.30536 1.87294 3.76875 2.29772 3.76875 2.81825C3.76875 3.34125 3.30804 3.76357 2.7375 3.76357ZM10.2937 9.73009H8.51518V7.17651C8.51518 6.56758 8.50179 5.78433 7.59107 5.78433C6.66429 5.78433 6.52232 6.44727 6.52232 7.13232V9.73009H4.74375V4.48053H6.45V5.1975H6.47411C6.7125 4.785 7.29375 4.3504 8.15893 4.3504C9.95893 4.3504 10.2937 5.43812 10.2937 6.85241V9.73009Z" fill="#01B537"/>
</svg>
