<svg width="12" height="12" viewBox="0 0 12 12" fill="none" xmlns="http://www.w3.org/2000/svg">
<path d="M9.68091 0H2.3191C1.04034 0 0 1.04012 0 2.31891V4.76854V9.68108C0 10.9599 1.04034 12 2.3191 12H9.68116C10.9599 12 12 10.9599 12 9.68108V4.76829V2.31867C11.9998 1.03988 10.9597 0 9.68091 0ZM10.3461 1.38287L10.6114 1.38191V1.64599V3.41592L8.58413 3.42245L8.57712 1.38869L10.3461 1.38287ZM4.28724 4.76829C4.67161 4.23649 5.29514 3.88769 6 3.88769C6.70486 3.88769 7.32841 4.23649 7.7123 4.76829C7.9623 5.1154 8.11217 5.53996 8.11217 5.9999C8.11217 7.16445 7.16378 8.11181 5.99975 8.11181C4.835 8.11181 3.88761 7.16445 3.88761 5.9999C3.88785 5.53996 4.0372 5.1154 4.28724 4.76829ZM10.8306 9.68087C10.8306 10.3153 10.3149 10.8306 9.68091 10.8306H2.3191C1.68493 10.8306 1.16911 10.3153 1.16911 9.68087V4.76829H2.9603C2.80563 5.14881 2.71873 5.5644 2.71873 5.9999C2.71873 7.80879 4.19041 9.28148 6 9.28148C7.80934 9.28148 9.28105 7.80879 9.28105 5.9999C9.28105 5.5644 9.19366 5.14881 9.03899 4.76829H10.8306V9.68087Z" fill="#01B537"/>
</svg>
