<svg width="21" height="21" viewBox="0 0 21 21" fill="none" xmlns="http://www.w3.org/2000/svg">
<path d="M18.8496 5.27539V2.15039H2.15039V5.27539H18.8496ZM13.625 12.5996V10.5H7.375V12.5996H13.625ZM18.8496 0.0996094C19.3704 0.0996094 19.8424 0.311198 20.2656 0.734375C20.6888 1.125 20.9004 1.59701 20.9004 2.15039V5.32422C20.9004 6.10547 20.5586 6.69141 19.875 7.08203V18.8496C19.875 19.403 19.6471 19.8913 19.1914 20.3145C18.7357 20.7051 18.2637 20.9004 17.7754 20.9004H3.22461C2.73633 20.9004 2.26432 20.7051 1.80859 20.3145C1.35286 19.8913 1.125 19.403 1.125 18.8496V7.08203C0.441406 6.69141 0.0996094 6.10547 0.0996094 5.32422V2.15039C0.0996094 1.59701 0.311198 1.125 0.734375 0.734375C1.15755 0.311198 1.62956 0.0996094 2.15039 0.0996094H18.8496Z" fill="#01B537"/>
</svg>
