<svg width="79" height="79" viewBox="0 0 79 79" fill="none" xmlns="http://www.w3.org/2000/svg">
<path d="M76.9251 39.1599H75.5331C75.5331 49.2074 71.4657 58.2944 64.8815 64.8814C58.2945 71.4656 49.2103 75.5358 39.16 75.5358C29.1097 75.5358 20.0255 71.4656 13.4385 64.8814C6.8543 58.2944 2.78413 49.2074 2.78413 39.1599C2.78413 29.1096 6.8543 20.0254 13.4385 13.4384C20.0255 6.8542 29.1097 2.78397 39.16 2.78397C49.2103 2.78397 58.2945 6.8542 64.8815 13.4384C71.4657 20.0254 75.5331 29.1096 75.5331 39.1599H76.9251H78.3171C78.3171 17.5309 60.7862 -4.57764e-05 39.16 -4.57764e-05C17.531 -4.57764e-05 0.00012207 17.5309 0.00012207 39.1599C0.00012207 60.7861 17.531 78.3198 39.16 78.3198C60.7862 78.3198 78.3171 60.7861 78.3171 39.1599H76.9251Z" fill="#01B636"/>
<path d="M50.0765 37.9792C49.9735 35.1033 49.5002 32.2942 48.6957 29.7162C50.1795 29.204 51.5855 28.5775 52.8689 27.8398C55.1768 30.6349 56.6524 34.1428 56.9029 37.9792H50.0765ZM48.6957 48.6002C49.5002 46.0222 49.9735 43.2159 50.0765 40.3372H56.9029C56.6524 44.1764 55.1768 47.6842 52.8689 50.4766C51.5855 49.7416 50.1795 49.1152 48.6957 48.6002ZM46.8053 53.127C47.2034 52.392 47.5653 51.6208 47.8966 50.8218C49.0603 51.2199 50.1656 51.696 51.1901 52.2472C49.3916 53.8981 47.2536 55.1871 44.8927 55.9945C45.5692 55.1732 46.2123 54.2155 46.8053 53.127ZM30.4241 50.8218C30.7527 51.6208 31.1174 52.392 31.5155 53.127C32.1085 54.2155 32.7488 55.1732 33.4253 55.9945C31.0673 55.1871 28.9292 53.8981 27.1307 52.2472C28.1552 51.696 29.2604 51.2199 30.4241 50.8218ZM28.2443 40.3372C28.3445 43.2159 28.8206 46.0222 29.6252 48.6002C28.1385 49.1152 26.7354 49.7416 25.4519 50.4766C23.1412 47.6842 21.6685 44.1764 21.4151 40.3372H28.2443ZM29.6252 29.7162C28.8206 32.2942 28.3445 35.1033 28.2443 37.9792H21.4151C21.6685 34.1428 23.1412 30.6349 25.4519 27.8398C26.7354 28.5775 28.1385 29.204 29.6252 29.7162ZM31.5155 25.1922C31.1174 25.9272 30.7527 26.6955 30.4241 27.4973C29.2604 27.0964 28.1552 26.6232 27.1307 26.0719C28.9292 24.421 31.0673 23.1292 33.4253 22.3247C32.7488 23.1432 32.1085 24.1009 31.5155 25.1922ZM46.8053 25.1922C46.2123 24.1009 45.5692 23.1432 44.8927 22.3247C47.2536 23.1292 49.3916 24.421 51.1901 26.0719C50.1656 26.6232 49.0603 27.0964 47.8966 27.4973C47.5653 26.6955 47.2034 25.9272 46.8053 25.1922ZM40.3408 28.9033V21.6287C41.8275 22.2356 43.4283 23.9199 44.7284 26.3169C45.0458 26.9016 45.3409 27.5196 45.6109 28.1627C43.9127 28.572 42.1365 28.8253 40.3408 28.9033ZM40.3408 37.9792V31.2669C42.4121 31.1806 44.4668 30.8827 46.4239 30.3899C47.1617 32.7563 47.6099 35.3566 47.7129 37.9792H40.3408ZM40.3408 47.0522V40.3372H47.7129C47.6099 42.9597 47.1617 45.56 46.4239 47.9292C44.4668 47.4337 42.4121 47.1358 40.3408 47.0522ZM40.3408 49.4159C42.1365 49.491 43.9127 49.7444 45.6109 50.1564C45.3409 50.7967 45.0458 51.4148 44.7284 51.9994C43.4283 54.3965 41.8275 56.0836 40.3408 56.6905V49.4159ZM37.98 49.4159V56.6905C36.4905 56.0836 34.8925 54.3965 33.5896 51.9994C33.275 51.4148 32.9799 50.7967 32.7099 50.1564C34.4053 49.7444 36.1843 49.491 37.98 49.4159ZM37.98 40.3372V47.0522C35.9087 47.1358 33.8541 47.4337 31.8969 47.9292C31.1563 45.56 30.7109 42.9597 30.6079 40.3372H37.98ZM37.98 31.2669V37.9792H30.6079C30.7109 35.3566 31.1563 32.7563 31.8969 30.3899C33.8541 30.8827 35.9087 31.1806 37.98 31.2669ZM37.98 28.9033C36.1843 28.8253 34.4053 28.572 32.7099 28.1627C32.9799 27.5196 33.275 26.9016 33.5896 26.3169C34.8925 23.9199 36.4905 22.2356 37.98 21.6287V28.9033ZM39.1604 19.0145C28.0522 19.0145 19.0153 28.0514 19.0153 39.1596C19.0153 50.2678 28.0522 59.3047 39.1604 59.3047C50.2686 59.3047 59.3055 50.2678 59.3055 39.1596C59.3055 28.0514 50.2686 19.0145 39.1604 19.0145Z" fill="#313131"/>
</svg>
