<svg width="18" height="18" viewBox="0 0 18 18" fill="none" xmlns="http://www.w3.org/2000/svg">
<path d="M14.625 0.5625H3.375C2.75368 0.5625 2.25 1.06618 2.25 1.6875V15.1875C2.25 15.8088 2.75368 16.3125 3.375 16.3125H14.625C15.2463 16.3125 15.75 15.8088 15.75 15.1875V1.6875C15.75 1.06618 15.2463 0.5625 14.625 0.5625Z" stroke="#25A268" stroke-linecap="round" stroke-linejoin="round"/>
<path d="M3.375 16.3125V17.4375" stroke="#25A268" stroke-linecap="round" stroke-linejoin="round"/>
<path d="M14.625 16.3125V17.4375" stroke="#25A268" stroke-linecap="round" stroke-linejoin="round"/>
<path d="M9 16.3125V0.5625" stroke="#25A268" stroke-linecap="round" stroke-linejoin="round"/>
<path d="M6.75 8.15625C6.80563 8.15625 6.86 8.17275 6.90625 8.20365C6.95251 8.23455 6.98855 8.27848 7.00984 8.32987C7.03113 8.38126 7.0367 8.43781 7.02585 8.49237C7.01499 8.54693 6.98821 8.59704 6.94887 8.63637C6.90954 8.67571 6.85943 8.70249 6.80487 8.71335C6.75031 8.7242 6.69376 8.71863 6.64237 8.69734C6.59098 8.67605 6.54705 8.64001 6.51615 8.59375C6.48525 8.5475 6.46875 8.49313 6.46875 8.4375C6.46875 8.36291 6.49838 8.29137 6.55113 8.23863C6.60387 8.18588 6.67541 8.15625 6.75 8.15625" stroke="#25A268" stroke-linecap="round" stroke-linejoin="round"/>
<path d="M11.25 8.15625C11.3056 8.15625 11.36 8.17275 11.4063 8.20365C11.4525 8.23455 11.4886 8.27848 11.5098 8.32987C11.5311 8.38126 11.5367 8.43781 11.5258 8.49237C11.515 8.54693 11.4882 8.59704 11.4489 8.63637C11.4095 8.67571 11.3594 8.70249 11.3049 8.71335C11.2503 8.7242 11.1938 8.71863 11.1424 8.69734C11.091 8.67605 11.0471 8.64001 11.0161 8.59375C10.9852 8.5475 10.9688 8.49313 10.9688 8.4375C10.9688 8.36291 10.9984 8.29137 11.0511 8.23863C11.1039 8.18588 11.1754 8.15625 11.25 8.15625" stroke="#25A268" stroke-linecap="round" stroke-linejoin="round"/>
</svg>
