<svg width="21" height="19" viewBox="0 0 21 19" fill="none" xmlns="http://www.w3.org/2000/svg">
<path d="M12.365 4.25V2.31836H8.50171V4.25H12.365ZM18.115 4.25C18.6541 4.25 19.1033 4.44466 19.4626 4.83398C19.822 5.19336 20.0017 5.64258 20.0017 6.18164V16.6934C20.0017 17.2324 19.822 17.6966 19.4626 18.0859C19.1033 18.4453 18.6541 18.625 18.115 18.625H2.75171C2.21265 18.625 1.76343 18.4453 1.40405 18.0859C1.04468 17.6966 0.86499 17.2324 0.86499 16.6934V6.18164C0.86499 5.64258 1.04468 5.19336 1.40405 4.83398C1.76343 4.44466 2.21265 4.25 2.75171 4.25H6.61499V2.31836C6.61499 1.7793 6.79468 1.33008 7.15405 0.970703C7.51343 0.611328 7.96265 0.431641 8.50171 0.431641H12.365C12.9041 0.431641 13.3533 0.611328 13.7126 0.970703C14.072 1.33008 14.2517 1.7793 14.2517 2.31836V4.25H18.115Z" fill="#7B7B7B"/>
</svg>
