<svg width="18" height="13" viewBox="0 0 18 13" fill="none" xmlns="http://www.w3.org/2000/svg">
<path fill-rule="evenodd" clip-rule="evenodd" d="M5.85283 0.772161C5.70504 0.507941 5.41764 0.473036 5.2109 0.694198L0.424519 5.81445C0.294867 5.95315 0.227728 6.15962 0.232138 6.35948C0.227728 6.55933 0.294867 6.7658 0.424519 6.9045L5.2109 12.0248C5.41764 12.2459 5.70504 12.211 5.85283 11.9468C6.00062 11.6826 5.95284 11.2891 5.7461 11.0679L1.34467 6.35948L5.7461 1.65102C5.95284 1.42986 6.00062 1.03638 5.85283 0.772161Z" fill="#01B537"/>
<path fill-rule="evenodd" clip-rule="evenodd" d="M11.7551 0.772161C11.9029 0.507941 12.1903 0.473036 12.397 0.694198L17.1834 5.81445C17.313 5.95315 17.3802 6.15962 17.3758 6.35948C17.3802 6.55933 17.313 6.7658 17.1834 6.9045L12.397 12.0248C12.1903 12.2459 11.9029 12.211 11.7551 11.9468C11.6073 11.6826 11.6551 11.2891 11.8618 11.0679L16.2632 6.35948L11.8618 1.65102C11.6551 1.42986 11.6073 1.03638 11.7551 0.772161Z" fill="#01B537"/>
</svg>
