<svg width="49" height="49" viewBox="0 0 49 49" fill="none" xmlns="http://www.w3.org/2000/svg">
<circle cx="24.5" cy="24.5" r="23.7097" fill="#C9F0D5" stroke="#01B537" stroke-width="1.58065"/>
<path opacity="0.01" d="M18.128 26.7289C20.0708 25.9386 21.9314 25.5434 23.7096 25.5434C25.4878 25.5434 27.3319 25.9386 29.2419 26.7289C31.1847 27.4863 32.1562 28.4907 32.1562 29.742V31.866H15.263V29.742C15.263 28.4907 16.218 27.4863 18.128 26.7289ZM26.6733 22.1845C25.8501 23.0078 24.8622 23.4194 23.7096 23.4194C22.5571 23.4194 21.5692 23.0078 20.7459 22.1845C19.9227 21.3613 19.511 20.3734 19.511 19.2208C19.511 18.0683 19.9227 17.0804 20.7459 16.2571C21.5692 15.4009 22.5571 14.9728 23.7096 14.9728C24.8622 14.9728 25.8501 15.4009 26.6733 16.2571C27.4966 17.0804 27.9082 18.0683 27.9082 19.2208C27.9082 20.3734 27.4966 21.3613 26.6733 22.1845Z" fill="#01B537"/>
</svg>
