<svg width="49" height="49" viewBox="0 0 49 49" fill="none" xmlns="http://www.w3.org/2000/svg">
<circle cx="24.5" cy="24.5" r="23.7097" fill="#C9F0D5" stroke="#01B537" stroke-width="1.58065"/>
<path opacity="0.01" d="M18.128 26.7289C20.0708 25.9386 21.9314 25.5434 23.7096 25.5434C25.4878 25.5434 27.3319 25.9386 29.2419 26.7289C31.1847 27.4863 32.1562 28.4907 32.1562 29.742V31.866H15.263V29.742C15.263 28.4907 16.218 27.4863 18.128 26.7289ZM26.6733 22.1845C25.8501 23.0078 24.8622 23.4194 23.7096 23.4194C22.5571 23.4194 21.5692 23.0078 20.7459 22.1845C19.9227 21.3613 19.511 20.3734 19.511 19.2208C19.511 18.0683 19.9227 17.0804 20.7459 16.2571C21.5692 15.4009 22.5571 14.9728 23.7096 14.9728C24.8622 14.9728 25.8501 15.4009 26.6733 16.2571C27.4966 17.0804 27.9082 18.0683 27.9082 19.2208C27.9082 20.3734 27.4966 21.3613 26.6733 22.1845Z" fill="#01B537"/>
<path d="M16.0394 36.5377C13.4622 35.2001 12.9762 31.8188 15.0789 29.8554C16.3186 28.6979 17.6683 28.3695 19.2968 28.8291C21.953 29.5788 23.1481 32.4177 21.8413 34.8738C20.8239 36.7859 18.0502 37.5814 16.0394 36.5377ZM19.5758 34.7976C20.6626 34.1062 20.8595 32.2837 19.9596 31.2453C19.0061 30.1451 17.3418 30.1325 16.2247 31.2171C15.7393 31.6884 15.6142 31.9942 15.6142 32.7088C15.6142 34.8083 17.7712 35.9456 19.5758 34.7976ZM12 30.6032V26.6556H13.9553H15.9105L15.0579 28.735C14.0222 29.4746 13.1007 31.047 13.0178 32.2163C12.9654 32.9563 12.8884 33.0796 12.4784 33.0799C12.0089 33.0802 12 33.0344 12 30.6032ZM23.1903 32.1224C23.0104 30.8483 22.1728 29.4943 21.0956 28.7367L20.2276 26.6556H29.6138H39V28.7455V29.3647H33.7697H28.5395L28.6142 31.1709L28.6889 32.977L26.0081 33.0346L23.3272 33.0921L23.1903 32.1224ZM12 24.5914V21.031H19.6536H24.3071V17.9861V12H27.9449H28.5827V18.6053V25.2107H20.2913H12V24.5914Z" fill="#01B537"/>
</svg>
