<svg width="31" height="44" viewBox="0 0 31 44" fill="none" xmlns="http://www.w3.org/2000/svg">
<path fill-rule="evenodd" clip-rule="evenodd" d="M15.3505 39.9999L25.9938 22.2295C27.1576 20.2835 27.7812 18.0507 27.7812 15.7706C27.7812 8.81614 22.1157 3.13954 15.1612 3.13954C8.20674 3.13954 2.53296 8.81614 2.53296 15.7706C2.53296 18.1175 3.20107 20.4115 4.42882 22.3965L15.3505 39.9999ZM0.0273438 15.7706C0.0273438 7.42692 6.81751 0.636719 15.1612 0.636719C23.5049 0.636719 30.2951 7.42692 30.2951 15.7706C30.2951 18.5045 29.5573 21.1855 28.1597 23.5241L16.453 43.0706C16.2247 43.4465 15.821 43.6803 15.3811 43.6831H15.37C14.9357 43.6831 14.5292 43.4576 14.2981 43.0873L2.28793 23.7273C0.806832 21.3414 0.0273438 18.588 0.0273438 15.7706ZM10.1004 15.7707C10.1004 18.5602 12.3666 20.832 15.1617 20.832C18.0014 20.832 20.2147 18.5185 20.2147 15.7707C20.2147 12.9894 17.943 10.7065 15.1617 10.7065C12.3805 10.7065 10.1004 12.9894 10.1004 15.7707ZM7.59481 15.7707C7.59481 11.5974 10.9885 8.2037 15.1617 8.2037C19.335 8.2037 22.7259 11.5974 22.7259 15.7707C22.7259 19.8687 19.4408 23.3348 15.1617 23.3348C10.9328 23.3348 7.59481 19.9161 7.59481 15.7707Z" fill="#313131"/>
</svg>
