<svg width="79" height="79" viewBox="0 0 79 79" fill="none" xmlns="http://www.w3.org/2000/svg">
<path d="M76.925 39.1599H75.533C75.533 49.2074 71.4628 58.2944 64.8786 64.8814C58.2916 71.4656 49.2074 75.5358 39.1599 75.5358C29.1096 75.5358 20.0254 71.4656 13.4384 64.8814C6.85425 58.2944 2.78401 49.2074 2.78401 39.1599C2.78401 29.1096 6.85425 20.0254 13.4384 13.4384C20.0254 6.8542 29.1096 2.78397 39.1599 2.78397C49.2074 2.78397 58.2916 6.8542 64.8786 13.4384C71.4656 20.0254 75.533 29.1096 75.533 39.1599H76.925H78.317C78.317 17.5309 60.7861 -4.57764e-05 39.1599 -4.57764e-05C17.5309 -4.57764e-05 0.00278401 17.5309 0 39.1599C0.00278401 60.7861 17.5309 78.3198 39.1599 78.3198C60.7861 78.3198 78.317 60.7861 78.317 39.1599H76.925Z" fill="#01B636"/>
<path fill-rule="evenodd" clip-rule="evenodd" d="M39.3504 56.9998L49.9938 39.2294C51.1575 37.2834 51.7811 35.0506 51.7811 32.7705C51.7811 25.8161 46.1156 20.1395 39.1612 20.1395C32.2067 20.1395 26.5329 25.8161 26.5329 32.7705C26.5329 35.1175 27.201 37.4115 28.4288 39.3965L39.3504 56.9998ZM24.0273 32.7705C24.0273 24.4268 30.8175 17.6366 39.1612 17.6366C47.5048 17.6366 54.295 24.4268 54.295 32.7705C54.295 35.5044 53.5573 38.1854 52.1597 40.524L40.453 60.0705C40.2247 60.4464 39.821 60.6803 39.3811 60.683H39.37C38.9356 60.683 38.5292 60.4575 38.2981 60.0873L26.2879 40.7272C24.8068 38.3413 24.0273 35.588 24.0273 32.7705ZM34.1004 32.7706C34.1004 35.5602 36.3665 37.8319 39.1617 37.8319C42.0014 37.8319 44.2146 35.5184 44.2146 32.7706C44.2146 29.9894 41.9429 27.7064 39.1617 27.7064C36.3805 27.7064 34.1004 29.9894 34.1004 32.7706ZM31.5948 32.7706C31.5948 28.5973 34.9885 25.2036 39.1617 25.2036C43.3349 25.2036 46.7258 28.5973 46.7258 32.7706C46.7258 36.8687 43.4407 40.3347 39.1617 40.3347C34.9328 40.3347 31.5948 36.916 31.5948 32.7706Z" fill="#313131"/>
</svg>
