<svg width="12" height="15" viewBox="0 0 12 15" fill="none" xmlns="http://www.w3.org/2000/svg">
<path fill-rule="evenodd" clip-rule="evenodd" d="M6.97454 14.1319C8.67385 12.9202 12 10.1235 12 6.79578C12 3.44587 9.31371 0.730225 6 0.730225C2.68629 0.730225 0 3.44587 0 6.79578C0 10.1235 3.32614 12.9202 5.02546 14.1319C5.61413 14.5517 6.38587 14.5517 6.97454 14.1319ZM6 8.7113C7.04643 8.7113 7.89474 7.85373 7.89474 6.79586C7.89474 5.73799 7.04643 4.88042 6 4.88042C4.95356 4.88042 4.10526 5.73799 4.10526 6.79586C4.10526 7.85373 4.95356 8.7113 6 8.7113Z" fill="#01B537"/>
</svg>
