<svg width="18" height="22" viewBox="0 0 18 22" fill="none" xmlns="http://www.w3.org/2000/svg">
<path d="M9.11404 18.5496L13.876 13.7877C14.8177 12.8459 15.459 11.646 15.7188 10.3397C15.9786 9.03342 15.8452 7.67946 15.3355 6.44901C14.8257 5.21856 13.9626 4.16688 12.8552 3.42696C11.7478 2.68704 10.4459 2.29211 9.11404 2.29211C7.78219 2.29211 6.48026 2.68704 5.37286 3.42696C4.26546 4.16688 3.40233 5.21856 2.89263 6.44901C2.38292 7.67946 2.24952 9.03342 2.5093 10.3397C2.76908 11.646 3.41037 12.8459 4.35208 13.7877L9.11404 18.5496ZM9.11404 21.2702L2.9918 15.1479C1.78095 13.9371 0.956358 12.3944 0.622292 10.7148C0.288226 9.03535 0.459691 7.2945 1.11501 5.71244C1.77032 4.13039 2.88005 2.77818 4.30387 1.82682C5.72768 0.875462 7.40163 0.367676 9.11404 0.367676C10.8264 0.367676 12.5004 0.875462 13.9242 1.82682C15.348 2.77818 16.4578 4.13039 17.1131 5.71244C17.7684 7.2945 17.9399 9.03535 17.6058 10.7148C17.2717 12.3944 16.4471 13.9371 15.2363 15.1479L9.11404 21.2702ZM9.11404 10.9497C9.62432 10.9497 10.1137 10.747 10.4745 10.3862C10.8354 10.0254 11.0381 9.53598 11.0381 9.0257C11.0381 8.51542 10.8354 8.02604 10.4745 7.66521C10.1137 7.30439 9.62432 7.10168 9.11404 7.10168C8.60376 7.10168 8.11437 7.30439 7.75355 7.66521C7.39273 8.02604 7.19002 8.51542 7.19002 9.0257C7.19002 9.53598 7.39273 10.0254 7.75355 10.3862C8.11437 10.747 8.60376 10.9497 9.11404 10.9497ZM9.11404 12.8737C8.09347 12.8737 7.11471 12.4683 6.39306 11.7467C5.67141 11.025 5.26599 10.0463 5.26599 9.0257C5.26599 8.00514 5.67141 7.02637 6.39306 6.30472C7.11471 5.58308 8.09347 5.17766 9.11404 5.17766C10.1346 5.17766 11.1134 5.58308 11.835 6.30472C12.5567 7.02637 12.9621 8.00514 12.9621 9.0257C12.9621 10.0463 12.5567 11.025 11.835 11.7467C11.1134 12.4683 10.1346 12.8737 9.11404 12.8737Z" fill="#01B537"/>
</svg>
