<svg width="23" height="23" viewBox="0 0 23 23" fill="none" xmlns="http://www.w3.org/2000/svg">
<path d="M10.0517 10.3022L10.2344 10.1315C10.7492 10.6826 11.5777 10.838 12.2366 10.5148L12.3467 10.7393L12.2366 10.5148C12.5715 10.3506 12.8974 10.0321 13.0965 9.66385C13.1406 9.58237 13.1634 9.53643 13.1824 9.45329C13.2036 9.36034 13.2205 9.21609 13.2313 8.94413C13.2528 8.40129 13.2484 7.41237 13.2382 5.44635L13.2379 5.39775C13.2267 3.24459 13.2212 2.19596 13.1547 1.61539C13.1217 1.32766 13.076 1.18201 13.0224 1.08256C12.9675 0.981019 12.8959 0.908891 12.7557 0.769579C12.5398 0.555025 12.3703 0.432362 12.1917 0.358679C12.0128 0.284887 11.8039 0.251625 11.4949 0.250031L10.0517 10.3022ZM10.0517 10.3022L10.2344 10.1315C10.1016 9.98937 10.0315 9.91431 9.97817 9.81536C9.92702 9.72053 9.88405 9.58812 9.85179 9.33308C9.78649 8.81692 9.77473 7.89769 9.75047 6.00175L9.74962 5.93475C9.73704 4.9522 9.73383 3.99332 9.7388 3.24026C9.74383 2.47735 9.75732 1.94692 9.77517 1.8039C9.83813 1.2994 10.0362 0.913659 10.3237 0.654898M10.0517 10.3022L10.3237 0.654898M2.20119 4.66913L2.40037 4.82022C1.69544 5.74953 0.858542 7.50144 0.53258 8.73618C0.400297 9.23727 0.334254 9.51285 0.298002 9.85185C0.261162 10.1963 0.254638 10.6102 0.25073 11.3869C0.244326 12.6639 0.279203 13.1753 0.399787 13.735C1.56803 19.1569 6.41954 22.9662 11.853 22.7405C12.4171 22.717 13.184 22.639 13.55 22.5694C14.5392 22.3813 15.1097 22.2046 16.0528 21.7938C18.502 20.727 20.4519 18.8642 21.6159 16.4802C22.0664 15.5575 22.3475 14.838 22.5178 14.0935C22.6881 13.3488 22.75 12.5677 22.75 11.5191C22.75 9.45949 22.4585 8.17805 21.6107 6.48618C20.8766 5.02143 19.462 3.34822 18.3044 2.56304C18.0478 2.38899 17.941 2.32453 17.8263 2.29092C17.7086 2.25641 17.5686 2.25028 17.2306 2.25028C16.9265 2.25028 16.7697 2.25888 16.6519 2.2861C16.5453 2.31071 16.4596 2.35311 16.3054 2.45452L16.168 2.24565L16.3054 2.45453C15.8174 2.77541 15.5627 3.20573 15.522 3.76425C15.4937 4.15396 15.5259 4.39867 15.6475 4.63624C15.7758 4.88676 16.0153 5.15334 16.4622 5.55656C18.248 7.16766 19.1245 8.88075 19.2407 11.0333C19.4166 14.2906 17.7249 17.1282 14.7806 18.5118C13.6268 19.054 12.7237 19.2416 11.3593 19.2271C10.1008 19.2137 9.10306 18.9756 8.00134 18.4242C4.91591 16.8802 3.2002 13.4279 3.8594 10.0776C4.2182 8.25391 4.9949 6.93888 6.49401 5.59594C6.9272 5.20787 7.16994 4.94669 7.30856 4.70862C7.43959 4.48361 7.48553 4.26514 7.48428 3.93965M2.20119 4.66913L5.73748 2.21805C5.73802 2.21804 5.73856 2.21803 5.73909 2.21802C6.26437 2.20862 6.69589 2.38332 6.99605 2.67791C7.29652 2.97282 7.48221 3.40445 7.48428 3.93965M2.20119 4.66913L2.40037 4.82021C2.98188 4.0536 4.05572 2.99896 4.69325 2.56264C4.90511 2.41765 5.03213 2.34467 5.1545 2.30065C5.27479 2.25739 5.40567 2.23672 5.63429 2.22225L2.20119 4.66913ZM7.48428 3.93965L7.73428 3.9387L7.48428 3.93965ZM10.3237 0.654898C10.6105 0.396644 11.0054 0.247539 11.4949 0.250031L10.3237 0.654898Z" fill="#FC4C00" stroke="#25282B" stroke-width="0.5"/>
</svg>
