<svg width="21" height="16" viewBox="0 0 21 16" fill="none" xmlns="http://www.w3.org/2000/svg">
<path d="M18.1149 4.18164V2.25L10.4332 7.05664L2.75159 2.25V4.18164L10.4332 8.94336L18.1149 4.18164ZM18.1149 0.318359C18.624 0.318359 19.0582 0.513021 19.4176 0.902344C19.8069 1.29167 20.0016 1.74089 20.0016 2.25V13.75C20.0016 14.2591 19.8069 14.7083 19.4176 15.0977C19.0582 15.487 18.624 15.6816 18.1149 15.6816H2.75159C2.24247 15.6816 1.79325 15.487 1.40393 15.0977C1.04456 14.7083 0.864868 14.2591 0.864868 13.75V2.25C0.864868 1.74089 1.04456 1.29167 1.40393 0.902344C1.79325 0.513021 2.24247 0.318359 2.75159 0.318359H18.1149Z" fill="#7B7B7B"/>
</svg>
