<svg width="18" height="19" viewBox="0 0 18 19" fill="none" xmlns="http://www.w3.org/2000/svg">
<path d="M15.6797 5C16.1224 5 16.5 5.16927 16.8125 5.50781C17.151 5.84635 17.3203 6.23698 17.3203 6.67969V16.6797C17.3203 17.1224 17.151 17.513 16.8125 17.8516C16.5 18.1641 16.1224 18.3203 15.6797 18.3203H2.32031C1.8776 18.3203 1.48698 18.1641 1.14844 17.8516C0.835938 17.513 0.679688 17.1224 0.679688 16.6797V6.67969C0.679688 6.23698 0.835938 5.84635 1.14844 5.50781C1.48698 5.16927 1.8776 5 2.32031 5H4V0H10.6797V3.32031H5.67969V10H7.32031V5H15.6797Z" fill="#989898"/>
</svg>
