<svg width="42" height="55" viewBox="0 0 42 55" fill="none" xmlns="http://www.w3.org/2000/svg">
<path d="M18.8418 53.8903C2.94984 31.2631 0 28.9408 0 20.625C0 9.23409 9.40198 0 21 0C32.598 0 42 9.23409 42 20.625C42 28.9408 39.0502 31.2631 23.1582 53.8903C22.1153 55.3699 19.8846 55.3698 18.8418 53.8903ZM21 29.2187C25.8325 29.2187 29.75 25.3712 29.75 20.625C29.75 15.8788 25.8325 12.0312 21 12.0312C16.1675 12.0312 12.25 15.8788 12.25 20.625C12.25 25.3712 16.1675 29.2187 21 29.2187Z" fill="#FC4C00"/>
</svg>
