<svg width="21" height="21" viewBox="0 0 21 21" fill="none" xmlns="http://www.w3.org/2000/svg">
<path d="M8.75 5.25V0H12.25V5.25C12.25 5.71413 12.0656 6.15925 11.7374 6.48744C11.4092 6.81563 10.9641 7 10.5 7C10.0359 7 9.59075 6.81563 9.26256 6.48744C8.93437 6.15925 8.75 5.71413 8.75 5.25ZM14 4.375H21C20.9986 3.2151 20.5372 2.10311 19.7171 1.28294C18.8969 0.462772 17.7849 0.00138938 16.625 0L14 0V4.375ZM7 0H4.375C3.2151 0.00138938 2.10311 0.462772 1.28294 1.28294C0.462772 2.10311 0.00138938 3.2151 0 4.375H7V0ZM21 6.125V16.625C20.9986 17.7849 20.5372 18.8969 19.7171 19.7171C18.8969 20.5372 17.7849 20.9986 16.625 21H4.375C3.2151 20.9986 2.10311 20.5372 1.28294 19.7171C0.462772 18.8969 0.00138938 17.7849 0 16.625L0 6.125H7.12425C7.31524 6.87539 7.7508 7.54075 8.36213 8.01597C8.97345 8.49119 9.72569 8.74918 10.5 8.74918C11.2743 8.74918 12.0265 8.49119 12.6379 8.01597C13.2492 7.54075 13.6848 6.87539 13.8757 6.125H21ZM17.5 16.625C17.5 16.3929 17.4078 16.1704 17.2437 16.0063C17.0796 15.8422 16.8571 15.75 16.625 15.75H14C13.7679 15.75 13.5454 15.8422 13.3813 16.0063C13.2172 16.1704 13.125 16.3929 13.125 16.625C13.125 16.8571 13.2172 17.0796 13.3813 17.2437C13.5454 17.4078 13.7679 17.5 14 17.5H16.625C16.8571 17.5 17.0796 17.4078 17.2437 17.2437C17.4078 17.0796 17.5 16.8571 17.5 16.625Z" fill="#B8B8B8"/>
</svg>
