<svg width="18" height="18" viewBox="0 0 18 18" fill="none" xmlns="http://www.w3.org/2000/svg">
<path d="M0.5625 15.1875V5.0625" stroke="#25A268" stroke-linecap="round" stroke-linejoin="round"/>
<path d="M17.4375 5.0625H10.6875V8.4375H17.4375V5.0625Z" stroke="#25A268" stroke-linecap="round" stroke-linejoin="round"/>
<path d="M17.4375 8.4375H10.6875V11.8125H17.4375V8.4375Z" stroke="#25A268" stroke-linecap="round" stroke-linejoin="round"/>
<path d="M10.6875 11.8125H17.4375V14.8125C17.4375 14.912 17.398 15.0073 17.3277 15.0777C17.2573 15.148 17.162 15.1875 17.0625 15.1875H11.0625C10.963 15.1875 10.8677 15.148 10.7973 15.0777C10.727 15.0073 10.6875 14.912 10.6875 14.8125V11.8125Z" stroke="#25A268" stroke-linecap="round" stroke-linejoin="round"/>
<path d="M0.9375 2.8125H17.0625C17.162 2.8125 17.2573 2.85201 17.3277 2.92234C17.398 2.99266 17.4375 3.08804 17.4375 3.1875V5.0625H0.5625V3.1875C0.5625 3.08804 0.602009 2.99266 0.672335 2.92234C0.742661 2.85201 0.838044 2.8125 0.9375 2.8125V2.8125Z" stroke="#25A268" stroke-linecap="round" stroke-linejoin="round"/>
</svg>
