<svg width="35" height="27" viewBox="0 0 35 27" fill="none" xmlns="http://www.w3.org/2000/svg">
<path d="M22.4864 26.8097C20.9586 26.347 19.537 24.9737 19.1677 23.6039L18.9526 22.8059L16.9706 22.7416C15.0247 22.6784 14.9773 22.6659 14.36 22.0509L13.7313 21.4246L13.6781 11.6615C13.6195 0.910602 13.6246 0.857597 14.7684 0.268613C15.2835 0.00342638 16.5437 -0.0272574 25.1276 0.0163633L34.9004 0.0660485L34.9633 0.507744C35.108 1.52417 35.3157 1.5032 25.1005 1.5032C17.9962 1.5032 15.5789 1.56057 15.4055 1.73315C15.0728 2.06449 15.0728 20.6789 15.4055 21.0102C15.5482 21.1522 16.2494 21.2401 17.2398 21.2401C18.5979 21.2401 18.8594 21.1889 18.9497 20.9048C19.5031 19.1622 20.852 17.6693 22.2497 17.2523C24.966 16.442 27.9286 17.8891 28.6697 20.3881L28.9196 21.2308L31.91 21.2834L34.9004 21.336L34.9639 21.89C35 22.2048 34.9168 22.5139 34.7714 22.6057C34.6306 22.6946 33.2584 22.7686 31.722 22.7702L28.9286 22.7731L28.5797 23.7512C27.7397 26.1061 24.8884 27.5373 22.4863 26.8097L22.4864 26.8097ZM25.6774 24.9784C26.8296 24.3061 27.3903 23.3288 27.3819 22.0074C27.3739 20.7409 26.9773 19.9209 26.0212 19.1948C25.0794 18.4796 23.0991 18.3352 22.1731 18.9141C19.7145 20.4514 19.8327 23.8294 22.3914 25.1544C23.2845 25.6169 24.7144 25.5403 25.6774 24.9784ZM0.1504 25.9187C-0.033065 25.6986 -0.0470464 25.5275 0.0995074 25.296C0.277538 25.0147 0.928708 24.9653 5.57308 24.8809L10.8446 24.7851L10.8955 18.9915L10.9464 13.1979L11.4547 13.0709C12.4395 12.8248 12.4804 13.0836 12.4804 19.5647C12.4804 23.2765 12.4061 25.6191 12.2812 25.8516C12.0909 26.2055 11.8188 26.2222 6.24265 26.2222C1.1496 26.2222 0.371035 26.1834 0.1504 25.9187ZM3.77217 20.9472C3.05771 19.9446 2.47315 19.0399 2.47315 18.9367C2.47315 18.8226 3.60414 18.749 5.35985 18.749C6.94753 18.749 8.24655 18.8164 8.24655 18.8988C8.24655 19.205 5.61384 22.6784 5.34772 22.7233C5.18916 22.75 4.51699 21.9923 3.77217 20.9472ZM4.85564 17.7043C4.70879 17.3232 4.92634 17.0244 5.35062 17.0244C5.71995 17.0244 6.01621 17.5086 5.83023 17.8082C5.65904 18.084 4.97382 18.011 4.85564 17.7043ZM5.01344 16.2196C4.88643 16.0932 4.78251 15.8868 4.78251 15.7611C4.78251 15.3885 5.40378 15.2615 5.71426 15.5706C5.94932 15.8047 5.95619 15.9085 5.75276 16.1525C5.45498 16.5098 5.3174 16.5223 5.01344 16.2196V16.2196ZM4.85564 14.4467C4.70879 14.0657 4.92634 13.7669 5.35062 13.7669C5.72893 13.7669 5.93307 14.0958 5.79658 14.4855C5.68082 14.8159 4.9869 14.7874 4.85564 14.4467V14.4467ZM2.47315 12.7891C2.47315 12.4863 5.21037 8.7665 5.38743 8.82869C5.58148 8.89684 8.24655 12.6385 8.24655 12.8428C8.24655 12.9295 6.94753 13.0004 5.35985 13.0004C3.38439 13.0004 2.47315 12.9337 2.47315 12.7891Z" fill="#01B537"/>
</svg>
