<svg width="15" height="17" viewBox="0 0 15 17" fill="none" xmlns="http://www.w3.org/2000/svg">
<path d="M12.7417 14.6732V6.15576H1.89471V14.6732H12.7417ZM10.4121 0.695889H11.9773V2.26105H12.7417C13.1542 2.26105 13.5182 2.41878 13.8336 2.73424C14.1491 3.0497 14.3068 3.41369 14.3068 3.82622V14.6732C14.3068 15.0857 14.1491 15.4497 13.8336 15.7651C13.5182 16.0806 13.1542 16.2383 12.7417 16.2383H1.89471C1.45792 16.2383 1.08179 16.0927 0.766335 15.8015C0.475142 15.4861 0.329545 15.11 0.329545 14.6732V3.82622C0.329545 3.41369 0.475142 3.0497 0.766335 2.73424C1.08179 2.41878 1.45792 2.26105 1.89471 2.26105H2.65909V0.695889H4.22425V2.26105H10.4121V0.695889ZM11.2129 9.24969V13.1444H7.31818V9.24969H11.2129Z" fill="black"/>
</svg>
