<svg width="19" height="24" viewBox="0 0 19 24" fill="none" xmlns="http://www.w3.org/2000/svg">
<path d="M15.0222 7.50834H13.8993V5.38603C13.8993 4.19477 13.4261 3.0523 12.5837 2.20995C11.7414 1.36761 10.5989 0.894379 9.40762 0.894379C8.21636 0.894379 7.07389 1.36761 6.23154 2.20995C5.3892 3.0523 4.91597 4.19477 4.91597 5.38603V7.50834H3.79306C2.89961 7.50834 2.04276 7.86326 1.411 8.49502C0.779236 9.12678 0.424316 9.98363 0.424316 10.8771V19.8604C0.424316 20.7538 0.779236 21.6107 1.411 22.2424C2.04276 22.8742 2.89961 23.2291 3.79306 23.2291H15.0222C15.9156 23.2291 16.7725 22.8742 17.4043 22.2424C18.036 21.6107 18.3909 20.7538 18.3909 19.8604V10.8771C18.3909 9.98363 18.036 9.12678 17.4043 8.49502C16.7725 7.86326 15.9156 7.50834 15.0222 7.50834ZM7.1618 5.38603C7.14669 4.77438 7.37453 4.18165 7.79544 3.73759C8.21635 3.29353 8.79604 3.03432 9.40762 3.01669C10.0192 3.03432 10.5989 3.29353 11.0198 3.73759C11.4407 4.18165 11.6686 4.77438 11.6535 5.38603V7.50834H7.1618V5.38603ZM9.40762 18.7375C8.74135 18.7375 8.09004 18.5399 7.53605 18.1697C6.98207 17.7996 6.55029 17.2735 6.29531 16.6579C6.04034 16.0423 5.97363 15.365 6.10361 14.7115C6.2336 14.0581 6.55444 13.4578 7.02556 12.9867C7.49669 12.5155 8.09694 12.1947 8.75042 12.0647C9.40389 11.9347 10.0812 12.0015 10.6968 12.2564C11.3123 12.5114 11.8385 12.9432 12.2086 13.4972C12.5788 14.0511 12.7764 14.7025 12.7764 15.3687C12.7764 16.2622 12.4214 17.119 11.7897 17.7508C11.1579 18.3826 10.3011 18.7375 9.40762 18.7375Z" fill="#7B7B7B"/>
</svg>
