<svg width="18" height="30" viewBox="0 0 18 30" fill="none" xmlns="http://www.w3.org/2000/svg">
<path d="M8.96405 28.8937L8.38917 28.3188L8.49943 25.7695C8.56009 24.3673 8.64802 22.7819 8.69489 22.2463L8.78009 21.2726L8.12081 20.8157L7.46152 20.3589V20.9515C7.46152 21.3949 6.98745 22.4404 5.57941 25.1024C4.54425 27.0595 3.54204 28.7694 3.35228 28.9023C2.51984 29.4854 1.23251 28.9412 1.03786 27.924C0.962464 27.53 1.15376 27.0384 2.01679 25.4084C2.60675 24.2941 3.3533 22.8641 3.6758 22.2306L4.26216 21.0788L2.98105 19.0233C2.27644 17.8927 1.5628 16.745 1.39517 16.4728C1.16636 16.1013 1.01608 15.2422 0.792227 13.026C0.395099 9.09429 0.397613 8.10571 0.80646 7.43519C1.89046 5.65728 4.59377 5.96247 5.34602 7.94767C5.5175 8.40024 5.49171 8.39039 4.66706 7.68882C4.1956 7.2877 3.65033 6.87516 3.45535 6.77207C2.28283 6.15205 0.955342 7.3222 1.45708 8.53351C1.55693 8.77458 2.58553 9.76248 3.74285 10.7288C4.90097 11.6958 5.87716 12.6368 5.914 12.8217C5.95081 13.0065 6.0402 13.7741 6.11263 14.5275L6.24431 15.8974L7.04057 16.4679L7.83683 17.0384L7.72676 16.153C7.66621 15.666 7.57281 14.9389 7.51916 14.5372L7.42163 13.8069L7.88791 14.2284C8.14436 14.4602 8.95891 15.1358 9.69801 15.7297C10.8543 16.6587 11.1328 16.8094 11.6935 16.8094C12.7995 16.8094 13.5629 15.7156 13.151 14.7212C13.0339 14.4386 11.7797 13.3049 9.88662 11.7705C8.19577 10.4001 6.81236 9.22678 6.81236 9.16326C6.81236 9.09971 6.69535 8.19668 6.55234 7.15649C6.40934 6.11631 6.31805 5.24301 6.34948 5.21583C6.39383 5.17745 15.699 4.03612 15.7513 4.06264C15.7715 4.0728 17.4719 16.888 17.4567 16.9156C17.4492 16.9294 15.7996 17.1317 13.7912 17.3651C11.7827 17.5985 9.90062 17.8281 9.60869 17.8754L9.07793 17.9614L10.3756 18.9236C11.184 19.523 11.7109 20.0357 11.7731 20.2834C11.828 20.5021 11.7682 22.488 11.6397 24.6966L11.4066 28.7121L10.9668 29.0904C10.3147 29.6513 9.65707 29.5867 8.96408 28.8938L8.96405 28.8937ZM6.24428 12.3707C3.92343 10.4733 1.93249 8.73065 1.81999 8.49808C1.41778 7.66665 2.20851 6.72802 3.10808 6.96907C3.44298 7.05881 8.76502 11.2877 11.2349 13.4267C12.2725 14.3252 12.4435 14.911 11.8436 15.511C11.0977 16.2569 10.7793 16.0783 6.24428 12.3707ZM2.30412 5.66584C0.268715 4.66261 0.150639 1.75536 2.10316 0.717803C2.78542 0.355236 4.05217 0.32446 4.69118 0.654935C5.81516 1.23617 6.47758 2.65781 6.16512 3.81819C5.70417 5.53004 3.83921 6.42252 2.30412 5.66588V5.66584Z" fill="#01B537"/>
</svg>
