<svg width="14" height="22" viewBox="0 0 14 22" fill="none" xmlns="http://www.w3.org/2000/svg">
<path d="M12.2732 16.75V3.31836H2.21069V16.75H12.2732ZM9.17358 19.625V18.6816H5.3103V19.625H9.17358ZM11.0603 0.443359C11.8389 0.443359 12.5128 0.727865 13.0818 1.29688C13.6508 1.86589 13.9353 2.53971 13.9353 3.31836V18.6816C13.9353 19.4603 13.6508 20.1341 13.0818 20.7031C12.5128 21.2721 11.8389 21.5566 11.0603 21.5566H3.42358C2.64494 21.5566 1.97111 21.2721 1.4021 20.7031C0.833089 20.1341 0.548584 19.4603 0.548584 18.6816V3.31836C0.548584 2.53971 0.833089 1.86589 1.4021 1.29688C1.97111 0.727865 2.64494 0.443359 3.42358 0.443359H11.0603Z" fill="#7B7B7B"/>
</svg>
