<svg width="75" height="85" viewBox="0 0 98 99" fill="none" xmlns="http://www.w3.org/2000/svg">
<path d="M18.1719 97.5549C17.972 96.7601 16.9687 95.3069 15.9423 94.3256C14.5032 92.9497 13.5555 92.5763 11.801 92.6942C9.91322 92.821 9.16044 92.4605 7.37954 90.576C3.45128 86.4193 1.3376 75.6168 3.59873 71.2532C4.56645 69.3856 5.82555 68.8127 12.0318 67.416L15.3689 66.665V61.7789V56.8928L12.1391 55.7338C10.3628 55.0964 8.78129 54.2414 8.6246 53.8339C8.3995 53.2484 12.0312 42.2023 14.4272 36.185C14.8329 35.1662 14.2626 35.0749 7.49153 35.0749C-3.4943 35.0749 -3.11442 34.4461 13.4294 25.2459L26.7448 17.841L26.9363 14.9739L27.1278 12.1067L37.5174 6.05334L47.907 0L60.3999 3.99034C67.2709 6.18503 73.3836 8.23008 73.9837 8.53487C74.893 8.99678 75.1047 10.2156 75.2549 15.8559L75.4353 22.6229L82.1722 24.8312L88.9091 27.0395L93.4546 36.1375C95.9546 41.1413 98 45.6341 98 46.1213C98 46.6085 95.9978 48.4884 93.5506 50.2989L89.1013 53.5906V64.9605V76.3303L74.157 87.4192C65.9377 93.5182 58.8757 98.5082 58.4636 98.5082C58.0515 98.5082 50.4589 95.6537 41.5911 92.1648C32.7234 88.676 25.1978 85.8215 24.8677 85.8215C23.8943 85.8215 24.182 88.1327 25.2674 89.0317C26.4616 90.0207 28.7169 94.2825 28.7169 95.5499C28.7169 96.1438 26.9917 96.8806 23.6261 97.7241L18.5353 99L18.1719 97.5549ZM24.1087 94.7108C25.3325 94.6965 25.0509 92.9465 23.5906 91.4892C22.5673 90.4679 21.8316 90.2745 20.2535 90.6118C19.1401 90.8496 18.1325 91.1313 18.0143 91.2376C17.8961 91.3438 18.4624 92.3257 19.2727 93.4195C20.3405 94.8608 21.0995 95.3134 22.0301 95.0639C22.7363 94.8745 23.6717 94.7156 24.1087 94.7108ZM56.6285 76.7823L56.5725 58.8624L54.5939 64.711C53.5057 67.9277 52.3153 70.6736 51.9485 70.813C51.5817 70.9523 48.1352 69.8279 44.2897 68.3141C40.4442 66.8004 37.0833 65.5531 36.8211 65.5424C36.559 65.5316 36.3444 70.3395 36.3444 76.2266V86.9302L46.0377 90.7774C51.369 92.8932 55.9455 94.6419 56.2077 94.6633C56.4699 94.6849 56.6592 86.6382 56.6285 76.7823H56.6285ZM68.9202 87.5711L73.8463 83.8615V74.6922C73.8463 69.6491 73.6318 65.5308 73.3696 65.5405C73.1074 65.5501 71.7693 66.4066 70.3961 67.4435C69.0228 68.4805 67.5738 69.3288 67.1761 69.3288C66.7784 69.3288 64.9963 66.2603 63.216 62.5098L59.9791 55.6907L59.9207 74.9225L59.8623 94.1542L61.9281 92.7175C63.0643 91.9272 66.2106 89.6114 68.92 87.5711H68.9202ZM12.5795 87.9853C13.2636 85.2649 12.3811 79.6901 10.679 75.9797C7.91523 69.9551 5.45324 70.5805 5.63921 77.2598C5.85278 84.9326 11.2497 93.2729 12.5795 87.9853ZM20.8284 87.0432C23.1412 85.1276 20.9908 73.7826 17.7365 70.7316C16.4591 69.5339 16.0125 69.4617 13.6237 70.0668L10.944 70.7456L12.1638 72.2933C14.0764 74.7198 15.6053 80.0539 15.6478 84.4479L15.6867 88.4661L17.8092 88.126C18.9766 87.939 20.3352 87.4517 20.8285 87.0432H20.8284ZM33.1623 74.8793L33.1575 63.937L26.3153 61.2411C22.5521 59.7584 19.2645 58.5452 19.0096 58.5452C18.7547 58.5452 18.5462 60.4174 18.5462 62.7056C18.5462 66.3656 18.7725 67.1475 20.4279 69.2075C22.5255 71.8178 23.9595 75.4138 24.5985 79.6662C25.0415 82.6147 25.2478 82.7642 33.0067 85.7602C33.0941 85.794 33.1638 80.8975 33.1616 74.8793H33.1623ZM81.7916 78.0491L86.241 74.7174L86.4168 65.3626C86.5136 60.2175 86.4385 56.0079 86.2518 56.0079C86.0642 56.0079 83.7684 57.5891 81.1498 59.5217L76.3888 63.0355V72.2083C76.3888 77.2534 76.6033 81.3811 76.8655 81.3811C77.1277 81.381 79.3444 79.8816 81.7916 78.0491H81.7916ZM53.5748 58.0308C55.2328 53.0805 56.5287 49.0302 56.4545 49.0302C56.3803 49.0302 47.7714 46.0252 37.3236 42.3523C26.8758 38.6794 18.1107 35.8963 17.8456 36.1675C17.5805 36.4388 16.0867 40.178 14.5261 44.4768C12.6265 49.7097 11.9292 52.3898 12.4165 52.5863C30.5988 59.9173 49.518 67.2609 49.9676 67.162C50.2936 67.0902 51.9169 62.9812 53.5748 58.0308ZM80.6633 56.2328C87.5766 51.1233 93.6097 46.598 94.0703 46.1766C94.7539 45.5512 94.2296 44.0507 91.2178 38.0125C88.9817 33.5292 87.2269 30.7298 86.7641 30.907C86.0056 31.1975 61.923 47.4978 60.9358 48.3889C60.5316 48.7538 67.3791 65.4681 67.9508 65.5119C68.0294 65.5181 73.75 61.3423 80.6633 56.2328ZM65.0896 41.8986L71.9057 37.2951L71.9225 25.0582L71.9393 12.8214L64.1529 18.0806L56.3665 23.3397L56.1921 34.3936C56.0234 45.0826 56.2171 46.4094 57.9555 46.4878C58.1304 46.4957 61.3406 44.4305 65.0894 41.8986H65.0896ZM53.5063 34.183V23.7762L50.5328 22.765C48.8973 22.2089 47.3242 21.7539 47.0369 21.7539C46.7495 21.7539 46.5145 23.7826 46.5145 26.2621C46.5145 29.6016 46.3086 30.6946 45.7199 30.4781C45.2829 30.3174 42.9947 29.5499 40.6349 28.7727L36.3445 27.3595V22.6622V17.9649L34.2233 17.0805C33.0567 16.594 31.4765 15.9978 30.7118 15.7556L29.3214 15.3152L29.4958 25.9207L29.6702 36.5261L40.7937 40.4985C46.9116 42.6833 52.2746 44.4977 52.7116 44.5304C53.3174 44.5758 53.5061 42.1174 53.5061 34.183H53.5063ZM26.8101 32.5376C26.8101 31.142 26.6522 30.0002 26.4593 30.0002C25.8475 30.0002 21.0995 32.8392 21.0944 33.208C21.0872 33.6732 24.2814 34.9215 25.6977 35.0074C26.583 35.0611 26.8101 34.5569 26.8101 32.5376ZM84.0067 28.7316C84.0047 28.5571 82.0041 27.8077 79.5605 27.0661L75.1176 25.7177V30.4301V35.1424L79.5637 32.0956C82.0091 30.4198 84.0084 28.906 84.0067 28.7316ZM21.884 29.0157C26.5287 26.3147 26.8101 26.0255 26.8101 23.9525C26.8101 22.7433 26.5869 21.7539 26.3141 21.7539C26.0413 21.7539 21.6879 24.0375 16.6401 26.8286L7.46213 31.9032L12.21 31.8917C16.6793 31.8809 17.247 31.7122 21.884 29.0156V29.0157ZM42.8981 20.4416C42.6147 20.1661 41.5963 19.7468 40.6349 19.5099C38.9186 19.0868 38.887 19.1319 38.887 22.0005C38.887 24.7002 39.0436 24.9861 40.9527 25.767L43.0185 26.6121L43.216 23.7773C43.3246 22.2182 43.1814 20.7172 42.8982 20.4416H42.8981ZM62.6605 15.4858C69.6636 10.7573 70.1122 10.3348 68.6989 9.79907C66.4222 8.93609 50.5686 3.99259 50.0778 3.99259C49.8445 3.99259 49.7337 7.46435 49.8319 11.7076L50.0104 19.4226L52.2351 20.1876C53.4587 20.6083 54.6028 20.8719 54.7776 20.7732C54.9525 20.6746 58.4997 18.2953 62.6605 15.4858H62.6605ZM46.5145 11.2346C46.5145 7.2913 46.2665 4.60844 45.9135 4.73264C44.6276 5.18514 31.9273 12.5744 31.9117 12.8791C31.8948 13.217 44.3377 17.7048 45.7199 17.8592C46.3111 17.9252 46.5145 16.2297 46.5145 11.2346Z" fill="#01B537"/>
</svg>
