<svg width="75" height="85" viewBox="0 0 75 85" fill="none" xmlns="http://www.w3.org/2000/svg">
<mask id="path-1-outside-1_41_996" maskUnits="userSpaceOnUse" x="0" y="0" width="75" height="85" fill="black">
<rect fill="white" width="75" height="85"/>
<path d="M19.3463 74.5346L1.3466 64.856L1.17319 44.8309L1 24.8058L5.68981 12.9029C8.26923 6.35632 10.6338 1 10.9445 1C11.2551 1 15.6312 3.05304 20.6691 5.56226L29.8289 10.1245L33.7449 8.15911L37.6608 6.19371L55.8304 14.9921L74 23.7903V44.3242V64.858L56.3275 74.32C46.6077 79.5241 38.3605 83.879 38.0005 83.9976C37.6405 84.1161 29.2461 79.8579 19.3463 74.5346ZM36.3523 62.3352L36.34 43.6255L20.4026 35.3282C11.637 30.7647 4.2743 27.0308 4.04092 27.0308C3.80764 27.0308 3.6948 35.2607 3.79039 45.3193L3.96429 63.6078L20.0004 72.257C28.8203 77.014 36.1102 80.9373 36.2002 80.9755C36.2902 81.0136 36.3585 72.6255 36.3518 62.3352H36.3523ZM22.9324 65.9503C22.335 64.4027 22.868 57.6206 23.6008 57.4469C24.4805 57.2383 24.8353 65.4354 23.9833 66.2825C23.5305 66.7327 23.1931 66.626 22.9324 65.9503ZM15.4191 58.2679C15.4191 54.6525 15.6217 53.7125 16.4009 53.7125C17.1801 53.7125 17.3827 54.6525 17.3827 58.2679C17.3827 61.8833 17.1801 62.8233 16.4009 62.8233C15.6217 62.8233 15.4191 61.8833 15.4191 58.2679ZM8.6692 59.1491C8.42172 58.9031 8.21921 56.8255 8.21921 54.5324C8.21921 50.912 8.3701 50.3921 9.36463 50.5825C10.3133 50.764 10.5101 51.5177 10.5101 54.9687C10.5101 58.8009 9.84289 60.3161 8.6692 59.1491ZM71.5557 45.3175C71.6514 35.2598 71.5705 27.0308 71.3758 27.0308C71.1811 27.0308 68.9787 28.0539 66.4813 29.3044L61.9405 31.578L61.7522 37.6017L61.5639 43.6255H58.7237C56.1396 43.6255 55.6316 43.913 53.0912 46.8133C51.4404 48.6979 49.9927 49.8128 49.5497 49.5406C49.089 49.2575 48.8005 47.0925 48.8005 43.9178V38.7554L43.8915 41.1705L38.9825 43.5855V62.2475V80.9094L55.1822 72.2568L71.382 63.6042L71.5557 45.3175ZM43.8387 71.7068C43.6524 71.2239 43.5879 68.845 43.6957 66.4204L43.8914 62.012L52.2973 57.2103C56.9205 54.5693 60.9704 52.5728 61.2971 52.7735C61.6238 52.9742 61.8911 55.295 61.8911 57.9308V62.7231L53.3416 67.654C48.6394 70.3659 44.6538 72.5848 44.4848 72.5848C44.3158 72.5848 44.0251 72.1897 43.8387 71.7068ZM53.0548 65.2003C58.8738 61.8249 58.9481 61.7498 59.147 59.0494C59.2575 57.5458 59.1568 56.3155 58.9223 56.3155C58.688 56.3155 55.7322 57.853 52.3536 59.7321L46.2107 63.1486L46.1959 65.9144C46.1885 67.4356 46.4024 68.666 46.6725 68.6488C46.9425 68.6315 49.8143 67.0796 53.0542 65.2003H53.0548ZM57.5416 41.0569L59.273 41.4889V37.1628V32.8368L55.3535 34.9773L51.4341 37.1178L51.4266 40.9874L51.4192 44.857L53.6151 42.7409C55.3819 41.0383 56.1492 40.7093 57.5423 41.0569H57.5416ZM41.193 30.4011C43.2171 24.9172 44.8732 20.2859 44.8732 20.1092C44.8732 19.7307 12.9289 4.25387 12.1475 4.25387C11.4496 4.25387 4.07204 22.7955 4.39114 23.7474C4.72892 24.7548 36.592 41.391 37.1021 40.8262C37.328 40.5762 39.1688 35.8849 41.193 30.4011ZM23.5743 28.7104C22.6098 28.0026 22.4772 27.582 23.0396 27.0144C23.9533 26.0922 26.7689 27.3426 26.3814 28.4985C25.9948 29.6517 24.9633 29.7295 23.5743 28.7105V28.7104ZM15.5586 24.3267C12.4699 22.5537 11.0336 20.5231 12.8681 20.5231C14.1679 20.5231 19.9995 24.0835 20.0002 24.8774C20.0015 26.3933 18.9265 26.26 15.5586 24.3267ZM47.9822 36.3938C50.9522 34.7859 53.3821 33.3435 53.3821 33.1885C53.3821 32.9728 47.9349 29.9807 44.805 28.4772C44.43 28.2971 40.2914 38.5513 40.2914 39.6606C40.2914 40.3883 41.7412 39.7725 47.9822 36.3938ZM63.212 28.3265C68.871 25.503 71.1376 23.777 69.1865 23.777C68.8791 23.777 61.6688 20.3993 53.1636 16.2709L37.6996 8.76476L35.2537 10.0124L32.8078 11.26L40.1495 14.9209C44.1875 16.9343 47.4913 18.8353 47.4913 19.1452C47.4913 19.4552 47.0495 20.9538 46.5095 22.4755C45.9695 23.9972 45.5277 25.4946 45.5277 25.8032C45.5277 26.3274 55.0732 31.4824 56.1758 31.5537C56.4523 31.5709 59.6186 30.1194 63.212 28.3265Z"/>
</mask>
<path d="M19.3463 74.5346L1.3466 64.856L1.17319 44.8309L1 24.8058L5.68981 12.9029C8.26923 6.35632 10.6338 1 10.9445 1C11.2551 1 15.6312 3.05304 20.6691 5.56226L29.8289 10.1245L33.7449 8.15911L37.6608 6.19371L55.8304 14.9921L74 23.7903V44.3242V64.858L56.3275 74.32C46.6077 79.5241 38.3605 83.879 38.0005 83.9976C37.6405 84.1161 29.2461 79.8579 19.3463 74.5346ZM36.3523 62.3352L36.34 43.6255L20.4026 35.3282C11.637 30.7647 4.2743 27.0308 4.04092 27.0308C3.80764 27.0308 3.6948 35.2607 3.79039 45.3193L3.96429 63.6078L20.0004 72.257C28.8203 77.014 36.1102 80.9373 36.2002 80.9755C36.2902 81.0136 36.3585 72.6255 36.3518 62.3352H36.3523ZM22.9324 65.9503C22.335 64.4027 22.868 57.6206 23.6008 57.4469C24.4805 57.2383 24.8353 65.4354 23.9833 66.2825C23.5305 66.7327 23.1931 66.626 22.9324 65.9503ZM15.4191 58.2679C15.4191 54.6525 15.6217 53.7125 16.4009 53.7125C17.1801 53.7125 17.3827 54.6525 17.3827 58.2679C17.3827 61.8833 17.1801 62.8233 16.4009 62.8233C15.6217 62.8233 15.4191 61.8833 15.4191 58.2679ZM8.6692 59.1491C8.42172 58.9031 8.21921 56.8255 8.21921 54.5324C8.21921 50.912 8.3701 50.3921 9.36463 50.5825C10.3133 50.764 10.5101 51.5177 10.5101 54.9687C10.5101 58.8009 9.84289 60.3161 8.6692 59.1491ZM71.5557 45.3175C71.6514 35.2598 71.5705 27.0308 71.3758 27.0308C71.1811 27.0308 68.9787 28.0539 66.4813 29.3044L61.9405 31.578L61.7522 37.6017L61.5639 43.6255H58.7237C56.1396 43.6255 55.6316 43.913 53.0912 46.8133C51.4404 48.6979 49.9927 49.8128 49.5497 49.5406C49.089 49.2575 48.8005 47.0925 48.8005 43.9178V38.7554L43.8915 41.1705L38.9825 43.5855V62.2475V80.9094L55.1822 72.2568L71.382 63.6042L71.5557 45.3175ZM43.8387 71.7068C43.6524 71.2239 43.5879 68.845 43.6957 66.4204L43.8914 62.012L52.2973 57.2103C56.9205 54.5693 60.9704 52.5728 61.2971 52.7735C61.6238 52.9742 61.8911 55.295 61.8911 57.9308V62.7231L53.3416 67.654C48.6394 70.3659 44.6538 72.5848 44.4848 72.5848C44.3158 72.5848 44.0251 72.1897 43.8387 71.7068ZM53.0548 65.2003C58.8738 61.8249 58.9481 61.7498 59.147 59.0494C59.2575 57.5458 59.1568 56.3155 58.9223 56.3155C58.688 56.3155 55.7322 57.853 52.3536 59.7321L46.2107 63.1486L46.1959 65.9144C46.1885 67.4356 46.4024 68.666 46.6725 68.6488C46.9425 68.6315 49.8143 67.0796 53.0542 65.2003H53.0548ZM57.5416 41.0569L59.273 41.4889V37.1628V32.8368L55.3535 34.9773L51.4341 37.1178L51.4266 40.9874L51.4192 44.857L53.6151 42.7409C55.3819 41.0383 56.1492 40.7093 57.5423 41.0569H57.5416ZM41.193 30.4011C43.2171 24.9172 44.8732 20.2859 44.8732 20.1092C44.8732 19.7307 12.9289 4.25387 12.1475 4.25387C11.4496 4.25387 4.07204 22.7955 4.39114 23.7474C4.72892 24.7548 36.592 41.391 37.1021 40.8262C37.328 40.5762 39.1688 35.8849 41.193 30.4011ZM23.5743 28.7104C22.6098 28.0026 22.4772 27.582 23.0396 27.0144C23.9533 26.0922 26.7689 27.3426 26.3814 28.4985C25.9948 29.6517 24.9633 29.7295 23.5743 28.7105V28.7104ZM15.5586 24.3267C12.4699 22.5537 11.0336 20.5231 12.8681 20.5231C14.1679 20.5231 19.9995 24.0835 20.0002 24.8774C20.0015 26.3933 18.9265 26.26 15.5586 24.3267ZM47.9822 36.3938C50.9522 34.7859 53.3821 33.3435 53.3821 33.1885C53.3821 32.9728 47.9349 29.9807 44.805 28.4772C44.43 28.2971 40.2914 38.5513 40.2914 39.6606C40.2914 40.3883 41.7412 39.7725 47.9822 36.3938ZM63.212 28.3265C68.871 25.503 71.1376 23.777 69.1865 23.777C68.8791 23.777 61.6688 20.3993 53.1636 16.2709L37.6996 8.76476L35.2537 10.0124L32.8078 11.26L40.1495 14.9209C44.1875 16.9343 47.4913 18.8353 47.4913 19.1452C47.4913 19.4552 47.0495 20.9538 46.5095 22.4755C45.9695 23.9972 45.5277 25.4946 45.5277 25.8032C45.5277 26.3274 55.0732 31.4824 56.1758 31.5537C56.4523 31.5709 59.6186 30.1194 63.212 28.3265Z" fill="#01B537"/>
<path d="M19.3463 74.5346L1.3466 64.856L1.17319 44.8309L1 24.8058L5.68981 12.9029C8.26923 6.35632 10.6338 1 10.9445 1C11.2551 1 15.6312 3.05304 20.6691 5.56226L29.8289 10.1245L33.7449 8.15911L37.6608 6.19371L55.8304 14.9921L74 23.7903V44.3242V64.858L56.3275 74.32C46.6077 79.5241 38.3605 83.879 38.0005 83.9976C37.6405 84.1161 29.2461 79.8579 19.3463 74.5346ZM36.3523 62.3352L36.34 43.6255L20.4026 35.3282C11.637 30.7647 4.2743 27.0308 4.04092 27.0308C3.80764 27.0308 3.6948 35.2607 3.79039 45.3193L3.96429 63.6078L20.0004 72.257C28.8203 77.014 36.1102 80.9373 36.2002 80.9755C36.2902 81.0136 36.3585 72.6255 36.3518 62.3352H36.3523ZM22.9324 65.9503C22.335 64.4027 22.868 57.6206 23.6008 57.4469C24.4805 57.2383 24.8353 65.4354 23.9833 66.2825C23.5305 66.7327 23.1931 66.626 22.9324 65.9503ZM15.4191 58.2679C15.4191 54.6525 15.6217 53.7125 16.4009 53.7125C17.1801 53.7125 17.3827 54.6525 17.3827 58.2679C17.3827 61.8833 17.1801 62.8233 16.4009 62.8233C15.6217 62.8233 15.4191 61.8833 15.4191 58.2679ZM8.6692 59.1491C8.42172 58.9031 8.21921 56.8255 8.21921 54.5324C8.21921 50.912 8.3701 50.3921 9.36463 50.5825C10.3133 50.764 10.5101 51.5177 10.5101 54.9687C10.5101 58.8009 9.84289 60.3161 8.6692 59.1491ZM71.5557 45.3175C71.6514 35.2598 71.5705 27.0308 71.3758 27.0308C71.1811 27.0308 68.9787 28.0539 66.4813 29.3044L61.9405 31.578L61.7522 37.6017L61.5639 43.6255H58.7237C56.1396 43.6255 55.6316 43.913 53.0912 46.8133C51.4404 48.6979 49.9927 49.8128 49.5497 49.5406C49.089 49.2575 48.8005 47.0925 48.8005 43.9178V38.7554L43.8915 41.1705L38.9825 43.5855V62.2475V80.9094L55.1822 72.2568L71.382 63.6042L71.5557 45.3175ZM43.8387 71.7068C43.6524 71.2239 43.5879 68.845 43.6957 66.4204L43.8914 62.012L52.2973 57.2103C56.9205 54.5693 60.9704 52.5728 61.2971 52.7735C61.6238 52.9742 61.8911 55.295 61.8911 57.9308V62.7231L53.3416 67.654C48.6394 70.3659 44.6538 72.5848 44.4848 72.5848C44.3158 72.5848 44.0251 72.1897 43.8387 71.7068ZM53.0548 65.2003C58.8738 61.8249 58.9481 61.7498 59.147 59.0494C59.2575 57.5458 59.1568 56.3155 58.9223 56.3155C58.688 56.3155 55.7322 57.853 52.3536 59.7321L46.2107 63.1486L46.1959 65.9144C46.1885 67.4356 46.4024 68.666 46.6725 68.6488C46.9425 68.6315 49.8143 67.0796 53.0542 65.2003H53.0548ZM57.5416 41.0569L59.273 41.4889V37.1628V32.8368L55.3535 34.9773L51.4341 37.1178L51.4266 40.9874L51.4192 44.857L53.6151 42.7409C55.3819 41.0383 56.1492 40.7093 57.5423 41.0569H57.5416ZM41.193 30.4011C43.2171 24.9172 44.8732 20.2859 44.8732 20.1092C44.8732 19.7307 12.9289 4.25387 12.1475 4.25387C11.4496 4.25387 4.07204 22.7955 4.39114 23.7474C4.72892 24.7548 36.592 41.391 37.1021 40.8262C37.328 40.5762 39.1688 35.8849 41.193 30.4011ZM23.5743 28.7104C22.6098 28.0026 22.4772 27.582 23.0396 27.0144C23.9533 26.0922 26.7689 27.3426 26.3814 28.4985C25.9948 29.6517 24.9633 29.7295 23.5743 28.7105V28.7104ZM15.5586 24.3267C12.4699 22.5537 11.0336 20.5231 12.8681 20.5231C14.1679 20.5231 19.9995 24.0835 20.0002 24.8774C20.0015 26.3933 18.9265 26.26 15.5586 24.3267ZM47.9822 36.3938C50.9522 34.7859 53.3821 33.3435 53.3821 33.1885C53.3821 32.9728 47.9349 29.9807 44.805 28.4772C44.43 28.2971 40.2914 38.5513 40.2914 39.6606C40.2914 40.3883 41.7412 39.7725 47.9822 36.3938ZM63.212 28.3265C68.871 25.503 71.1376 23.777 69.1865 23.777C68.8791 23.777 61.6688 20.3993 53.1636 16.2709L37.6996 8.76476L35.2537 10.0124L32.8078 11.26L40.1495 14.9209C44.1875 16.9343 47.4913 18.8353 47.4913 19.1452C47.4913 19.4552 47.0495 20.9538 46.5095 22.4755C45.9695 23.9972 45.5277 25.4946 45.5277 25.8032C45.5277 26.3274 55.0732 31.4824 56.1758 31.5537C56.4523 31.5709 59.6186 30.1194 63.212 28.3265Z" stroke="#01B537" stroke-width="0.4" mask="url(#path-1-outside-1_41_996)"/>
</svg>
