<svg width="20" height="24" viewBox="0 0 20 24" fill="none" xmlns="http://www.w3.org/2000/svg">
<path d="M17 8.424V6.99998C17 3.13402 13.866 0 10 0C6.13398 0 3 3.13402 3 6.99998V8.424C1.18003 9.2183 0.002625 11.0143 0 13V19C0.00328126 21.76 2.23993 23.9967 4.99998 24H15C17.76 23.9967 19.9967 21.76 20 19V13C19.9974 11.0143 18.82 9.2183 17 8.424ZM11 17C11 17.5523 10.5523 18 10 18C9.44772 18 9.00001 17.5523 9.00001 17V15C9.00001 14.4477 9.44772 14 10 14C10.5523 14 11 14.4477 11 15V17V17ZM15 8.00002H4.99998V7.00003C4.99998 4.23863 7.23854 2.00002 10 2.00002C12.7615 2.00002 15 4.23858 15 7.00003V8.00002V8.00002Z" fill="#B8B8B8"/>
</svg>
