<svg width="211" height="59" viewBox="0 0 211 59" fill="none" xmlns="http://www.w3.org/2000/svg">
<rect x="0.756836" width="58.9862" height="58.9862" rx="9.83104" fill="white"/>
<path d="M88.7309 38.5224L86.0923 35.6675C85.4434 35.8549 84.7297 35.9487 83.9511 35.9487C82.5524 35.9487 81.262 35.6242 80.0796 34.9754C78.9117 34.3121 77.9817 33.3965 77.2896 32.2286C76.6119 31.0462 76.273 29.7197 76.273 28.249C76.273 26.7783 76.6119 25.4589 77.2896 24.291C77.9817 23.1231 78.9117 22.2147 80.0796 21.5658C81.262 20.9026 82.5524 20.5709 83.9511 20.5709C85.3641 20.5709 86.6546 20.9026 87.8225 21.5658C89.0049 22.2147 89.9349 23.1231 90.6126 24.291C91.2903 25.4589 91.6291 26.7783 91.6291 28.249C91.6291 29.6332 91.3263 30.8876 90.7207 32.0123C90.1296 33.1226 89.3077 34.0165 88.2551 34.6942L91.867 38.5224H88.7309ZM78.8035 28.249C78.8035 29.3592 79.0198 30.3397 79.4524 31.1904C79.8994 32.0267 80.5122 32.6756 81.2908 33.137C82.0694 33.584 82.9562 33.8075 83.9511 33.8075C84.946 33.8075 85.8327 33.584 86.6113 33.137C87.39 32.6756 87.9956 32.0267 88.4281 31.1904C88.8751 30.3397 89.0986 29.3592 89.0986 28.249C89.0986 27.1387 88.8751 26.1655 88.4281 25.3292C87.9956 24.4929 87.39 23.8512 86.6113 23.4042C85.8327 22.9573 84.946 22.7338 83.9511 22.7338C82.9562 22.7338 82.0694 22.9573 81.2908 23.4042C80.5122 23.8512 79.8994 24.4929 79.4524 25.3292C79.0198 26.1655 78.8035 27.1387 78.8035 28.249ZM104.911 23.8801V35.7973H102.446V34.3914C102.056 34.8817 101.544 35.271 100.91 35.5593C100.29 35.8333 99.6267 35.9703 98.9202 35.9703C97.983 35.9703 97.1395 35.7756 96.3897 35.3863C95.6543 34.997 95.0704 34.4203 94.6378 33.6561C94.2197 32.8919 94.0106 31.969 94.0106 30.8876V23.8801H96.4546V30.52C96.4546 31.5869 96.7213 32.4088 97.2548 32.9856C97.7883 33.5479 98.5165 33.8291 99.4393 33.8291C100.362 33.8291 101.09 33.5479 101.624 32.9856C102.172 32.4088 102.446 31.5869 102.446 30.52V23.8801H104.911ZM109.419 22.3012C108.972 22.3012 108.597 22.1498 108.294 21.847C107.991 21.5442 107.84 21.1693 107.84 20.7223C107.84 20.2754 107.991 19.9005 108.294 19.5977C108.597 19.2949 108.972 19.1435 109.419 19.1435C109.851 19.1435 110.219 19.2949 110.522 19.5977C110.825 19.9005 110.976 20.2754 110.976 20.7223C110.976 21.1693 110.825 21.5442 110.522 21.847C110.219 22.1498 109.851 22.3012 109.419 22.3012ZM110.63 23.8801V35.7973H108.164V23.8801H110.63ZM113.045 29.8278C113.045 28.6022 113.29 27.528 113.781 26.6052C114.285 25.668 114.977 24.9471 115.857 24.4424C116.737 23.9377 117.746 23.6854 118.885 23.6854C120.327 23.6854 121.516 24.0315 122.454 24.7236C123.405 25.4013 124.047 26.3745 124.379 27.6434H121.718C121.502 27.0522 121.156 26.5908 120.68 26.2592C120.204 25.9275 119.606 25.7617 118.885 25.7617C117.876 25.7617 117.068 26.1222 116.463 26.8431C115.871 27.5497 115.576 28.5446 115.576 29.8278C115.576 31.1111 115.871 32.1132 116.463 32.8342C117.068 33.5551 117.876 33.9156 118.885 33.9156C120.312 33.9156 121.257 33.2884 121.718 32.0339H124.379C124.033 33.2451 123.384 34.2112 122.432 34.9321C121.48 35.6386 120.298 35.9919 118.885 35.9919C117.746 35.9919 116.737 35.7396 115.857 35.2349C114.977 34.7158 114.285 33.9949 113.781 33.0721C113.29 32.1349 113.045 31.0535 113.045 29.8278ZM131.551 29.8495L137.044 35.7973H133.714L129.301 30.6714V35.7973H126.836V19.7923H129.301V29.0925L133.627 23.8801H137.044L131.551 29.8495ZM156.044 35.7973L154.184 33.9372C153.463 34.6582 152.677 35.1989 151.827 35.5593C150.976 35.9054 150.024 36.0784 148.972 36.0784C147.905 36.0784 146.96 35.891 146.138 35.5161C145.317 35.1412 144.682 34.6077 144.235 33.9156C143.788 33.2091 143.565 32.3944 143.565 31.4716C143.565 30.4334 143.86 29.5106 144.451 28.7032C145.043 27.8813 145.922 27.2325 147.09 26.7566C146.672 26.252 146.376 25.7834 146.203 25.3508C146.03 24.9038 145.944 24.4136 145.944 23.8801C145.944 23.2168 146.11 22.6256 146.441 22.1065C146.787 21.5875 147.278 21.1765 147.912 20.8737C148.546 20.5709 149.282 20.4195 150.118 20.4195C150.969 20.4195 151.69 20.5854 152.281 20.917C152.887 21.2342 153.334 21.674 153.622 22.2363C153.925 22.7987 154.047 23.4259 153.99 24.118H151.524C151.538 23.5845 151.409 23.1735 151.135 22.8852C150.861 22.5824 150.486 22.431 150.01 22.431C149.534 22.431 149.145 22.5752 148.842 22.8635C148.554 23.1375 148.409 23.4763 148.409 23.8801C148.409 24.2694 148.518 24.6587 148.734 25.048C148.965 25.4229 149.361 25.9131 149.923 26.5187L153.903 30.4767L155.439 27.9462H158.099L156.152 31.2769L155.612 32.1637L159.267 35.7973H156.044ZM148.972 33.9805C150.327 33.9805 151.524 33.4254 152.562 32.3151L148.582 28.3139C146.881 28.9916 146.03 30.0153 146.03 31.3851C146.03 32.1204 146.304 32.7405 146.852 33.2451C147.4 33.7354 148.107 33.9805 148.972 33.9805ZM175.348 20.7656V22.777H168.967V27.2108H173.942V29.2223H168.967V35.7973H166.502V20.7656H175.348ZM176.811 29.7846C176.811 28.5878 177.056 27.528 177.546 26.6052C178.051 25.6824 178.728 24.9687 179.579 24.464C180.444 23.945 181.396 23.6854 182.434 23.6854C183.371 23.6854 184.186 23.8729 184.878 24.2477C185.585 24.6082 186.147 25.0624 186.565 25.6103V23.8801H189.052V35.7973H186.565V34.0237C186.147 34.5861 185.577 35.0547 184.857 35.4296C184.136 35.8045 183.314 35.9919 182.391 35.9919C181.367 35.9919 180.43 35.7324 179.579 35.2133C178.728 34.6798 178.051 33.9444 177.546 33.0072C177.056 32.0556 176.811 30.9814 176.811 29.7846ZM186.565 29.8278C186.565 29.006 186.392 28.2922 186.046 27.6866C185.714 27.0811 185.275 26.6197 184.727 26.3024C184.179 25.9852 183.588 25.8266 182.953 25.8266C182.319 25.8266 181.728 25.9852 181.18 26.3024C180.632 26.6052 180.185 27.0594 179.839 27.665C179.507 28.2562 179.341 28.9627 179.341 29.7846C179.341 30.6065 179.507 31.3274 179.839 31.9474C180.185 32.5674 180.632 33.0433 181.18 33.3749C181.742 33.6921 182.333 33.8507 182.953 33.8507C183.588 33.8507 184.179 33.6921 184.727 33.3749C185.275 33.0577 185.714 32.5963 186.046 31.9907C186.392 31.3707 186.565 30.6497 186.565 29.8278ZM196.617 35.9919C195.679 35.9919 194.836 35.8261 194.086 35.4945C193.351 35.1484 192.767 34.687 192.334 34.1102C191.902 33.5191 191.671 32.863 191.642 32.1421H194.194C194.237 32.6467 194.475 33.0721 194.908 33.4181C195.355 33.7498 195.91 33.9156 196.573 33.9156C197.265 33.9156 197.799 33.7858 198.174 33.5263C198.563 33.2523 198.758 32.9063 198.758 32.4881C198.758 32.0411 198.541 31.7095 198.109 31.4932C197.691 31.2769 197.02 31.039 196.097 30.7795C195.204 30.5344 194.475 30.2965 193.913 30.0658C193.351 29.8351 192.86 29.4818 192.442 29.006C192.039 28.5302 191.837 27.9029 191.837 27.1243C191.837 26.4899 192.024 25.9131 192.399 25.394C192.774 24.8605 193.307 24.4424 194 24.1396C194.706 23.8368 195.514 23.6854 196.422 23.6854C197.777 23.6854 198.866 24.0315 199.688 24.7236C200.524 25.4013 200.971 26.3313 201.029 27.5136H198.563C198.52 26.9801 198.304 26.5548 197.914 26.2376C197.525 25.9203 196.999 25.7617 196.335 25.7617C195.687 25.7617 195.189 25.8843 194.843 26.1294C194.497 26.3745 194.324 26.699 194.324 27.1027C194.324 27.4199 194.439 27.6866 194.67 27.9029C194.901 28.1192 195.182 28.2922 195.514 28.422C195.845 28.5374 196.335 28.6888 196.984 28.8762C197.849 29.1069 198.556 29.3448 199.104 29.5899C199.666 29.8206 200.149 30.1667 200.553 30.6281C200.957 31.0895 201.166 31.7023 201.18 32.4665C201.18 33.1442 200.993 33.7498 200.618 34.2833C200.243 34.8168 199.709 35.2349 199.017 35.5377C198.34 35.8405 197.539 35.9919 196.617 35.9919ZM206.721 25.8915V32.4881C206.721 32.9351 206.822 33.2595 207.024 33.4614C207.24 33.6488 207.6 33.7426 208.105 33.7426H209.619V35.7973H207.673C206.562 35.7973 205.712 35.5377 205.12 35.0186C204.529 34.4996 204.234 33.6561 204.234 32.4881V25.8915H202.828V23.8801H204.234V20.917H206.721V23.8801H209.619V25.8915H206.721Z" fill="white"/>
<path d="M23.4466 44.0787C22.3937 43.7308 21.5253 42.8787 21.1744 41.8492L21.031 41.4286L18.0383 41.4073L15.0455 41.386L14.8831 41.1726C14.5726 40.7648 14.6922 39.3932 15.1124 38.5441C15.3271 38.1101 16.0182 37.3918 16.363 37.2442L16.6101 37.1385V35.6436V34.1486H13.2999H9.98972L9.79648 33.949C9.54082 33.6848 9.54082 33.311 9.79648 33.0468L9.98972 32.8472H13.2999H16.6101V32.1558V31.4644H15.2067C13.8416 31.4644 13.7987 31.4593 13.6321 31.2761C13.4438 31.069 13.4099 30.6857 13.5619 30.4813C13.7679 30.204 13.9927 30.163 15.3059 30.163H16.6101V29.5122V28.8615H13.3122C9.61691 28.8615 9.72392 28.8785 9.63085 28.2778C9.59224 28.0286 9.61832 27.9438 9.78712 27.7694L9.98972 27.5601L12.7685 27.5576L15.5473 27.5551L15.3111 27.377C12.6114 25.3405 11.9452 21.4378 13.8041 18.5489C14.2595 17.8411 15.0956 17.0197 15.7971 16.5909C16.0927 16.4102 16.6711 16.1436 17.0825 15.9985C17.7817 15.7519 17.9021 15.7344 18.9326 15.73C19.8581 15.726 20.1351 15.7553 20.6602 15.9124C22.7759 16.5453 24.4411 18.259 25.023 20.4023L25.1665 20.931L30.5523 20.9717L35.9381 21.0124L36.4557 21.2741C37.4305 21.767 38.169 22.7803 38.3399 23.8593C38.3823 24.1277 38.4173 25.0702 38.4176 25.9538L38.4181 27.5603L41.3508 27.5614C44.6258 27.5628 44.8609 27.5908 45.8924 28.1034C46.8094 28.559 47.486 29.3366 48.8171 31.4645L49.9111 33.2133L49.9119 37.0863C49.9127 40.882 49.9093 40.9636 49.7495 41.1737L49.5863 41.388H48.3692C47.2796 41.388 47.1475 41.4029 47.1075 41.5303C46.4736 43.5506 44.523 44.6745 42.6794 44.0817C41.5427 43.7161 40.6699 42.8354 40.3122 41.693L40.2167 41.388H34.0795C28.3046 41.388 27.9396 41.3964 27.8963 41.5303C27.7291 42.048 27.3613 42.7322 27.0819 43.0453C26.1616 44.0768 24.6992 44.4926 23.4468 44.0788L23.4466 44.0787ZM25.1696 42.8105C26.0633 42.5363 26.7153 41.5923 26.7141 40.5745C26.713 39.6583 26.2914 38.9591 25.491 38.5458C24.6834 38.1289 23.818 38.2126 23.0945 38.7775C22.5352 39.2143 22.2425 39.8455 22.2471 40.605C22.2516 41.3399 22.464 41.8219 23.0049 42.3243C23.6182 42.894 24.3568 43.0599 25.1696 42.8105ZM24.2075 41.6168C23.2366 41.3367 23.1976 39.944 24.151 39.6009C24.602 39.4386 25.0663 39.5973 25.3338 40.0051C25.8522 40.7954 25.0985 41.8739 24.2075 41.6168ZM44.6841 42.6659C45.4703 42.2536 45.8938 41.5356 45.8938 40.6152C45.8938 39.3144 44.9449 38.2998 43.7266 38.2978C42.8048 38.2961 42.1234 38.7066 41.6828 39.5285C41.4813 39.9044 41.4493 40.0485 41.4507 40.5745C41.4526 41.3172 41.6395 41.7931 42.1168 42.2717C42.7956 42.9523 43.8339 43.1117 44.6841 42.6659ZM43.4521 41.6293C42.9061 41.4766 42.6694 41.1484 42.6694 40.5441C42.6694 39.6378 43.7643 39.1966 44.3954 39.8487C44.6469 40.1086 44.7655 40.5238 44.684 40.8593C44.5595 41.3716 43.9324 41.7636 43.4521 41.6293ZM21.0189 39.9268C21.0189 39.6628 21.3235 38.9055 21.5726 38.5502C21.7011 38.367 21.8062 38.1984 21.8062 38.1757C21.8062 38.1529 20.8408 38.1346 19.6609 38.1351C17.5721 38.1359 17.505 38.1409 17.1163 38.3279C16.6295 38.5621 16.2508 39.0166 16.0961 39.5522C16.0324 39.7728 15.9803 39.9833 15.9803 40.0199C15.9803 40.0565 17.114 40.0864 18.4996 40.0864C20.9504 40.0864 21.0189 40.0821 21.0189 39.9268ZM37.1584 39.1104V38.1343H32.1127H27.0671L27.2833 38.3986C27.5358 38.7073 27.8345 39.3702 27.911 39.7913L27.9646 40.0864H32.5615H37.1584V39.1104ZM40.2705 39.6797C40.7108 37.9109 42.396 36.7542 44.1646 37.0069C45.5339 37.2026 46.746 38.3217 47.0816 39.7001L47.1756 40.0864H47.9142H48.6528V36.8591V33.6318L47.6511 32.0397C46.4891 30.193 46.0164 29.6338 45.3233 29.286C44.541 28.8935 44.231 28.8615 41.209 28.8615H38.418V34.4766V40.0918L39.2987 40.0688L40.1794 40.0458L40.2705 39.6797ZM41.8078 35.2919C41.5761 35.0526 41.5566 34.7891 41.5826 32.2503L41.6066 29.9046L41.8376 29.6994C42.0637 29.4986 42.0903 29.4949 43.0972 29.5259C44.0535 29.5554 44.163 29.5756 44.6534 29.8135C45.4259 30.1881 45.7499 30.5821 46.715 32.3203C47.37 33.4999 47.581 33.9519 47.6095 34.2368C47.6555 34.696 47.4877 35.0675 47.1334 35.2907C46.8977 35.4392 46.7224 35.4495 44.4211 35.4498C42.0891 35.45 41.9529 35.4418 41.8078 35.2919H41.8078ZM46.2122 34.1161C46.2122 34.0644 44.7908 31.5165 44.6962 31.3987C44.4824 31.1324 43.9285 30.8888 43.4265 30.8404L42.9056 30.7901V32.4694V34.1486H44.5589C45.4682 34.1486 46.2122 34.134 46.2122 34.1161ZM37.119 30.3663V23.9404L36.8983 23.4761C36.7728 23.212 36.5468 22.9048 36.374 22.7634C35.7614 22.2621 35.8947 22.273 30.3503 22.273H25.2942L25.2003 22.9665C25.0798 23.8558 24.8194 24.6454 24.3909 25.4203C24.0558 26.0264 23.293 26.9208 22.751 27.3434L22.4754 27.5583L24.4527 27.5591C26.3332 27.5599 26.4402 27.5683 26.6374 27.7286C26.9305 27.9667 26.9305 28.4547 26.6374 28.6928C26.4334 28.8587 26.3603 28.8614 22.1892 28.8614H17.9485V29.5121V30.1629L20.212 30.164C22.6609 30.1653 22.7825 30.1844 22.9746 30.5983C23.0982 30.8646 22.9851 31.2534 22.7453 31.386C22.6639 31.431 21.6158 31.4642 20.2762 31.4642H17.9485V32.1556V32.847H18.7C19.3929 32.847 19.4666 32.8626 19.6448 33.0467C19.9004 33.3108 19.9004 33.6847 19.6448 33.9488C19.4666 34.1329 19.3929 34.1484 18.7 34.1484H17.9485V35.4909V36.8333L27.5337 36.8127L37.119 36.792V30.3663ZM20.0348 27.1947C21.4509 26.8902 22.806 25.805 23.4381 24.4691C23.776 23.755 24.0106 22.805 24.0106 22.1509C24.0106 21.4969 23.776 20.5469 23.4381 19.8327C23.1869 19.302 22.9725 18.9978 22.515 18.5236C20.5489 16.4858 17.4682 16.4858 15.5025 18.5236C14.5357 19.5259 14.1122 20.4927 14.0381 21.8663C13.96 23.3155 14.3876 24.5593 15.3231 25.6031C16.5645 26.9885 18.2874 27.5704 20.0348 27.1947ZM17.3217 24.6165C17.0179 24.2796 17.1031 24.0163 17.8698 22.9237L18.5783 21.9138V20.4629C18.5783 19.0308 18.5807 19.0094 18.7716 18.8123C19.0272 18.5482 19.3891 18.5482 19.6448 18.8123C19.8373 19.0112 19.838 19.0179 19.838 20.6718C19.838 22.2929 19.8335 22.3383 19.6477 22.6213C19.296 23.1567 18.3952 24.4268 18.2361 24.6115C18.0218 24.8604 17.544 24.863 17.3217 24.6165V24.6165Z" fill="#01B537" stroke="#01B537" stroke-width="0.196621"/>
</svg>
