<svg width="42" height="30" viewBox="0 0 42 30" fill="none" xmlns="http://www.w3.org/2000/svg">
<path d="M14.4466 29.0787C13.3937 28.7308 12.5253 27.8787 12.1744 26.8492L12.031 26.4286L9.03826 26.4073L6.0455 26.386L5.88306 26.1726C5.57257 25.7648 5.69222 24.3932 6.11237 23.5441C6.32711 23.1101 7.01824 22.3918 7.36305 22.2442L7.61011 22.1385V20.6436V19.1486H4.29992H0.989725L0.796481 18.949C0.540821 18.6848 0.540821 18.311 0.796481 18.0468L0.989725 17.8472H4.29992H7.61011V17.1558V16.4644H6.20671C4.84155 16.4644 4.79865 16.4593 4.63213 16.2761C4.44381 16.069 4.40993 15.6857 4.56187 15.4813C4.76794 15.204 4.99265 15.163 6.30591 15.163H7.61011V14.5122V13.8615H4.31221C0.616914 13.8615 0.723916 13.8785 0.630848 13.2778C0.592244 13.0286 0.618317 12.9438 0.787118 12.7694L0.989725 12.5601L3.7685 12.5576L6.54727 12.5551L6.31108 12.377C3.61139 10.3405 2.94516 6.43781 4.80406 3.54888C5.25947 2.84112 6.09562 2.01965 6.79706 1.59087C7.09268 1.41016 7.67113 1.1436 8.08249 0.998527C8.78175 0.751911 8.90213 0.734438 9.93262 0.730013C10.8581 0.726047 11.1351 0.755266 11.6602 0.912362C13.7759 1.54529 15.4411 3.259 16.023 5.40234L16.1665 5.93105L21.5523 5.97172L26.9381 6.01239L27.4557 6.27408C28.4305 6.76696 29.169 7.78026 29.3399 8.8593C29.3823 9.12772 29.4173 10.0702 29.4176 10.9538L29.4181 12.5603L32.3508 12.5614C35.6258 12.5628 35.8609 12.5908 36.8924 13.1034C37.8094 13.559 38.486 14.3366 39.8171 16.4645L40.9111 18.2133L40.9119 22.0863C40.9127 25.882 40.9093 25.9636 40.7495 26.1737L40.5863 26.388H39.3692C38.2796 26.388 38.1475 26.4029 38.1075 26.5303C37.4736 28.5506 35.523 29.6745 33.6794 29.0817C32.5427 28.7161 31.6699 27.8354 31.3122 26.693L31.2167 26.388H25.0795C19.3046 26.388 18.9396 26.3964 18.8963 26.5303C18.7291 27.048 18.3613 27.7322 18.0819 28.0453C17.1616 29.0768 15.6992 29.4926 14.4468 29.0788L14.4466 29.0787ZM16.1696 27.8105C17.0633 27.5363 17.7153 26.5923 17.7141 25.5745C17.713 24.6583 17.2914 23.9591 16.491 23.5458C15.6834 23.1289 14.818 23.2126 14.0945 23.7775C13.5352 24.2143 13.2425 24.8455 13.2471 25.605C13.2516 26.3399 13.464 26.8219 14.0049 27.3243C14.6182 27.894 15.3568 28.0599 16.1696 27.8105ZM15.2075 26.6168C14.2366 26.3367 14.1976 24.944 15.151 24.6009C15.602 24.4386 16.0663 24.5973 16.3338 25.0051C16.8522 25.7954 16.0985 26.8739 15.2075 26.6168ZM35.6841 27.6659C36.4703 27.2536 36.8938 26.5356 36.8938 25.6152C36.8938 24.3144 35.9449 23.2998 34.7266 23.2978C33.8048 23.2961 33.1234 23.7066 32.6828 24.5285C32.4813 24.9044 32.4493 25.0485 32.4507 25.5745C32.4526 26.3172 32.6395 26.7931 33.1168 27.2717C33.7956 27.9523 34.8339 28.1117 35.6841 27.6659ZM34.4521 26.6293C33.9061 26.4766 33.6694 26.1484 33.6694 25.5441C33.6694 24.6378 34.7643 24.1966 35.3954 24.8487C35.6469 25.1086 35.7655 25.5238 35.684 25.8593C35.5595 26.3716 34.9324 26.7636 34.4521 26.6293ZM12.0189 24.9268C12.0189 24.6628 12.3235 23.9055 12.5726 23.5502C12.7011 23.367 12.8062 23.1984 12.8062 23.1757C12.8062 23.1529 11.8408 23.1346 10.6609 23.1351C8.5721 23.1359 8.50496 23.1409 8.11627 23.3279C7.62952 23.5621 7.25075 24.0166 7.09611 24.5522C7.03241 24.7728 6.98028 24.9833 6.98028 25.0199C6.98028 25.0565 8.11398 25.0864 9.49961 25.0864C11.9504 25.0864 12.0189 25.0821 12.0189 24.9268ZM28.1584 24.1104V23.1343H23.1127H18.0671L18.2833 23.3986C18.5358 23.7073 18.8345 24.3702 18.911 24.7913L18.9646 25.0864H23.5615H28.1584V24.1104ZM31.2705 24.6797C31.7108 22.9109 33.396 21.7542 35.1646 22.0069C36.5339 22.2026 37.746 23.3217 38.0816 24.7001L38.1756 25.0864H38.9142H39.6528V21.8591V18.6318L38.6511 17.0397C37.4891 15.193 37.0164 14.6338 36.3233 14.286C35.541 13.8935 35.231 13.8615 32.209 13.8615H29.418V19.4766V25.0918L30.2987 25.0688L31.1794 25.0458L31.2705 24.6797ZM32.8078 20.2919C32.5761 20.0526 32.5566 19.7891 32.5826 17.2503L32.6066 14.9046L32.8376 14.6994C33.0637 14.4986 33.0903 14.4949 34.0972 14.5259C35.0535 14.5554 35.163 14.5756 35.6534 14.8135C36.4259 15.1881 36.7499 15.5821 37.715 17.3203C38.37 18.4999 38.581 18.9519 38.6095 19.2368C38.6555 19.696 38.4877 20.0675 38.1334 20.2907C37.8977 20.4392 37.7224 20.4495 35.4211 20.4498C33.0891 20.45 32.9529 20.4418 32.8078 20.2919H32.8078ZM37.2122 19.1161C37.2122 19.0644 35.7908 16.5165 35.6962 16.3987C35.4824 16.1324 34.9285 15.8888 34.4265 15.8404L33.9056 15.7901V17.4694V19.1486H35.5589C36.4682 19.1486 37.2122 19.134 37.2122 19.1161ZM28.119 15.3663V8.94043L27.8983 8.47614C27.7728 8.21195 27.5468 7.90478 27.374 7.7634C26.7614 7.2621 26.8947 7.27295 21.3503 7.27295H16.2942L16.2003 7.96645C16.0798 8.85577 15.8194 9.64543 15.3909 10.4203C15.0558 11.0264 14.293 11.9208 13.751 12.3434L13.4754 12.5583L15.4527 12.5591C17.3332 12.5599 17.4402 12.5683 17.6374 12.7286C17.9305 12.9667 17.9305 13.4547 17.6374 13.6928C17.4334 13.8587 17.3603 13.8614 13.1892 13.8614H8.9485V14.5121V15.1629L11.212 15.164C13.6609 15.1653 13.7825 15.1844 13.9746 15.5983C14.0982 15.8646 13.9851 16.2534 13.7453 16.386C13.6639 16.431 12.6158 16.4642 11.2762 16.4642H8.9485V17.1556V17.847H9.70001C10.3929 17.847 10.4666 17.8626 10.6448 18.0467C10.9004 18.3108 10.9004 18.6847 10.6448 18.9488C10.4666 19.1329 10.3929 19.1484 9.70001 19.1484H8.9485V20.4909V21.8333L18.5337 21.8127L28.119 21.792V15.3663ZM11.0348 12.1947C12.4509 11.8902 13.806 10.805 14.4381 9.46913C14.776 8.75496 15.0106 7.80499 15.0106 7.15094C15.0106 6.49689 14.776 5.54692 14.4381 4.83275C14.1869 4.30199 13.9725 3.99783 13.515 3.52362C11.5489 1.48579 8.46822 1.48579 6.50251 3.52363C5.53574 4.52588 5.11216 5.49273 5.0381 6.86625C4.95996 8.31554 5.38763 9.55927 6.32307 10.6031C7.5645 11.9885 9.28736 12.5704 11.0348 12.1947ZM8.32174 9.61648C8.01793 9.27956 8.10314 9.01635 8.86978 7.92367L9.57834 6.91377V5.46286C9.57834 4.03084 9.58074 4.00935 9.77158 3.8123C10.0272 3.54816 10.3891 3.54816 10.6448 3.8123C10.8373 4.01123 10.838 4.01795 10.838 5.67177C10.838 7.29289 10.8335 7.33835 10.6477 7.62128C10.296 8.15674 9.39524 9.42676 9.23614 9.61148C9.02178 9.86038 8.54403 9.86299 8.32174 9.61646V9.61648Z" fill="#01B537" stroke="#01B537" stroke-width="0.196621"/>
</svg>
