<svg width="26" height="26" viewBox="0 0 26 26" fill="none" xmlns="http://www.w3.org/2000/svg">
<path d="M14.5643 8.25223C14.784 8.0344 15.0807 7.91181 15.3901 7.91095C15.6995 7.9101 15.9968 8.03106 16.2178 8.24767C16.4387 8.46429 16.5656 8.75916 16.5708 9.06853C16.5761 9.37791 16.4594 9.67693 16.246 9.90095L9.97773 17.7363C9.87 17.8523 9.73997 17.9454 9.59543 18.01C9.45089 18.0747 9.2948 18.1095 9.13649 18.1124C8.97819 18.1154 8.82091 18.0863 8.67408 18.0271C8.52724 17.9679 8.39386 17.8796 8.28191 17.7677L4.12873 13.6129C4.01302 13.5051 3.92022 13.3751 3.85586 13.2306C3.79149 13.0862 3.75688 12.9302 3.75409 12.7721C3.7513 12.614 3.78039 12.4569 3.83962 12.3103C3.89885 12.1636 3.987 12.0304 4.09883 11.9186C4.21066 11.8068 4.34387 11.7186 4.4905 11.6594C4.63714 11.6001 4.79421 11.5711 4.95233 11.5739C5.11046 11.5766 5.2664 11.6113 5.41086 11.6756C5.55531 11.74 5.68533 11.8328 5.79314 11.9485L9.08114 15.2349L14.5329 8.28678C14.5427 8.27466 14.5531 8.26312 14.5643 8.25223ZM13.1197 16.3231L14.5643 17.7677C14.6762 17.8794 14.8095 17.9674 14.9562 18.0265C15.1029 18.0856 15.26 18.1146 15.4181 18.1116C15.5762 18.1087 15.7321 18.0739 15.8765 18.0095C16.0209 17.945 16.1508 17.852 16.2585 17.7363L22.5268 9.90095C22.6394 9.78978 22.7284 9.65706 22.7886 9.51071C22.8488 9.36437 22.8788 9.2074 22.877 9.04917C22.8751 8.89095 22.8414 8.73473 22.7778 8.58982C22.7143 8.44492 22.6222 8.31431 22.507 8.2058C22.3918 8.09729 22.256 8.0131 22.1076 7.95825C21.9592 7.90341 21.8012 7.87904 21.6431 7.8866C21.4851 7.89416 21.3302 7.93349 21.1877 8.00224C21.0452 8.071 20.918 8.16777 20.8137 8.28678L15.3604 15.2349L14.5988 14.4718L13.1181 16.3231H13.1197Z" fill="#727272"/>
</svg>
