<svg width="21" height="27" viewBox="0 0 21 27" fill="none" xmlns="http://www.w3.org/2000/svg">
<path d="M9.42091 26.4552C1.47492 15.3473 0 14.2073 0 10.125C0 4.5331 4.70099 0 10.5 0C16.299 0 21 4.5331 21 10.125C21 14.2073 19.5251 15.3473 11.5791 26.4552C11.0576 27.1816 9.9423 27.1816 9.42091 26.4552ZM10.5 14.3437C12.9163 14.3437 14.875 12.455 14.875 10.125C14.875 7.79504 12.9163 5.90625 10.5 5.90625C8.08374 5.90625 6.125 7.79504 6.125 10.125C6.125 12.455 8.08374 14.3437 10.5 14.3437Z" fill="#FC4C00"/>
</svg>
