<svg width="30" height="31" viewBox="0 0 30 31" fill="none" xmlns="http://www.w3.org/2000/svg">
<path d="M24.0664 29.5571C23.3724 29.2966 20.3092 27.9391 20.0949 27.797C19.9371 27.6924 19.6949 27.4603 19.5567 27.2812L19.3055 26.9556L10.4869 26.9554L1.66823 26.9552L1.35595 26.7994C1.01086 26.6273 0.770994 26.3285 0.666642 25.9408C0.568188 25.5749 0.573321 2.09263 0.67194 1.70067C0.771037 1.30681 1.20267 0.874837 1.59622 0.775661C1.98787 0.676964 25.4516 0.671827 25.8172 0.770359C26.2046 0.874793 26.5032 1.11485 26.6752 1.46022L26.8308 1.77274V9.19592V16.6191L27.1226 16.6577C27.6097 16.7221 28.6232 16.9924 28.9676 17.1497C29.5091 17.3971 29.4805 17.117 29.4597 21.9646C29.4416 26.1761 29.4412 26.1875 29.304 26.5234C29.0976 27.0283 28.7539 27.4883 28.3859 27.752C28.0794 27.9716 24.6664 29.4862 24.3121 29.5597C24.2276 29.5773 24.1171 29.5761 24.0664 29.5571ZM25.7269 27.5653C27.5132 26.7978 27.7039 26.6946 27.9185 26.3782L28.0901 26.1252L28.1068 22.1779L28.1234 18.2305L27.8688 18.1619C26.8081 17.8761 25.6161 17.7753 23.7158 17.811C22.1401 17.8405 21.7108 17.8867 20.6706 18.1384L20.2542 18.2392L20.2713 22.1207L20.2884 26.0022L20.426 26.26C20.5018 26.4017 20.6552 26.5875 20.767 26.6729C20.9733 26.8303 24.0185 28.1704 24.1911 28.1797C24.2428 28.1825 24.9339 27.906 25.7269 27.5653ZM18.9817 21.5806L18.9983 17.4972L19.1482 17.3376C19.4143 17.0542 20.75 16.7098 22.162 16.5606C22.5506 16.5196 23.4697 16.4843 24.2046 16.4823L25.5407 16.4786V9.2673V2.05599H21.6091H17.6776V6.2643C17.6776 9.12538 17.6557 10.5749 17.6091 10.792C17.4315 11.6211 16.4519 12.0668 15.7308 11.6465C15.6231 11.5837 15.1333 11.2101 14.6425 10.8162C14.0575 10.3468 13.7229 10.1165 13.6712 10.1478C13.6279 10.1741 13.2054 10.5047 12.7324 10.8826C12.2594 11.2604 11.7756 11.62 11.6573 11.6818C11.2093 11.9159 10.5032 11.7804 10.1399 11.3906C9.80735 11.0339 9.81441 11.1417 9.81441 6.423V2.05599H5.88283H1.95126V13.86V25.6641H10.4582H18.9651L18.9817 21.5806ZM5.04662 22.7591C4.97526 22.745 4.84129 22.6546 4.74891 22.5581C4.47493 22.2719 4.52812 21.7876 4.85758 21.5689C4.97016 21.4941 5.53789 21.4765 8.34007 21.4607C10.6129 21.4478 11.761 21.4631 11.9151 21.5082C12.3415 21.6331 12.5376 22.1392 12.2943 22.4868C12.0762 22.7984 12.0321 22.802 8.48026 22.793C6.66313 22.7884 5.11799 22.7731 5.04662 22.7591ZM12.1479 9.682C13.0053 8.99972 13.1941 8.87626 13.4629 8.8222C13.8142 8.75153 14.1448 8.8057 14.4078 8.97704C14.5529 9.07158 15.9144 10.1459 16.2186 10.4059C16.3208 10.4932 16.3261 10.2908 16.3261 6.27686V2.05599H13.7153H11.1045V6.26733C11.1045 8.58357 11.114 10.4787 11.1256 10.4787C11.1373 10.4787 11.5973 10.1202 12.1479 9.682Z" fill="#01B537" stroke="#01B537" stroke-width="0.983104"/>
</svg>
