<svg width="227" height="60" viewBox="0 0 227 60" fill="none" xmlns="http://www.w3.org/2000/svg">
<rect x="0.756836" y="0.986267" width="58.9862" height="58.9862" rx="9.83104" fill="white"/>
<path d="M82.0478 36.9349C81.0385 36.9349 80.1301 36.7619 79.3226 36.4158C78.5152 36.0553 77.8807 35.5507 77.4193 34.9018C76.9579 34.253 76.7272 33.496 76.7272 32.6309H79.3659C79.4235 33.2797 79.6759 33.8132 80.1229 34.2313C80.5843 34.6495 81.2259 34.8586 82.0478 34.8586C82.8985 34.8586 83.5618 34.6567 84.0376 34.253C84.5134 33.8348 84.7513 33.3013 84.7513 32.6525C84.7513 32.1478 84.5999 31.7369 84.2971 31.4197C84.0087 31.1025 83.6411 30.8573 83.1941 30.6843C82.7615 30.5113 82.1559 30.3238 81.3773 30.122C80.3968 29.8624 79.5966 29.6029 78.9766 29.3434C78.371 29.0694 77.8519 28.6512 77.4193 28.0889C76.9868 27.5266 76.7705 26.7768 76.7705 25.8396C76.7705 24.9744 76.9868 24.2174 77.4193 23.5686C77.8519 22.9197 78.4575 22.4223 79.2361 22.0762C80.0147 21.7302 80.9159 21.5572 81.9396 21.5572C83.3959 21.5572 84.5855 21.9248 85.5083 22.6602C86.4455 23.3812 86.9646 24.3761 87.0655 25.6449H84.3404C84.2971 25.097 84.0376 24.6284 83.5618 24.2391C83.0859 23.8498 82.4587 23.6551 81.6801 23.6551C80.9736 23.6551 80.3968 23.8353 79.9498 24.1958C79.5029 24.5563 79.2794 25.0754 79.2794 25.7531C79.2794 26.2145 79.4163 26.5966 79.6903 26.8994C79.9787 27.1877 80.3391 27.4184 80.7717 27.5915C81.2043 27.7645 81.7954 27.9519 82.5452 28.1538C83.5401 28.4278 84.3476 28.7017 84.9676 28.9757C85.602 29.2496 86.1355 29.675 86.5681 30.2517C87.0151 30.8141 87.2386 31.5711 87.2386 32.5227C87.2386 33.2869 87.0295 34.0079 86.6113 34.6855C86.2076 35.3632 85.6092 35.9111 84.8162 36.3293C84.0376 36.733 83.1148 36.9349 82.0478 36.9349ZM89.326 30.7708C89.326 29.5741 89.5712 28.5143 90.0614 27.5915C90.5661 26.6687 91.2437 25.9549 92.0945 25.4503C92.9596 24.9312 93.9112 24.6716 94.9494 24.6716C95.8866 24.6716 96.7013 24.8591 97.3934 25.234C98.0999 25.5944 98.6623 26.0486 99.0804 26.5966V24.8663H101.568V36.7835H99.0804V35.01C98.6623 35.5723 98.0927 36.0409 97.3718 36.4158C96.6508 36.7907 95.8289 36.9781 94.9061 36.9781C93.8824 36.9781 92.9452 36.7186 92.0945 36.1995C91.2437 35.666 90.5661 34.9307 90.0614 33.9934C89.5712 33.0418 89.326 31.9676 89.326 30.7708ZM99.0804 30.8141C99.0804 29.9922 98.9074 29.2785 98.5613 28.6729C98.2297 28.0673 97.7899 27.6059 97.242 27.2887C96.6941 26.9714 96.1029 26.8128 95.4685 26.8128C94.834 26.8128 94.2429 26.9714 93.695 27.2887C93.147 27.5915 92.7001 28.0457 92.354 28.6512C92.0224 29.2424 91.8565 29.9489 91.8565 30.7708C91.8565 31.5927 92.0224 32.3136 92.354 32.9336C92.7001 33.5537 93.147 34.0295 93.695 34.3611C94.2573 34.6783 94.8485 34.8369 95.4685 34.8369C96.1029 34.8369 96.6941 34.6783 97.242 34.3611C97.7899 34.0439 98.2297 33.5825 98.5613 32.9769C98.9074 32.3569 99.0804 31.636 99.0804 30.8141ZM109.802 26.8777H107.596V36.7835H105.109V26.8777H103.703V24.8663H105.109V24.0228C105.109 22.653 105.469 21.6581 106.19 21.0381C106.926 20.4037 108.072 20.0864 109.629 20.0864V22.1411C108.879 22.1411 108.353 22.2853 108.05 22.5737C107.748 22.8477 107.596 23.3307 107.596 24.0228V24.8663H109.802V26.8777ZM122.91 30.5329C122.91 30.9799 122.881 31.3836 122.823 31.7441H113.718C113.79 32.6957 114.143 33.4599 114.777 34.0367C115.412 34.6134 116.191 34.9018 117.113 34.9018C118.44 34.9018 119.377 34.3467 119.925 33.2364H122.585C122.225 34.3323 121.569 35.2335 120.617 35.94C119.68 36.6321 118.512 36.9781 117.113 36.9781C115.974 36.9781 114.95 36.7258 114.042 36.2211C113.148 35.7021 112.442 34.9811 111.923 34.0583C111.418 33.1211 111.166 32.0397 111.166 30.8141C111.166 29.5885 111.411 28.5143 111.901 27.5915C112.406 26.6542 113.105 25.9333 113.999 25.4286C114.907 24.924 115.945 24.6716 117.113 24.6716C118.238 24.6716 119.24 24.9168 120.12 25.407C120.999 25.8972 121.684 26.5894 122.174 27.4833C122.665 28.3629 122.91 29.3794 122.91 30.5329ZM120.336 29.7543C120.322 28.8459 119.997 28.1177 119.363 27.5698C118.728 27.0219 117.942 26.748 117.005 26.748C116.154 26.748 115.426 27.0219 114.821 27.5698C114.215 28.1033 113.855 28.8315 113.739 29.7543H120.336ZM142.569 36.7835L140.709 34.9235C139.988 35.6444 139.202 36.1851 138.351 36.5456C137.501 36.8916 136.549 37.0647 135.496 37.0647C134.429 37.0647 133.485 36.8772 132.663 36.5023C131.841 36.1274 131.207 35.5939 130.76 34.9018C130.313 34.1953 130.089 33.3806 130.089 32.4578C130.089 31.4197 130.385 30.4969 130.976 29.6894C131.567 28.8675 132.447 28.2187 133.615 27.7429C133.197 27.2382 132.901 26.7696 132.728 26.337C132.555 25.89 132.468 25.3998 132.468 24.8663C132.468 24.203 132.634 23.6119 132.966 23.0928C133.312 22.5737 133.802 22.1628 134.437 21.86C135.071 21.5572 135.806 21.4058 136.643 21.4058C137.493 21.4058 138.214 21.5716 138.805 21.9032C139.411 22.2204 139.858 22.6602 140.146 23.2225C140.449 23.7849 140.572 24.4121 140.514 25.1042H138.048C138.063 24.5707 137.933 24.1598 137.659 23.8714C137.385 23.5686 137.01 23.4172 136.535 23.4172C136.059 23.4172 135.669 23.5614 135.367 23.8498C135.078 24.1237 134.934 24.4626 134.934 24.8663C134.934 25.2556 135.042 25.6449 135.258 26.0342C135.489 26.4091 135.886 26.8994 136.448 27.5049L140.428 31.4629L141.963 28.9324H144.623L142.677 32.2632L142.136 33.1499L145.791 36.7835H142.569ZM135.496 34.9667C136.852 34.9667 138.048 34.4116 139.087 33.3013L135.107 29.3001C133.406 29.9778 132.555 31.0015 132.555 32.3713C132.555 33.1067 132.829 33.7267 133.377 34.2313C133.925 34.7216 134.631 34.9667 135.496 34.9667ZM157.979 36.9349C156.97 36.9349 156.061 36.7619 155.254 36.4158C154.447 36.0553 153.812 35.5507 153.351 34.9018C152.889 34.253 152.659 33.496 152.659 32.6309H155.297C155.355 33.2797 155.607 33.8132 156.054 34.2313C156.516 34.6495 157.157 34.8586 157.979 34.8586C158.83 34.8586 159.493 34.6567 159.969 34.253C160.445 33.8348 160.683 33.3013 160.683 32.6525C160.683 32.1478 160.531 31.7369 160.228 31.4197C159.94 31.1025 159.572 30.8573 159.125 30.6843C158.693 30.5113 158.087 30.3238 157.309 30.122C156.328 29.8624 155.528 29.6029 154.908 29.3434C154.302 29.0694 153.783 28.6512 153.351 28.0889C152.918 27.5266 152.702 26.7768 152.702 25.8396C152.702 24.9744 152.918 24.2174 153.351 23.5686C153.783 22.9197 154.389 22.4223 155.167 22.0762C155.946 21.7302 156.847 21.5572 157.871 21.5572C159.327 21.5572 160.517 21.9248 161.44 22.6602C162.377 23.3812 162.896 24.3761 162.997 25.6449H160.272C160.228 25.097 159.969 24.6284 159.493 24.2391C159.017 23.8498 158.39 23.6551 157.611 23.6551C156.905 23.6551 156.328 23.8353 155.881 24.1958C155.434 24.5563 155.211 25.0754 155.211 25.7531C155.211 26.2145 155.348 26.5966 155.622 26.8994C155.91 27.1877 156.271 27.4184 156.703 27.5915C157.136 27.7645 157.727 27.9519 158.477 28.1538C159.471 28.4278 160.279 28.7017 160.899 28.9757C161.533 29.2496 162.067 29.675 162.499 30.2517C162.946 30.8141 163.17 31.5711 163.17 32.5227C163.17 33.2869 162.961 34.0079 162.543 34.6855C162.139 35.3632 161.541 35.9111 160.748 36.3293C159.969 36.733 159.046 36.9349 157.979 36.9349ZM177.002 30.5329C177.002 30.9799 176.973 31.3836 176.915 31.7441H167.81C167.882 32.6957 168.235 33.4599 168.869 34.0367C169.504 34.6134 170.282 34.9018 171.205 34.9018C172.532 34.9018 173.469 34.3467 174.017 33.2364H176.677C176.317 34.3323 175.661 35.2335 174.709 35.94C173.772 36.6321 172.604 36.9781 171.205 36.9781C170.066 36.9781 169.042 36.7258 168.134 36.2211C167.24 35.7021 166.533 34.9811 166.014 34.0583C165.51 33.1211 165.257 32.0397 165.257 30.8141C165.257 29.5885 165.503 28.5143 165.993 27.5915C166.497 26.6542 167.197 25.9333 168.091 25.4286C168.999 24.924 170.037 24.6716 171.205 24.6716C172.33 24.6716 173.332 24.9168 174.212 25.407C175.091 25.8972 175.776 26.5894 176.266 27.4833C176.756 28.3629 177.002 29.3794 177.002 30.5329ZM174.428 29.7543C174.413 28.8459 174.089 28.1177 173.455 27.5698C172.82 27.0219 172.034 26.748 171.097 26.748C170.246 26.748 169.518 27.0219 168.913 27.5698C168.307 28.1033 167.947 28.8315 167.831 29.7543H174.428ZM178.606 30.8141C178.606 29.5885 178.851 28.5143 179.341 27.5915C179.846 26.6542 180.538 25.9333 181.418 25.4286C182.297 24.924 183.307 24.6716 184.446 24.6716C185.888 24.6716 187.077 25.0177 188.014 25.7098C188.966 26.3875 189.608 27.3608 189.939 28.6296H187.279C187.063 28.0384 186.717 27.577 186.241 27.2454C185.765 26.9138 185.167 26.748 184.446 26.748C183.436 26.748 182.629 27.1084 182.023 27.8294C181.432 28.5359 181.137 29.5308 181.137 30.8141C181.137 32.0974 181.432 33.0995 182.023 33.8204C182.629 34.5414 183.436 34.9018 184.446 34.9018C185.873 34.9018 186.818 34.2746 187.279 33.0202H189.939C189.593 34.2313 188.944 35.1974 187.993 35.9184C187.041 36.6249 185.859 36.9781 184.446 36.9781C183.307 36.9781 182.297 36.7258 181.418 36.2211C180.538 35.7021 179.846 34.9811 179.341 34.0583C178.851 33.1211 178.606 32.0397 178.606 30.8141ZM203.189 24.8663V36.7835H200.723V35.3776C200.334 35.8679 199.822 36.2572 199.188 36.5456C198.568 36.8195 197.905 36.9565 197.198 36.9565C196.261 36.9565 195.417 36.7619 194.667 36.3725C193.932 35.9832 193.348 35.4065 192.916 34.6423C192.497 33.8781 192.288 32.9553 192.288 31.8739V24.8663H194.732V31.5062C194.732 32.5732 194.999 33.3951 195.533 33.9718C196.066 34.5341 196.794 34.8153 197.717 34.8153C198.64 34.8153 199.368 34.5341 199.902 33.9718C200.449 33.3951 200.723 32.5732 200.723 31.5062V24.8663H203.189ZM208.908 26.5966C209.268 25.991 209.744 25.5224 210.335 25.1907C210.941 24.8447 211.655 24.6716 212.477 24.6716V27.2238H211.849C210.883 27.2238 210.148 27.4689 209.643 27.9591C209.153 28.4494 208.908 29.3001 208.908 30.5113V36.7835H206.442V24.8663H208.908V26.5966ZM225.665 30.5329C225.665 30.9799 225.636 31.3836 225.579 31.7441H216.473C216.545 32.6957 216.899 33.4599 217.533 34.0367C218.167 34.6134 218.946 34.9018 219.869 34.9018C221.195 34.9018 222.133 34.3467 222.681 33.2364H225.341C224.98 34.3323 224.324 35.2335 223.373 35.94C222.435 36.6321 221.267 36.9781 219.869 36.9781C218.73 36.9781 217.706 36.7258 216.798 36.2211C215.904 35.7021 215.197 34.9811 214.678 34.0583C214.173 33.1211 213.921 32.0397 213.921 30.8141C213.921 29.5885 214.166 28.5143 214.656 27.5915C215.161 26.6542 215.86 25.9333 216.754 25.4286C217.663 24.924 218.701 24.6716 219.869 24.6716C220.994 24.6716 221.996 24.9168 222.875 25.407C223.755 25.8972 224.44 26.5894 224.93 27.4833C225.42 28.3629 225.665 29.3794 225.665 30.5329ZM223.091 29.7543C223.077 28.8459 222.753 28.1177 222.118 27.5698C221.484 27.0219 220.698 26.748 219.761 26.748C218.91 26.748 218.182 27.0219 217.576 27.5698C216.971 28.1033 216.61 28.8315 216.495 29.7543H223.091Z" fill="white"/>
<path d="M41.0664 46.5571C40.3724 46.2966 37.3092 44.9391 37.0949 44.797C36.9371 44.6924 36.6949 44.4603 36.5567 44.2812L36.3055 43.9556L27.4869 43.9554L18.6682 43.9552L18.356 43.7994C18.0109 43.6273 17.771 43.3285 17.6666 42.9408C17.5682 42.5749 17.5733 19.0926 17.6719 18.7007C17.771 18.3068 18.2027 17.8748 18.5962 17.7757C18.9879 17.677 42.4516 17.6718 42.8172 17.7704C43.2046 17.8748 43.5032 18.1149 43.6752 18.4602L43.8308 18.7727V26.1959V33.6191L44.1226 33.6577C44.6097 33.7221 45.6232 33.9924 45.9676 34.1497C46.5091 34.3971 46.4805 34.117 46.4597 38.9646C46.4416 43.1761 46.4412 43.1875 46.304 43.5234C46.0976 44.0283 45.7539 44.4883 45.3859 44.752C45.0794 44.9716 41.6664 46.4862 41.3121 46.5597C41.2276 46.5773 41.1171 46.5761 41.0664 46.5571ZM42.7269 44.5653C44.5132 43.7978 44.7039 43.6946 44.9185 43.3782L45.0901 43.1252L45.1068 39.1779L45.1234 35.2305L44.8688 35.1619C43.8081 34.8761 42.6161 34.7753 40.7158 34.811C39.1401 34.8405 38.7108 34.8867 37.6706 35.1384L37.2542 35.2392L37.2713 39.1207L37.2884 43.0022L37.426 43.26C37.5018 43.4017 37.6552 43.5875 37.767 43.6729C37.9733 43.8303 41.0185 45.1704 41.1911 45.1797C41.2428 45.1825 41.9339 44.906 42.7269 44.5653ZM35.9817 38.5806L35.9983 34.4972L36.1482 34.3376C36.4143 34.0542 37.75 33.7098 39.162 33.5606C39.5506 33.5196 40.4697 33.4843 41.2046 33.4823L42.5407 33.4786V26.2673V19.056H38.6091H34.6776V23.2643C34.6776 26.1254 34.6557 27.5749 34.6091 27.792C34.4315 28.6211 33.4519 29.0668 32.7308 28.6465C32.6231 28.5837 32.1333 28.2101 31.6425 27.8162C31.0575 27.3468 30.7229 27.1165 30.6712 27.1478C30.6279 27.1741 30.2054 27.5047 29.7324 27.8826C29.2594 28.2604 28.7756 28.62 28.6573 28.6818C28.2093 28.9159 27.5032 28.7804 27.1399 28.3906C26.8073 28.0339 26.8144 28.1417 26.8144 23.423V19.056H22.8828H18.9513V30.86V42.6641H27.4582H35.9651L35.9817 38.5806ZM22.0466 39.7591C21.9753 39.745 21.8413 39.6546 21.7489 39.5581C21.4749 39.2719 21.5281 38.7876 21.8576 38.5689C21.9702 38.4941 22.5379 38.4765 25.3401 38.4607C27.6129 38.4478 28.761 38.4631 28.9151 38.5082C29.3415 38.6331 29.5376 39.1392 29.2943 39.4868C29.0762 39.7984 29.0321 39.802 25.4803 39.793C23.6631 39.7884 22.118 39.7731 22.0466 39.7591ZM29.1479 26.682C30.0053 25.9997 30.1941 25.8763 30.4629 25.8222C30.8142 25.7515 31.1448 25.8057 31.4078 25.977C31.5529 26.0716 32.9144 27.1459 33.2186 27.4059C33.3208 27.4932 33.3261 27.2908 33.3261 23.2769V19.056H30.7153H28.1045V23.2673C28.1045 25.5836 28.114 27.4787 28.1256 27.4787C28.1373 27.4787 28.5973 27.1202 29.1479 26.682Z" fill="#01B537" stroke="#01B537" stroke-width="0.983104"/>
<path d="M39.4543 40.396C39.9025 40.9687 40.0737 41.1554 40.1908 41.1989C40.3783 41.2685 40.3781 41.2685 40.5436 41.2159C40.6967 41.1673 43.2567 39.0086 43.3619 38.8394C43.4713 38.6635 43.4473 38.4971 43.2909 38.3476C43.1717 38.2337 43.1191 38.2141 42.9323 38.2141H42.7134L41.59 39.1726C40.9721 39.6998 40.4581 40.1228 40.4478 40.1126C40.4374 40.1023 40.2779 39.9009 40.0932 39.6649C39.9085 39.4289 39.7169 39.2053 39.6674 39.1681C39.3829 38.9539 38.8704 39.1586 38.8704 39.4864C38.8704 39.6274 38.9506 39.7524 39.4543 40.396Z" fill="#01B537" stroke="#01B537" stroke-width="0.983104"/>
</svg>
