<svg width="18" height="18" viewBox="0 0 18 18" fill="none" xmlns="http://www.w3.org/2000/svg">
<path d="M16.3125 11.8125H1.6875C1.06618 11.8125 0.5625 12.3162 0.5625 12.9375V14.0625C0.5625 14.6838 1.06618 15.1875 1.6875 15.1875H16.3125C16.9338 15.1875 17.4375 14.6838 17.4375 14.0625V12.9375C17.4375 12.3162 16.9338 11.8125 16.3125 11.8125Z" stroke="#25A268" stroke-linecap="round" stroke-linejoin="round"/>
<path d="M2.25 15.1875L1.6875 17.4375" stroke="#25A268" stroke-linecap="round" stroke-linejoin="round"/>
<path d="M15.75 15.1875L16.3125 17.4375" stroke="#25A268" stroke-linecap="round" stroke-linejoin="round"/>
<path d="M12.9376 11.8125C12.9789 10.2381 12.59 8.68222 11.8126 7.3125H9.56256C8.78514 8.68222 8.39618 10.2381 8.43756 11.8125H12.9376Z" stroke="#25A268" stroke-linecap="round" stroke-linejoin="round"/>
<path d="M3.9375 3.9375C8.4375 0.5625 10.6875 7.3125 10.6875 7.3125C10.6875 7.3125 12.9375 2.25 15.1875 0.5625" stroke="#25A268" stroke-linecap="round" stroke-linejoin="round"/>
<path d="M6.60075 3.003L5.625 0.5625" stroke="#25A268" stroke-linecap="round" stroke-linejoin="round"/>
<path d="M13.0627 3.00075L11.8125 1.125" stroke="#25A268" stroke-linecap="round" stroke-linejoin="round"/>
</svg>
