<svg width="18" height="18" viewBox="0 0 18 18" fill="none" xmlns="http://www.w3.org/2000/svg">
<path d="M9.92932 9.9045C9.55755 9.42108 9.07406 9.03506 8.52032 8.77955C7.96659 8.52404 7.35914 8.40667 6.75008 8.4375H4.65008C3.72622 8.4249 2.82489 8.72282 2.09053 9.28351C1.35617 9.84421 0.831311 10.6352 0.600077 11.5298C0.556905 11.696 0.552378 11.8699 0.586842 12.0382C0.621307 12.2065 0.693849 12.3647 0.798905 12.5006C0.903961 12.6365 1.03874 12.7465 1.19291 12.8222C1.34709 12.898 1.51655 12.9374 1.68833 12.9375H9.56332C10.4584 12.9375 11.3169 12.5819 11.9498 11.949C12.5827 11.316 12.9383 10.4576 12.9383 9.5625V3.9375C12.9383 3.34076 12.7013 2.76847 12.2793 2.34651C11.8574 1.92455 11.2851 1.6875 10.6883 1.6875H9.56332" stroke="#25A268" stroke-linecap="round" stroke-linejoin="round"/>
<path d="M9.5625 12.9375H16.875C16.965 12.9375 17.0536 12.9159 17.1335 12.8746C17.2133 12.8332 17.2821 12.7732 17.334 12.6998C17.4425 12.161 17.4678 11.6089 17.409 11.0625C17.2539 10.6238 16.9665 10.2439 16.5865 9.97526C16.2066 9.70662 15.7526 9.56241 15.2873 9.5625H12.9375" stroke="#25A268" stroke-linecap="round" stroke-linejoin="round"/>
<path d="M15.1875 6.1875C15.1875 6.34419 15.1439 6.49779 15.0615 6.63109C14.9791 6.76438 14.8612 6.8721 14.7211 6.94217C14.5809 7.01225 14.424 7.04191 14.268 7.02784C14.1119 7.01377 13.9629 6.95652 13.8375 6.8625C13.5581 6.65292 13.3313 6.38115 13.175 6.06873C13.0188 5.75631 12.9375 5.4118 12.9375 5.0625C12.9375 4.7132 13.0188 4.36869 13.175 4.05627C13.3313 3.74384 13.5581 3.47208 13.8375 3.2625C13.9629 3.16848 14.1119 3.11123 14.268 3.09716C14.424 3.08309 14.5809 3.11275 14.7211 3.18283C14.8612 3.2529 14.9791 3.36062 15.0615 3.49391C15.1439 3.62721 15.1875 3.78081 15.1875 3.9375V6.1875Z" stroke="#25A268" stroke-linecap="round" stroke-linejoin="round"/>
<path d="M8.4375 6.1875H2.8125" stroke="#25A268" stroke-linecap="round" stroke-linejoin="round"/>
<path d="M7.3125 13.5C7.3125 14.2459 7.01618 14.9613 6.48874 15.4887C5.96129 16.0162 5.24592 16.3125 4.5 16.3125C3.75408 16.3125 3.03871 16.0162 2.51126 15.4887C1.98382 14.9613 1.6875 14.2459 1.6875 13.5V12.9375H7.3125V13.5Z" stroke="#25A268" stroke-linecap="round" stroke-linejoin="round"/>
<path d="M16.3125 13.5C16.3125 14.2459 16.0162 14.9613 15.4887 15.4887C14.9613 16.0162 14.2459 16.3125 13.5 16.3125C12.7541 16.3125 12.0387 16.0162 11.5113 15.4887C10.9838 14.9613 10.6875 14.2459 10.6875 13.5V12.9375H16.3125V13.5Z" stroke="#25A268" stroke-linecap="round" stroke-linejoin="round"/>
</svg>
