<svg width="18" height="18" viewBox="0 0 18 18" fill="none" xmlns="http://www.w3.org/2000/svg">
<path d="M4 1.5L4.61538 5.5L4.76923 6.5M5.23077 9.5L4.92308 7.5L4.76923 6.5M4.76923 6.5H8" stroke="#25A268" stroke-linecap="round" stroke-linejoin="round"/>
<path d="M13 9.50001V5.69232L11.3077 4H9.5" stroke="#25A268" stroke-linecap="round" stroke-linejoin="round"/>
<path d="M4.25 16.5C5.4926 16.5 6.5 15.4926 6.5 14.25C6.5 13.0074 5.4926 12 4.25 12C3.0074 12 2 13.0074 2 14.25C2 15.4926 3.0074 16.5 4.25 16.5Z" stroke="#25A268" stroke-linecap="round" stroke-linejoin="round"/>
<path d="M13.75 16.5C14.9926 16.5 16 15.4926 16 14.25C16 13.0074 14.9926 12 13.75 12C12.5074 12 11.5 13.0074 11.5 14.25C11.5 15.4926 12.5074 16.5 13.75 16.5Z" stroke="#25A268" stroke-linecap="round" stroke-linejoin="round"/>
<path d="M6.5 14H11.5" stroke="#25A268" stroke-linecap="round" stroke-linejoin="round"/>
<path d="M4 12L5 9.5H13L14 12" stroke="#25A268" stroke-linecap="round" stroke-linejoin="round"/>
</svg>
