<svg width="30" height="30" viewBox="0 0 30 30" fill="none" xmlns="http://www.w3.org/2000/svg">
<path d="M13.6661 1.6665C11.4247 1.6665 9.23364 2.33116 7.36998 3.57641C5.50632 4.82167 4.05378 6.5916 3.19603 8.66238C2.33828 10.7332 2.11386 13.0118 2.55113 15.2101C2.98841 17.4085 4.06775 19.4278 5.65266 21.0127C7.23757 22.5976 9.25687 23.6769 11.4552 24.1142C13.6535 24.5515 15.9322 24.3271 18.003 23.4693C20.0737 22.6116 21.8437 21.159 23.0889 19.2954C24.3342 17.4317 24.9988 15.2406 24.9988 12.9992C24.9986 9.99366 23.8046 7.11125 21.6793 4.98599C19.5541 2.86074 16.6717 1.6667 13.6661 1.6665V1.6665Z" stroke="#313131" stroke-width="3.0384" stroke-miterlimit="10"/>
<path d="M21.4259 21.5664L27.6671 27.8076" stroke="#313131" stroke-width="3.0384" stroke-miterlimit="10" stroke-linecap="round"/>
</svg>
