<svg width="40" height="40" viewBox="0 0 40 40" fill="none" xmlns="http://www.w3.org/2000/svg">
<circle cx="20" cy="20" r="20" fill="#01B537"/>
<path fill-rule="evenodd" clip-rule="evenodd" d="M11.8533 14.636H13.883C14.2836 16.11 15.8032 16.9801 17.2771 16.5795C18.2238 16.3222 18.9633 15.5827 19.2206 14.636H28.174C28.5837 14.636 28.9159 14.3039 28.9159 13.8942C28.9159 13.4845 28.5837 13.1523 28.174 13.1523H19.2206C18.82 11.6784 17.3004 10.8082 15.8264 11.2088C14.8798 11.4661 14.1403 12.2056 13.883 13.1523H11.8533C11.4435 13.1523 11.1114 13.4844 11.1114 13.8941C11.1114 14.3039 11.4435 14.636 11.8533 14.636ZM28.1739 19.2726H26.1442C25.7444 17.7989 24.2257 16.9282 22.7519 17.328C21.8045 17.585 21.0644 18.3251 20.8073 19.2726H11.8532C11.4435 19.2726 11.1113 19.6047 11.1113 20.0144C11.1113 20.4241 11.4435 20.7563 11.8532 20.7563H20.8073C21.2071 22.23 22.7259 23.1006 24.1996 22.7009C25.1471 22.4438 25.8872 21.7037 26.1442 20.7563H28.1739C28.5837 20.7563 28.9158 20.4241 28.9158 20.0144C28.9158 19.6047 28.5837 19.2726 28.1739 19.2726ZM19.2205 25.3929H28.1739C28.5837 25.3929 28.9158 25.725 28.9158 26.1347C28.9158 26.5444 28.5837 26.8766 28.1739 26.8766H19.2205C18.9632 27.8232 18.2237 28.5627 17.277 28.82C15.8031 29.2206 14.2835 28.3505 13.8829 26.8766H11.8532C11.4435 26.8766 11.1113 26.5444 11.1113 26.1347C11.1113 25.725 11.4435 25.3929 11.8532 25.3929H13.8829C14.1402 24.4462 14.8797 23.7067 15.8264 23.4494C17.3003 23.0488 18.8199 23.9189 19.2205 25.3929Z" fill="white"/>
</svg>
