<svg width="26" height="26" viewBox="0 0 26 26" fill="none" xmlns="http://www.w3.org/2000/svg">
<path d="M14.5643 8.28641C14.784 8.06858 15.0807 7.94599 15.3901 7.94513C15.6995 7.94428 15.9968 8.06524 16.2178 8.28185C16.4387 8.49847 16.5656 8.79334 16.5708 9.10271C16.5761 9.41209 16.4594 9.71111 16.246 9.93513L9.97773 17.7704C9.87 17.8865 9.73997 17.9796 9.59543 18.0442C9.45089 18.1089 9.2948 18.1437 9.13649 18.1466C8.97819 18.1495 8.82091 18.1205 8.67408 18.0613C8.52724 18.002 8.39386 17.9138 8.28191 17.8018L4.12873 13.6471C4.01302 13.5393 3.92022 13.4093 3.85586 13.2648C3.79149 13.1203 3.75688 12.9644 3.75409 12.8063C3.7513 12.6482 3.78039 12.4911 3.83962 12.3444C3.89885 12.1978 3.987 12.0646 4.09883 11.9528C4.21066 11.8409 4.34387 11.7528 4.4905 11.6936C4.63714 11.6343 4.79421 11.6052 4.95233 11.608C5.11046 11.6108 5.2664 11.6454 5.41086 11.7098C5.55531 11.7742 5.68533 11.867 5.79314 11.9827L9.08114 15.2691L14.5329 8.32096C14.5427 8.30884 14.5531 8.2973 14.5643 8.28641ZM13.1197 16.3572L14.5643 17.8018C14.6762 17.9136 14.8095 18.0016 14.9562 18.0607C15.1029 18.1198 15.26 18.1487 15.4181 18.1458C15.5762 18.1429 15.7321 18.1081 15.8765 18.0436C16.0209 17.9791 16.1508 17.8862 16.2585 17.7704L22.5268 9.93513C22.6394 9.82396 22.7284 9.69124 22.7886 9.54489C22.8488 9.39855 22.8788 9.24158 22.877 9.08335C22.8751 8.92513 22.8414 8.76891 22.7778 8.624C22.7143 8.4791 22.6222 8.34849 22.507 8.23998C22.3918 8.13147 22.256 8.04728 22.1076 7.99243C21.9592 7.93759 21.8012 7.91322 21.6431 7.92078C21.4851 7.92834 21.3302 7.96767 21.1877 8.03642C21.0452 8.10518 20.918 8.20195 20.8137 8.32096L15.3604 15.2691L14.5988 14.506L13.1181 16.3572H13.1197Z" fill="#01B537"/>
</svg>
