<svg width="61" height="61" viewBox="0 0 61 61" fill="none" xmlns="http://www.w3.org/2000/svg">
<rect width="60.288" height="60.288" rx="30.144" fill="#01B537"/>
<path fill-rule="evenodd" clip-rule="evenodd" d="M33.9118 37.4765L31.5807 30.4843L38.5741 23.4897L33.9118 37.4765ZM36.7982 21.7136L29.8048 28.707L22.8114 26.3759L36.7982 21.7136ZM42.6914 18.7743C42.6851 18.6575 42.6638 18.5445 42.6249 18.4352C42.6123 18.3963 42.5985 18.3586 42.5809 18.3209C42.5206 18.1865 42.444 18.0597 42.336 17.9516C42.228 17.8436 42.1011 17.767 41.9655 17.7067C41.929 17.6891 41.8926 17.6753 41.8537 17.6628C41.7419 17.6238 41.6276 17.6012 41.5083 17.5949C41.4806 17.5937 41.4555 17.5874 41.4266 17.5874C41.301 17.5899 41.1742 17.6075 41.0511 17.6477L18.4431 25.1837C17.9294 25.3558 17.584 25.8343 17.584 26.3756C17.584 26.917 17.9294 27.3968 18.4431 27.5676L29.1505 31.1371L32.7213 41.8458C32.8921 42.3582 33.3706 42.7036 33.912 42.7036C34.4533 42.7036 34.9319 42.3582 35.1027 41.8458L42.6387 19.2378C42.6789 19.1134 42.6977 18.9878 42.699 18.8622C42.7002 18.8321 42.6927 18.8045 42.6914 18.7743Z" fill="#231F20"/>
<mask id="mask0_202_797" style="mask-type:alpha" maskUnits="userSpaceOnUse" x="17" y="17" width="26" height="26">
<path fill-rule="evenodd" clip-rule="evenodd" d="M33.9118 37.4765L31.5807 30.4843L38.5741 23.4897L33.9118 37.4765ZM36.7982 21.7136L29.8048 28.707L22.8114 26.3759L36.7982 21.7136ZM42.6914 18.7743C42.6851 18.6575 42.6638 18.5445 42.6249 18.4352C42.6123 18.3963 42.5985 18.3586 42.5809 18.3209C42.5206 18.1865 42.444 18.0597 42.336 17.9516C42.228 17.8436 42.1011 17.767 41.9655 17.7067C41.929 17.6891 41.8926 17.6753 41.8537 17.6628C41.7419 17.6238 41.6276 17.6012 41.5083 17.5949C41.4806 17.5937 41.4555 17.5874 41.4266 17.5874C41.301 17.5899 41.1742 17.6075 41.0511 17.6477L18.4431 25.1837C17.9294 25.3558 17.584 25.8343 17.584 26.3756C17.584 26.917 17.9294 27.3968 18.4431 27.5676L29.1505 31.1371L32.7213 41.8458C32.8921 42.3582 33.3706 42.7036 33.912 42.7036C34.4533 42.7036 34.9319 42.3582 35.1027 41.8458L42.6387 19.2378C42.6789 19.1134 42.6977 18.9878 42.699 18.8622C42.7002 18.8321 42.6927 18.8045 42.6914 18.7743Z" fill="white"/>
</mask>
<g mask="url(#mask0_202_797)">
<rect x="15.0718" y="15.0718" width="30.144" height="30.144" fill="white"/>
</g>
</svg>
