<svg width="14" height="12" viewBox="0 0 14 12" fill="none" xmlns="http://www.w3.org/2000/svg">
<path d="M11.0809 1.21921C11.3006 1.00138 11.5973 0.878788 11.9067 0.877934C12.2161 0.87708 12.5134 0.998036 12.7344 1.21465C12.9553 1.43127 13.0822 1.72614 13.0874 2.03551C13.0927 2.34489 12.976 2.64391 12.7626 2.86793L6.49433 10.7032C6.3866 10.8193 6.25657 10.9124 6.11203 10.977C5.96749 11.0417 5.8114 11.0765 5.65309 11.0794C5.49479 11.0823 5.33751 11.0533 5.19068 10.9941C5.04384 10.9348 4.91046 10.8466 4.79851 10.7346L0.645328 6.57988C0.529625 6.47207 0.436822 6.34206 0.372457 6.1976C0.308091 6.05314 0.273481 5.8972 0.270691 5.73908C0.267901 5.58095 0.296989 5.42389 0.356218 5.27725C0.415448 5.13061 0.503606 4.9974 0.615434 4.88558C0.727262 4.77375 0.860468 4.68559 1.00711 4.62636C1.15374 4.56713 1.31081 4.53804 1.46893 4.54083C1.62706 4.54362 1.783 4.57823 1.92746 4.6426C2.07191 4.70696 2.20193 4.79977 2.30974 4.91547L5.59774 8.2019L11.0495 1.25376C11.0593 1.24164 11.0697 1.2301 11.0809 1.21921Z" fill="#727272"/>
</svg>
