<svg width="21" height="21" viewBox="0 0 21 21" fill="none" xmlns="http://www.w3.org/2000/svg">
<path d="M16.9171 12.8332C16.2552 12.8334 15.6032 12.9946 15.0175 13.303C14.4318 13.6114 13.9298 14.0576 13.555 14.6033L7.86851 12.0353C8.2673 11.0559 8.27043 9.9599 7.87726 8.97823L13.5585 6.39801C14.1125 7.20186 14.9363 7.78049 15.8803 8.02891C16.8244 8.27734 17.8262 8.17911 18.7041 7.75205C19.5819 7.32498 20.2776 6.59737 20.665 5.70122C21.0523 4.80507 21.1056 3.79974 20.8153 2.86763C20.5249 1.93551 19.9101 1.13836 19.0824 0.620784C18.2547 0.103208 17.2689 -0.1005 16.3038 0.0466152C15.3388 0.19373 14.4585 0.681923 13.8225 1.42263C13.1866 2.16333 12.8371 3.10747 12.8377 4.08377C12.8376 4.316 12.8573 4.54781 12.8963 4.77673L6.86768 7.51357C6.28651 6.97148 5.55979 6.61079 4.77664 6.47575C3.99349 6.34071 3.18796 6.43718 2.45883 6.75333C1.7297 7.06948 1.10868 7.59157 0.671912 8.25557C0.235149 8.91956 0.00163538 9.69661 8.55846e-06 10.4914C-0.00161827 11.2862 0.228712 12.0642 0.662754 12.73C1.0968 13.3957 1.71568 13.9204 2.44351 14.2395C3.17133 14.5586 3.97646 14.6584 4.76016 14.5266C5.54386 14.3947 6.27205 14.037 6.85543 13.4973L12.8919 16.2245C12.75 17.0497 12.8652 17.8985 13.2217 18.6559C13.5783 19.4134 14.1591 20.043 14.8854 20.4593C15.6117 20.8757 16.4484 21.0587 17.2822 20.9835C18.1159 20.9084 18.9064 20.5787 19.5466 20.0393C20.1868 19.4998 20.6457 18.7765 20.8611 17.9675C21.0766 17.1585 21.0382 16.3028 20.7511 15.5163C20.464 14.7298 19.9421 14.0506 19.2562 13.5707C18.5702 13.0908 17.7533 12.8333 16.9162 12.8332H16.9171Z" fill="#B8B8B8"/>
</svg>
