<svg width="18" height="18" viewBox="0 0 18 18" fill="none" xmlns="http://www.w3.org/2000/svg">
<path d="M17.4375 10.6875H3.9375V9C3.9375 8.55245 3.75971 8.12323 3.44324 7.80676C3.12677 7.49029 2.69755 7.3125 2.25 7.3125C1.80245 7.3125 1.37322 7.49029 1.05676 7.80676C0.74029 8.12323 0.5625 8.55245 0.5625 9V12.9375C0.5625 13.2359 0.681026 13.522 0.892005 13.733C1.10298 13.944 1.38913 14.0625 1.6875 14.0625H16.3125C16.6109 14.0625 16.897 13.944 17.108 13.733C17.319 13.522 17.4375 13.2359 17.4375 12.9375V10.6875Z" stroke="#25A268" stroke-linecap="round" stroke-linejoin="round"/>
<path d="M2.8125 14.0625V15.1875" stroke="#25A268" stroke-linecap="round" stroke-linejoin="round"/>
<path d="M15.1875 14.0625V15.1875" stroke="#25A268" stroke-linecap="round" stroke-linejoin="round"/>
<path d="M17.4375 10.6877C17.4375 4.31717 9.003 7.95617 8.331 5.34392C8.12616 4.54795 7.63789 3.85408 6.95783 3.39251C6.27776 2.93095 5.45264 2.73341 4.63728 2.83696C3.82192 2.94051 3.07237 3.33804 2.52927 3.95496C1.98618 4.57187 1.68687 5.36576 1.6875 6.18767V7.40942" stroke="#25A268" stroke-linecap="round" stroke-linejoin="round"/>
</svg>
