<svg width="20" height="20" viewBox="0 0 20 20" fill="none" xmlns="http://www.w3.org/2000/svg">
<path d="M3.16724 17.871V15.742L2.40197 14.9251C0.830681 13.2477 0.121146 11.5581 0.0162211 9.24416C-0.0589337 7.58664 0.112659 6.76435 0.835371 5.31873C1.75215 3.48492 3.21829 2.11803 5.30999 1.14699C6.77072 0.468868 7.60595 0.23513 9.18527 0.0624968C11.692 -0.211507 14.0348 0.41537 16.2211 1.94512C17.8433 3.08014 19.2181 4.94689 19.7732 6.76812C20.0985 7.83529 20.0702 9.85196 19.7123 11.1108C18.7001 14.6712 15.7222 17.1119 11.7907 17.6035C11.0176 17.7001 10.2201 17.7082 9.16781 17.6301L7.65575 17.5178L5.7482 18.5839C4.69906 19.1702 3.68915 19.7287 3.50396 19.825L3.16724 20V17.871ZM6.02174 9.6301C7.01796 8.60436 5.59208 7.05319 4.46026 7.93142C4.00257 8.28655 3.86247 8.69994 4.03003 9.2008C4.20626 9.72752 4.57132 9.96886 5.19188 9.96886C5.58079 9.96886 5.76625 9.89315 6.02174 9.6301ZM10.643 9.84449C10.9259 9.69515 11.2485 9.11469 11.2485 8.75496C11.2485 8.61215 11.0541 8.30356 10.8165 8.0692C10.4232 7.68122 10.3383 7.64921 9.86775 7.71146C9.21518 7.7978 8.79961 8.23588 8.79961 8.83745C8.79961 9.68202 9.85681 10.2596 10.643 9.84449ZM15.6658 9.6158C16.2458 9.04368 16.128 8.22064 15.414 7.85641C14.8439 7.5656 14.454 7.62815 13.9912 8.08465C13.5342 8.53543 13.48 8.83365 13.7585 9.36494C13.9942 9.81445 14.2574 9.96062 14.8393 9.96518C15.1969 9.96792 15.3927 9.88525 15.6658 9.6158Z" fill="#C4C4C4"/>
</svg>
