<svg width="28" height="32" viewBox="0 0 28 32" fill="none" xmlns="http://www.w3.org/2000/svg">
<path d="M26.2482 12.8769C26.0505 6.13132 20.5729 0.705292 13.8672 0.705292C7.16163 0.705292 1.68399 6.13132 1.48621 12.8769L0.595337 13.7794V19.9001L1.48013 20.7965V24.9668C1.48013 27.4051 3.43824 29.3888 5.84511 29.3888H6.94108C7.30632 30.4321 8.2898 31.1815 9.44327 31.1815H11.2129C12.3671 31.1815 13.3511 30.431 13.7158 29.3866C13.7663 29.3875 13.817 29.3888 13.8672 29.3888C18.1401 29.3888 21.7152 26.3044 22.5373 22.2179H24.8512L27.1391 19.9001V13.7794L26.2482 12.8769ZM13.8672 2.49801C19.1188 2.49801 23.4915 6.38098 24.3365 11.4616H22.5373C21.7152 7.37516 18.1401 4.29073 13.8672 4.29073C9.5944 4.29073 6.01924 7.37516 5.19721 11.4616H3.39801C4.24299 6.38098 8.61564 2.49801 13.8672 2.49801ZM20.7216 11.4616C17.8614 11.4529 15.8412 11.6294 14.1755 9.16274L13.3667 7.96503L12.6716 9.23391C11.6588 11.0827 10.2949 11.4616 8.55848 11.4616H7.01286C7.80062 8.37227 10.575 6.08345 13.8672 6.08345C17.1594 6.08345 19.9339 8.37227 20.7216 11.4616ZM5.01931 20.4252H3.6162L2.36492 19.1576V14.522L3.6162 13.2543H5.01931V20.4252ZM3.24972 24.9668V22.2179H5.1955C5.52859 23.8896 6.32556 25.4241 7.50622 26.6566C7.25872 26.9245 7.06459 27.2433 6.94108 27.5961H5.84511C4.41399 27.5961 3.24972 26.4166 3.24972 24.9668ZM11.2129 29.3888H9.44327C8.95534 29.3888 8.55848 28.9868 8.55848 28.4924C8.55848 27.9982 8.95534 27.5961 9.44327 27.5961H11.2129C11.7007 27.5961 12.0977 27.9982 12.0977 28.4924C12.0977 28.9868 11.7007 29.3888 11.2129 29.3888ZM20.9456 20.4252C20.9456 24.3792 17.7702 27.5961 13.8672 27.5961C13.8165 27.5961 13.7654 27.5951 13.7143 27.5939C13.3485 26.5517 12.3655 25.8034 11.2129 25.8034C9.39608 25.8074 9.42505 25.7942 9.1986 25.8153C7.66248 24.4512 6.78889 22.5084 6.78889 20.4252V13.2543H8.55848C10.1244 13.2543 12.0314 12.9928 13.5076 11.1727C15.4553 13.2405 17.8355 13.2543 19.9722 13.2543H20.9456V20.4252ZM25.3696 19.1576L24.1183 20.4252H22.7152V13.2543H24.1183L25.3696 14.522V19.1576Z" fill="#01B537"/>
</svg>
