<svg width="85" height="86" viewBox="0 0 85 86" fill="none" xmlns="http://www.w3.org/2000/svg">
<path d="M32.5523 85.8342C24.351 85.102 16.7802 81.6266 10.9375 75.9118C2.71067 67.8651 -1.13607 56.8523 0.292355 45.4359C0.51679 43.6421 0.778452 43.1954 1.60462 43.1954C2.53294 43.1954 3.00109 43.7523 2.86524 44.6949C1.80702 52.0382 2.83311 58.5632 6.06823 65.0627C10.9254 74.8212 19.6996 81.2467 30.6898 83.0935C33.099 83.4984 38.0551 83.501 40.4454 83.0986C46.5531 82.0705 51.9575 79.6447 56.5242 75.8817C58.3085 74.4114 61.2302 71.2609 62.5737 69.3584C64.1099 67.183 66.1847 63.0206 67.0098 60.4588C70.3899 49.964 68.5434 38.697 62.003 29.909C60.4398 27.8086 58.0985 25.3571 56.1772 23.8088L54.881 22.7643L53.5081 23.8834C52.753 24.4989 51.9496 25.1264 51.7229 25.278C51.3113 25.553 51.313 25.5553 52.6925 26.6045C58.7274 31.1945 62.7131 37.7631 63.9665 45.1844C64.2915 47.1089 64.3295 47.8771 64.2494 50.9027C64.173 53.7886 64.0794 54.726 63.7125 56.28C61.502 65.6428 55.4512 73.0154 46.9314 76.7272C43.2687 78.3229 39.6481 79.0448 35.3283 79.0409C32.187 79.0378 31.6978 78.9189 31.4081 78.0865C31.2775 77.7111 31.3006 77.4644 31.5002 77.1045L31.7668 76.6238L35.574 76.5189C40.595 76.3806 43.2428 75.7828 47.0316 73.9323C50.4759 72.25 54.331 69.0698 56.567 66.0664C60.0576 61.3775 61.8367 55.963 61.8307 50.0466C61.8284 47.7479 61.5658 44.9958 61.3008 44.4927C61.0943 44.1008 58.175 45.9913 56.6613 47.4972C55.6367 48.5165 55.2392 49.055 55.017 49.7248C54.6393 50.8634 54.6367 53.1707 55.0103 55.692C55.4338 58.5502 55.0661 60.1967 53.4757 62.5633C50.2793 67.3197 45.1046 69.1902 42.7236 66.4499C41.4424 64.9753 41.0675 62.7072 41.0667 56.4274C41.066 50.4384 40.7302 48.3934 39.7473 48.3934C39.5147 48.3934 38.2596 48.5541 36.9582 48.7507C34.1945 49.168 31.4312 49.2101 30.1109 48.8549C27.5099 48.1552 25.8032 46.0981 25.1537 42.8799C24.5849 40.0609 25.6336 37.122 28.1135 34.5854L29.5001 33.1672L28.8534 33.0601C25.8746 32.5669 23.0099 31.533 20.6486 30.0989L19.2049 29.2221L18.727 29.566C17.757 30.2639 14.8709 33.4848 13.8176 35.0447C13.2203 35.9293 12.4033 37.3145 12.002 38.1229L11.2723 39.5927L11.9452 40.6323C12.3153 41.204 13.1673 42.6972 13.8384 43.9504C14.5095 45.2035 15.2391 46.4255 15.4597 46.6659C15.7043 46.9325 16.5175 47.324 17.5452 47.67C20.4474 48.6471 21.5524 49.7249 21.5542 51.5805C21.5553 52.7887 21.1513 53.9852 19.6259 57.2911C17.8264 61.1908 17.8534 60.9769 18.8874 63.1561C20.0454 65.5965 20.3693 66.9861 20.3921 69.6113L20.4105 71.7401L21.2031 72.2999C21.639 72.6078 22.9541 73.3444 24.1256 73.9368C26.2283 75.0001 26.2562 75.0223 26.3099 75.6742C26.3743 76.4546 25.8823 77.0719 25.1959 77.0719C24.9545 77.0719 23.7373 76.5493 22.4909 75.9106C14.4505 71.7905 8.70564 63.9075 7.18259 54.9049C6.70498 52.0817 6.70498 47.9313 7.18259 45.1082C8.19102 39.1474 11.172 33.4164 15.4624 29.1902L17.0339 27.6422L15.1893 25.8795C14.1748 24.9101 12.6374 23.2416 11.7728 22.1717C8.94178 18.6686 5.41407 12.8913 5.41407 11.7581C5.41407 11.1631 6.1954 10.408 9.06863 8.22612C11.4209 6.43988 14.8991 4.29994 17.3038 3.15955C24.2172 -0.119004 30.6884 -0.858895 36.1912 1.00004C38.8457 1.89677 42.1729 3.81623 44.1481 5.59039C45.1209 6.46421 45.2741 7.11804 44.6531 7.74559C44.0898 8.31477 43.4724 8.19665 42.3471 7.30448C38.8463 4.52898 35.0729 2.863 31.63 2.57285C30.4199 2.47087 30.2145 2.49168 30.3381 2.70374C30.419 2.84242 32.8318 6.1942 35.7 10.1521L40.9148 17.3484L46.5083 18.4525C49.5847 19.0597 52.1298 19.5282 52.1641 19.4936C52.2746 19.3819 50.0067 15.8347 48.7106 14.0921C47.3626 12.2797 47.1954 11.7287 47.8064 11.1113C48.4231 10.4881 49.1005 10.6446 49.9401 11.6042C50.8547 12.6498 53.7433 17.0154 54.6679 18.7496C55.2498 19.8409 55.5649 20.1891 56.854 21.1652C57.6824 21.7924 59.1893 23.1141 60.2027 24.1021L62.0453 25.8987L61.9125 25.1817C61.2213 21.4473 61.3866 18.2022 62.4139 15.3422C64.299 10.0942 70.0276 5.54399 77.898 3.04321C79.5143 2.52962 79.7489 2.49591 80.1922 2.71351C80.8152 3.01926 81.7357 4.71456 82.9029 7.70576C85.3741 14.0385 85.6672 19.6925 83.7509 24.0649C81.7937 28.5306 76.6966 32.6196 70.1555 34.9714C69.1312 35.3397 68.311 35.7074 68.3329 35.7886C68.3547 35.8697 68.7354 36.9742 69.1787 38.243C73.2456 49.8827 70.9036 63.1844 63.0911 72.8181C62.513 73.5311 61.2496 74.8877 60.2836 75.833C54.321 81.6672 46.7739 85.1238 38.4056 85.8531C36.1019 86.0538 34.9719 86.0502 32.5523 85.8342V85.8342ZM17.842 68.1171C17.5868 66.3535 17.1406 65.0055 16.323 63.5281C15.8076 62.5968 15.7018 62.2243 15.7018 61.3424C15.7018 60.0343 16.0179 59.0988 17.6409 55.6043C19.1168 52.4266 19.3658 51.3104 18.7034 50.8415C18.4768 50.6812 17.5532 50.3014 16.6508 49.9976C15.7485 49.6938 14.7487 49.2672 14.429 49.0495C13.595 48.4816 12.7601 47.2884 11.448 44.7894L10.2984 42.5997L10.0684 43.3905C9.94198 43.8254 9.71133 44.9834 9.55591 45.9638C9.20174 48.198 9.31203 53.167 9.76102 55.2045C10.8801 60.2831 13.1347 64.6941 16.3645 68.1238C17.1979 69.0087 17.9182 69.6938 17.9652 69.6463C18.0123 69.5988 17.9568 68.9107 17.842 68.1171ZM47.6451 64.668C49.0761 63.9455 51.0617 61.9624 51.8263 60.4921C52.768 58.6814 52.8446 58.1356 52.4999 55.693C52.3004 54.2798 52.2234 52.8701 52.2735 51.5482C52.3404 49.7834 52.4134 49.4068 52.8875 48.3831C53.8338 46.3395 55.7779 44.5537 59.2993 42.4933C60.7722 41.6315 60.7382 41.8389 59.7804 39.5623C58.418 36.3244 56.4082 33.4283 53.7136 30.8205C52.0488 29.2093 49.4881 27.243 49.0548 27.243C48.944 27.243 48.1895 27.6467 47.3781 28.1402C43.8638 30.2776 39.303 32.0938 35.9224 32.7022C34.9956 32.869 34.1482 33.06 34.0393 33.1265C31.2774 34.8144 28.9734 37.0208 28.0993 38.815C27.5798 39.8814 27.5018 40.2194 27.5018 41.403C27.5018 42.5795 27.5809 42.9267 28.0839 43.9593C28.7357 45.2972 29.5561 46.0841 30.6417 46.4128C31.7034 46.7343 34.0801 46.6715 36.753 46.2515C40.407 45.6773 41.2914 45.7969 42.1775 46.9852C43.2357 48.4042 43.5494 50.5771 43.5494 56.4863C43.5494 62.0407 43.8731 64.3561 44.742 65.0179C45.2695 65.4196 46.4344 65.2792 47.6451 64.668ZM72.2153 31.3779C77.8024 28.6638 81.1104 25.2326 82.1423 21.0813C82.3064 20.4212 82.4004 19.8405 82.3511 19.7907C82.234 19.6724 73.1408 23.4477 72.8894 23.719C72.7834 23.8334 72.2512 25.0159 71.7067 26.3468C71.1621 27.6776 70.3524 29.642 69.9072 30.712L69.0978 32.6574L69.5823 32.5395C69.8488 32.4747 71.0336 31.952 72.2153 31.3779ZM68.6424 27.3027L70.3533 23.1503L68.3979 18.3616C67.3224 15.7279 66.3991 13.5291 66.3461 13.4755C66.0765 13.2031 64.8135 15.6955 64.3549 17.4049C63.9267 19.0013 63.9351 22.8504 64.3713 24.9129C64.9494 27.6458 66.4913 31.9208 66.7864 31.6086C66.8662 31.5242 67.7014 29.5865 68.6424 27.3027H68.6424ZM34.7694 30.3824C39.5458 29.5903 44.8526 27.1609 49.9925 23.4134C51.403 22.385 51.6734 22.1178 51.4115 22.0115C51.0534 21.8662 40.9402 19.891 40.5642 19.8929C40.4344 19.8936 37.255 22.1685 33.4988 24.9482C27.4887 29.396 26.7176 30.0203 27.0707 30.1523C28.4531 30.6691 32.3402 30.7852 34.7694 30.3824ZM30.4751 24.079C33.9665 21.4921 36.8237 19.3116 36.8244 19.2335C36.8259 19.0606 27.4826 17.1911 26.9211 17.252C26.7018 17.2757 24.3987 18.868 21.8031 20.7903L17.0838 24.2855L17.9448 25.053C19.8901 26.7871 23.5485 29.1395 23.9319 28.9029C24.0392 28.8367 26.9836 26.6659 30.4751 24.079ZM19.4424 19.4354C21.5626 17.8639 23.2589 16.539 23.2121 16.4911C23.1151 16.392 9.09083 13.6096 9.02474 13.6763C8.94697 13.7549 10.9455 16.9082 11.9431 18.281C13.5034 20.428 15.197 22.4241 15.4002 22.3557C15.5032 22.321 17.3222 21.0069 19.4424 19.4354ZM78.6695 18.4857L82.483 16.8938L82.4263 15.9294C82.3065 13.892 81.054 9.25068 80.1361 7.44273L79.8099 6.80021L77.9713 11.2411C74.1608 20.4444 74.2236 20.2805 74.5505 20.1756C74.7185 20.1217 76.5721 19.3613 78.6695 18.4857ZM74.6674 12.7442C76.1908 9.05824 77.3981 6.00285 77.3503 5.95447C77.2298 5.8327 75.5185 6.53631 73.6232 7.48688C71.7886 8.40701 69.9821 9.57586 68.9133 10.5343L68.1664 11.2042L69.899 15.4665C70.852 17.8108 71.6914 19.6652 71.7645 19.5874C71.8376 19.5097 73.1439 16.4302 74.6674 12.7442ZM37.0415 16.2688C36.9464 16.1432 34.688 13.0286 32.0228 9.34747L27.1772 2.6545L26.3616 2.77015C24.232 3.07214 20.2444 4.3975 20.3812 4.75785C20.4431 4.92086 27.1672 14.2765 27.4989 14.661C27.5786 14.7535 37.0709 16.618 37.1449 16.5557C37.1832 16.5236 37.1367 16.3944 37.0415 16.2688ZM23.4682 13.3863C21.9062 11.1022 17.9153 5.73412 17.7793 5.73412C17.0923 5.73412 9.65091 10.6057 9.6529 11.0541C9.65328 11.1681 22.6502 13.8653 23.6456 13.9579C23.7898 13.9714 23.7246 13.7611 23.4682 13.3863Z" fill="white"/>
</svg>
