<svg width="18" height="23" viewBox="0 0 18 23" fill="none" xmlns="http://www.w3.org/2000/svg">
<path d="M13 0.2875C13.7058 0.519395 14.348 0.900664 14.879 1.403L16.535 2.99192C17.0598 3.50011 17.458 4.11533 17.7 4.79167H13V0.2875ZM11 11.5H7C6.73478 11.5 6.48043 11.601 6.29289 11.7807C6.10536 11.9604 6 12.2042 6 12.4583C6 12.7125 6.10536 12.9563 6.29289 13.136C6.48043 13.3157 6.73478 13.4167 7 13.4167H11C11.2652 13.4167 11.5196 13.3157 11.7071 13.136C11.8946 12.9563 12 12.7125 12 12.4583C12 12.2042 11.8946 11.9604 11.7071 11.7807C11.5196 11.601 11.2652 11.5 11 11.5ZM13 6.70833C12.4696 6.70833 11.9609 6.5064 11.5858 6.14695C11.2107 5.78751 11 5.3 11 4.79167V0H5C3.6744 0.0015217 2.40356 0.506845 1.46622 1.40513C0.528882 2.30341 0.00158786 3.5213 0 4.79167V18.2083C0.00158786 19.4787 0.528882 20.6966 1.46622 21.5949C2.40356 22.4932 3.6744 22.9985 5 23H13C14.3256 22.9985 15.5964 22.4932 16.5338 21.5949C17.4711 20.6966 17.9984 19.4787 18 18.2083V6.70833H13ZM13 19.1667H5C4.73478 19.1667 4.48043 19.0657 4.29289 18.886C4.10536 18.7063 4 18.4625 4 18.2083C4 17.9542 4.10536 17.7104 4.29289 17.5307C4.48043 17.351 4.73478 17.25 5 17.25H13C13.2652 17.25 13.5196 17.351 13.7071 17.5307C13.8946 17.7104 14 17.9542 14 18.2083C14 18.4625 13.8946 18.7063 13.7071 18.886C13.5196 19.0657 13.2652 19.1667 13 19.1667ZM11 15.3333H7C6.20435 15.3333 5.44129 15.0304 4.87868 14.4913C4.31607 13.9521 4 13.2208 4 12.4583C4 11.6958 4.31607 10.9646 4.87868 10.4254C5.44129 9.88623 6.20435 9.58333 7 9.58333H11C11.7956 9.58333 12.5587 9.88623 13.1213 10.4254C13.6839 10.9646 14 11.6958 14 12.4583C14 13.2208 13.6839 13.9521 13.1213 14.4913C12.5587 15.0304 11.7956 15.3333 11 15.3333V15.3333Z" fill="#B8B8B8"/>
</svg>
