<svg width="24" height="25" viewBox="0 0 24 25" fill="none" xmlns="http://www.w3.org/2000/svg">
<path d="M18.0383 23.7422L16.0258 22.4844L14.1908 22.475C12.8521 22.4681 12.1316 22.4068 11.527 22.2483C10.3815 21.948 8.71963 21.0883 7.77993 20.3099L6.99251 19.6577L9.20058 19.582C12.3882 19.4728 14.0435 19.0395 16.1285 17.7687C18.3023 16.4438 19.896 14.3262 20.5929 11.8367C20.7763 11.1818 20.8658 10.4204 20.9215 9.04189L20.998 7.14726L21.7675 8.01192C23.2472 9.6745 23.8832 11.1828 23.9853 13.2711C24.0579 14.7572 23.8717 15.6517 23.1929 17.0782C22.6311 18.2585 21.784 19.3378 20.8308 20.0876L20.1281 20.6403L20.0895 22.8202L20.051 25L18.0383 23.7422ZM3.06234 18.1744V16.0092L2.32242 15.1784C0.803168 13.4726 0.117134 11.7544 0.0156838 9.4011C-0.0569818 7.71544 0.108928 6.87919 0.807704 5.40903C1.69412 3.54409 3.1117 2.15399 5.13412 1.16646C6.54647 0.476828 7.35403 0.239122 8.88105 0.0635578C11.3047 -0.215098 13.5699 0.422422 15.6838 1.97815C17.2523 3.13243 18.5816 5.03087 19.1183 6.88302C19.4328 7.96831 19.4054 10.0192 19.0594 11.2995C18.0807 14.9203 15.2015 17.4024 11.4002 17.9023C10.6527 18.0006 9.88164 18.0089 8.86417 17.9294L7.40219 17.8152L5.55782 18.8994C4.54343 19.4957 3.56697 20.0637 3.38791 20.1616L3.06234 20.3395V18.1744ZM5.82229 9.79359C6.78552 8.75044 5.40687 7.17293 4.31253 8.06607C3.87 8.42723 3.73454 8.84764 3.89656 9.357C4.06695 9.89267 4.41992 10.1381 5.01992 10.1381C5.39595 10.1381 5.57527 10.0611 5.82229 9.79359ZM10.2905 10.0116C10.564 9.85975 10.8759 9.26943 10.8759 8.90359C10.8759 8.75836 10.688 8.44453 10.4582 8.20619C10.078 7.81163 9.99587 7.77907 9.54093 7.84238C8.90997 7.93019 8.50816 8.3757 8.50816 8.98748C8.50816 9.84639 9.53035 10.4337 10.2905 10.0116ZM15.147 9.77905C15.7077 9.19721 15.5938 8.3602 14.9034 7.98979C14.3522 7.69404 13.9752 7.75765 13.5278 8.2219C13.0859 8.68033 13.0335 8.98362 13.3028 9.52393C13.5307 9.98107 13.7852 10.1297 14.3478 10.1344C14.6936 10.1371 14.8829 10.0531 15.147 9.77905Z" fill="#C4C4C4"/>
</svg>
