<svg width="24" height="27" viewBox="0 0 24 27" fill="none" xmlns="http://www.w3.org/2000/svg">
<path d="M12.1611 23.4586L18.305 17.3147C19.52 16.0995 20.3474 14.5514 20.6826 12.866C21.0178 11.1807 20.8456 9.43377 20.188 7.84623C19.5304 6.25868 18.4168 4.90179 16.988 3.94713C15.5592 2.99248 13.8794 2.48293 12.1611 2.48293C10.4427 2.48293 8.76291 2.99248 7.33412 3.94713C5.90534 4.90179 4.79173 6.25868 4.13409 7.84623C3.47646 9.43377 3.30435 11.1807 3.63952 12.866C3.9747 14.5514 4.8021 16.0995 6.01711 17.3147L12.1611 23.4586ZM12.1611 26.9687L4.26205 19.0697C2.69979 17.5075 1.63589 15.517 1.20487 13.3501C0.773856 11.1832 0.995084 8.93709 1.84058 6.8959C2.68608 4.8547 4.11787 3.11007 5.9549 1.88261C7.79192 0.655153 9.95168 0 12.1611 0C14.3704 0 16.5302 0.655153 18.3672 1.88261C20.2042 3.11007 21.636 4.8547 22.4815 6.8959C23.327 8.93709 23.5483 11.1832 23.1172 13.3501C22.6862 15.517 21.6223 17.5075 20.0601 19.0697L12.1611 26.9687ZM12.1611 13.6531C12.8194 13.6531 13.4508 13.3916 13.9164 12.926C14.3819 12.4605 14.6435 11.8291 14.6435 11.1707C14.6435 10.5123 14.3819 9.88093 13.9164 9.41539C13.4508 8.94985 12.8194 8.68831 12.1611 8.68831C11.5027 8.68831 10.8713 8.94985 10.4057 9.41539C9.94019 9.88093 9.67865 10.5123 9.67865 11.1707C9.67865 11.8291 9.94019 12.4605 10.4057 12.926C10.8713 13.3916 11.5027 13.6531 12.1611 13.6531ZM12.1611 16.1355C10.8443 16.1355 9.58149 15.6124 8.6504 14.6814C7.71932 13.7503 7.19625 12.4875 7.19625 11.1707C7.19625 9.85397 7.71932 8.59115 8.6504 7.66007C9.58149 6.72899 10.8443 6.20591 12.1611 6.20591C13.4778 6.20591 14.7406 6.72899 15.6717 7.66007C16.6028 8.59115 17.1259 9.85397 17.1259 11.1707C17.1259 12.4875 16.6028 13.7503 15.6717 14.6814C14.7406 15.6124 13.4778 16.1355 12.1611 16.1355Z" fill="#01B537"/>
</svg>
