<svg width="35" height="46" viewBox="0 0 35 46" fill="none" xmlns="http://www.w3.org/2000/svg">
<path d="M16.1175 44.6614C3.15961 26.0899 0.754395 24.1838 0.754395 17.3585C0.754395 8.00929 8.4205 0.430298 17.8772 0.430298C27.3339 0.430298 35 8.00929 35 17.3585C35 24.1838 32.5948 26.0899 19.6369 44.6614C18.7866 45.8758 16.9677 45.8758 16.1175 44.6614ZM17.8772 24.4119C21.8175 24.4119 25.0117 21.254 25.0117 17.3585C25.0117 13.463 21.8175 10.3051 17.8772 10.3051C13.9369 10.3051 10.7427 13.463 10.7427 17.3585C10.7427 21.254 13.9369 24.4119 17.8772 24.4119Z" fill="#FC4C00"/>
<circle cx="17.8773" cy="17.5531" r="9.33971" fill="white"/>
</svg>
