<svg width="44" height="20" viewBox="0 0 44 20" fill="none" xmlns="http://www.w3.org/2000/svg">
<path d="M37.9773 19.6736C39.2364 19.1988 40.1569 17.8478 40.1569 16.4748C40.1569 16.3168 40.0692 15.8921 39.9622 15.5308C39.7155 14.6989 39.1343 14.0007 38.3498 13.5941C37.8709 13.3458 37.6641 13.2998 37.0086 13.2955C36.0839 13.2897 35.3723 13.5823 34.7588 14.2213C33.9015 15.1144 33.6229 16.5132 34.0605 17.7274C34.3512 18.5338 35.0676 19.2852 35.8286 19.5818C36.442 19.8209 37.4703 19.8648 37.9773 19.6736ZM36.3809 17.806C36.1955 17.7089 35.941 17.4706 35.8153 17.2764C35.4129 16.6544 35.6601 15.6692 36.3145 15.287C36.4299 15.2196 36.7538 15.1628 37.0343 15.1608C37.479 15.1573 37.5891 15.2 37.8944 15.4915C38.1918 15.7754 38.2519 15.9069 38.2942 16.3651C38.3558 17.0328 38.1619 17.4571 37.6553 17.7631C37.2204 18.0257 36.8261 18.039 36.3809 17.806ZM9.37539 19.6464C9.93854 19.4309 10.5784 18.9273 10.8916 18.4531C12.0127 16.7557 11.4374 14.481 9.65672 13.57C8.91961 13.1929 7.81663 13.1761 7.05641 13.5304C6.37115 13.8497 5.66339 14.6471 5.3863 15.4121C4.78868 17.0619 5.61501 18.9814 7.18644 19.5939C7.80235 19.834 8.82128 19.8584 9.37539 19.6463V19.6464ZM7.74257 17.8189C7.04766 17.4754 6.7756 16.6647 7.11216 15.9404C7.37072 15.3841 7.73953 15.1573 8.38582 15.1573C8.84053 15.1573 8.92686 15.1949 9.25245 15.5357C9.72553 16.0308 9.81802 16.5083 9.55894 17.1184C9.24271 17.8631 8.45021 18.1687 7.74257 17.8189ZM41.9497 17.7455C42.8031 17.3315 43.4559 16.3099 43.6474 15.0887C43.7649 14.3392 43.6179 12.6435 43.3472 11.6258C42.8849 9.88815 42.2416 9.14025 40.3991 8.19828C39.0009 7.48348 38.3103 7.23256 36.935 6.93959L35.8926 6.71754L35.3758 6.06852C34.5254 5.00035 32.7079 3.24225 31.751 2.56214C30.232 1.4825 28.813 0.822522 26.9827 0.3444L25.9655 0.078698L14.8357 0.0465382C2.15076 0.00981262 3.11127 -0.0527694 2.23265 0.868772C1.66425 1.46499 1.27811 2.37773 0.824524 4.19729C0.197544 6.71234 -0.111191 10.729 0.0363426 14.4509C0.108086 16.2619 0.144123 16.5718 0.325104 16.9389C0.771645 17.8445 1.22802 18.0043 3.24962 17.963L4.75109 17.9322V16.7706C4.75109 15.666 4.76648 15.5763 5.06327 14.9474C5.45891 14.1091 6.0328 13.5149 6.83378 13.1143C7.38393 12.8392 7.56741 12.7991 8.28683 12.7964C8.92216 12.7941 9.23737 12.846 9.6669 13.0238C10.443 13.345 11.2074 14.1004 11.6023 14.9363C11.9049 15.5769 11.9194 15.6609 11.9194 16.77V17.9322L22.6477 17.958C31.1942 17.9785 33.3783 17.9579 33.3869 17.857C33.3926 17.7875 33.4039 17.231 33.4112 16.6205C33.4231 15.624 33.4523 15.4515 33.6964 14.9336C34.4159 13.407 36.1235 12.4885 37.6203 12.8229C39.6117 13.2678 40.9494 15.2524 40.5536 17.175C40.472 17.5709 40.4723 17.7409 40.5547 17.8442C40.7236 18.0563 41.409 18.0078 41.9497 17.7455L41.9497 17.7455ZM41.8099 13.0717C40.9539 12.7837 40.06 11.7452 40.06 11.0386C40.06 10.8256 40.0948 10.8182 41.1014 10.8197C42.1967 10.8209 42.2948 10.8469 42.4564 11.1714C42.613 11.4859 42.8955 12.9222 42.8338 13.0898C42.7616 13.2858 42.429 13.2799 41.8099 13.0716V13.0717ZM23.4385 6.4482C23.2083 6.16933 23.2047 6.13474 23.2047 4.14588C23.2047 2.95397 23.2456 2.04714 23.3044 1.93254C23.518 1.51681 23.9427 1.40207 24.9897 1.47719C27.5326 1.65964 29.551 2.47948 31.5355 4.13597C32.3568 4.82155 33.5697 6.07222 33.5697 6.23351C33.5697 6.31304 33.4814 6.47021 33.3733 6.58274C33.1806 6.78348 33.0875 6.78681 28.4246 6.75933L23.6722 6.73138L23.4385 6.4482ZM33.1404 6.26616C33.2181 6.13528 32.0531 4.93978 31.6212 4.70709C31.4611 4.62089 31.1693 4.56425 30.9727 4.58128L30.6153 4.61227L30.5864 5.30532C30.5437 6.3274 30.6098 6.3782 31.9808 6.3782C32.6773 6.3782 33.0981 6.3375 33.1405 6.26616H33.1404Z" fill="#01B537"/>
</svg>
