<svg width="68" height="47" viewBox="0 0 68 47" fill="none" xmlns="http://www.w3.org/2000/svg">
<path d="M23.665 45.7459C21.9409 45.1968 20.5189 43.8518 19.9444 42.2268L19.7097 41.5629L14.8092 41.5293L9.90882 41.4957L9.64284 41.159C9.13444 40.5153 9.33036 38.3504 10.0183 37.0101C10.3699 36.3251 11.5016 35.1913 12.0662 34.9584L12.4708 34.7915V32.4319V30.0723H7.05058H1.63039L1.31397 29.7572C0.895344 29.3403 0.895344 28.7502 1.31397 28.3333L1.63039 28.0181H7.05058H12.4708V26.9269V25.8356H10.1728C7.93746 25.8356 7.86721 25.8275 7.59455 25.5384C7.28619 25.2115 7.23071 24.6065 7.4795 24.2838C7.81692 23.8461 8.18487 23.7814 10.3352 23.7814H12.4708V22.7543V21.7272H7.0707C1.01994 21.7272 1.19515 21.754 1.04276 20.8058C0.979545 20.4126 1.02224 20.2787 1.29864 20.0034L1.63039 19.673L6.18041 19.6691L10.7304 19.6652L10.3437 19.384C5.92315 16.1697 4.83226 10.0097 7.87607 5.44981C8.62177 4.3327 9.99089 3.03609 11.1394 2.35931C11.6235 2.07407 12.5707 1.65334 13.2442 1.42435C14.3892 1.0351 14.5863 1.00752 16.2737 1.00053C17.7891 0.994273 18.2426 1.04039 19.1025 1.28835C22.5668 2.28735 25.2934 4.99226 26.2461 8.37529L26.4811 9.20981L35.2999 9.274L44.1188 9.3382L44.9663 9.75125C46.5625 10.5292 47.7718 12.1286 48.0515 13.8317C48.1211 14.2554 48.1783 15.7431 48.1788 17.1377L48.1796 19.6733L52.9816 19.6751C58.3443 19.6772 58.7292 19.7215 60.4182 20.5305C61.9197 21.2498 63.0276 22.4771 65.2072 25.8357L66.9986 28.596L66.9999 34.7092C67.0012 40.7002 66.9955 40.8291 66.7338 41.1606L66.4666 41.4989H64.4738C62.6897 41.4989 62.4733 41.5224 62.4078 41.7236C61.3699 44.9123 58.1758 46.6862 55.1571 45.7506C53.2959 45.1736 51.8667 43.7834 51.2811 41.9803L51.1248 41.4989H41.0755C31.6195 41.4989 31.0219 41.5122 30.951 41.7236C30.6772 42.5406 30.0749 43.6205 29.6175 44.1147C28.1105 45.7429 25.716 46.3992 23.6653 45.7461L23.665 45.7459ZM26.4863 43.7442C27.9496 43.3114 29.0173 41.8214 29.0153 40.2149C29.0135 38.7687 28.3232 37.6651 27.0125 37.0129C25.6902 36.3548 24.2731 36.4868 23.0884 37.3786C22.1727 38.0679 21.6934 39.0643 21.7009 40.263C21.7083 41.423 22.0561 42.1838 22.9417 42.9768C23.946 43.876 25.1553 44.1379 26.4863 43.7442ZM24.9108 41.86C23.3212 41.418 23.2573 39.2198 24.8183 38.6782C25.5568 38.422 26.3171 38.6724 26.7551 39.3162C27.6039 40.5636 26.3698 42.2658 24.9108 41.86ZM58.4397 43.516C59.727 42.8652 60.4205 41.7319 60.4205 40.2791C60.4205 38.226 58.8668 36.6245 56.8718 36.6213C55.3625 36.6187 54.2468 37.2665 53.5253 38.564C53.1954 39.1572 53.143 39.3846 53.1453 40.2149C53.1484 41.3871 53.4544 42.1384 54.236 42.8938C55.3474 43.968 57.0476 44.2197 58.4397 43.516ZM56.4224 41.8798C55.5284 41.6388 55.1408 41.1207 55.1408 40.1669C55.1408 38.7364 56.9335 38.0401 57.9669 39.0693C58.3788 39.4794 58.573 40.1348 58.4395 40.6644C58.2357 41.473 57.2088 42.0918 56.4224 41.8798ZM19.6898 39.1926C19.6898 38.7758 20.1886 37.5806 20.5964 37.0198C20.8068 36.7305 20.979 36.4645 20.979 36.4286C20.979 36.3927 19.3982 36.3638 17.4661 36.3645C14.0459 36.3658 13.936 36.3738 13.2995 36.6689C12.5025 37.0385 11.8823 37.756 11.6291 38.6012C11.5248 38.9495 11.4395 39.2817 11.4395 39.3395C11.4395 39.3973 13.2958 39.4445 15.5647 39.4445C19.5776 39.4445 19.6898 39.4377 19.6898 39.1926ZM46.1169 37.9039V36.3633H37.855H29.5932L29.9472 36.7805C30.3607 37.2678 30.8499 38.314 30.9751 38.9787L31.0628 39.4445H38.5899H46.1169V37.9039ZM51.2128 38.8026C51.9337 36.0107 54.6932 34.1849 57.5891 34.5839C59.8312 34.8927 61.8159 36.6591 62.3654 38.8347L62.5194 39.4445H63.7288H64.9381V34.3506V29.2566L63.2979 26.7436C61.3953 23.8289 60.6212 22.9461 59.4864 22.3973C58.2054 21.7777 57.6978 21.7272 52.7496 21.7272H48.1795V30.5901V39.4529L49.6216 39.4167L51.0636 39.3804L51.2128 38.8026ZM53.7299 31.8769C53.3506 31.4991 53.3187 31.0832 53.3612 27.076L53.4005 23.3736L53.7787 23.0498C54.149 22.7328 54.1926 22.727 55.8413 22.7759C57.4072 22.8224 57.5864 22.8544 58.3895 23.2298C59.6543 23.821 60.1849 24.4429 61.7652 27.1865C62.8377 29.0484 63.1831 29.7618 63.2298 30.2115C63.3051 30.9363 63.0303 31.5227 62.4503 31.8749C62.0643 32.1093 61.7772 32.1256 58.0091 32.126C54.1906 32.1265 53.9675 32.1135 53.7299 31.8769H53.7299ZM60.9418 30.021C60.9418 29.9393 58.6144 25.9178 58.4595 25.7319C58.1094 25.3115 57.2024 24.9271 56.3805 24.8507L55.5275 24.7713V27.4218V30.0723H58.2347C59.7236 30.0723 60.9418 30.0492 60.9418 30.021ZM46.0525 24.1023V13.9598L45.6911 13.227C45.4855 12.81 45.1155 12.3251 44.8326 12.102C43.8295 11.3107 44.0477 11.3279 34.9693 11.3279H26.6902L26.5364 12.4225C26.3393 13.8262 25.9128 15.0726 25.2111 16.2957C24.6624 17.2522 23.4135 18.664 22.5259 19.3311L22.0747 19.6701L25.3124 19.6714C28.3915 19.6728 28.5667 19.6859 28.8897 19.939C29.3696 20.3149 29.3696 21.0851 28.8897 21.461C28.5556 21.7227 28.4359 21.7271 21.6062 21.7271H14.6623V22.7542V23.7812L18.3685 23.783C22.3784 23.7852 22.5776 23.8152 22.8921 24.4685C23.0945 24.8889 22.9092 25.5026 22.5167 25.7118C22.3834 25.7829 20.6671 25.8353 18.4737 25.8353H14.6623V26.9266V28.0179H15.8928C17.0274 28.0179 17.148 28.0424 17.4397 28.333C17.8584 28.7499 17.8584 29.34 17.4397 29.7569C17.148 30.0475 17.0274 30.072 15.8928 30.072H14.6623V32.1909V34.3098L30.3574 34.2772L46.0525 34.2446V24.1023ZM18.0785 19.0963C20.3972 18.6158 22.616 16.9029 23.651 14.7943C24.2043 13.667 24.5885 12.1676 24.5885 11.1353C24.5885 10.1029 24.2043 8.60351 23.651 7.47626C23.2398 6.63852 22.8886 6.15844 22.1395 5.40995C18.9202 2.19344 13.8758 2.19344 10.6571 5.40995C9.07413 6.9919 8.38055 8.51797 8.25929 10.6859C8.13134 12.9735 8.83162 14.9366 10.3633 16.5842C12.3961 18.7708 15.2171 19.6894 18.0785 19.0963ZM13.636 15.0269C13.1385 14.4951 13.2781 14.0796 14.5334 12.355L15.6936 10.7609V8.47082C15.6936 6.21054 15.6975 6.17661 16.01 5.86559C16.4286 5.44867 17.0211 5.44867 17.4397 5.86559C17.755 6.17958 17.7562 6.19018 17.7562 8.80056C17.7562 11.3593 17.7489 11.4311 17.4446 11.8777C16.8687 12.7228 15.3938 14.7274 15.1332 15.019C14.7822 15.4118 14 15.416 13.636 15.0268V15.0269Z" fill="#313131" stroke="#313131" stroke-width="0.2"/>
</svg>
