<svg width="14" height="10" viewBox="0 0 14 10" fill="none" xmlns="http://www.w3.org/2000/svg">
<path d="M13.101 1.17027C12.6194 1.36906 12.101 1.50315 11.5572 1.56315C12.1125 1.25448 12.5383 0.765525 12.7391 0.182242C12.2197 0.468451 11.6447 0.676135 11.0322 0.788243C10.5421 0.303245 9.84349 0 9.07042 0C7.5862 0 6.3828 1.11742 6.3828 2.49587C6.3828 2.6912 6.40649 2.88159 6.45247 3.06458C4.2186 2.96036 2.23789 1.96691 0.912172 0.456847C0.680806 0.825289 0.548366 1.25398 0.548366 1.71182C0.548366 2.5776 1.0228 3.34165 1.74404 3.78911C1.30364 3.77602 0.889034 3.66366 0.526563 3.47673C0.526294 3.4871 0.526294 3.49772 0.526294 3.50834C0.526294 4.71738 1.45283 5.72587 2.68254 5.95552C2.45702 6.01233 2.21953 6.04297 1.97434 6.04297C1.80095 6.04297 1.63261 6.02741 1.46852 5.99801C1.81078 6.98953 2.80327 7.71134 3.97926 7.73132C3.05937 8.40079 1.90067 8.79984 0.64118 8.79984C0.424439 8.79984 0.210357 8.78799 0 8.76479C1.18981 9.47329 2.60249 9.88619 4.12021 9.88619C9.06428 9.88619 11.7676 6.08319 11.7676 2.78504C11.7676 2.67688 11.7652 2.56896 11.7601 2.46179C12.2851 2.11063 12.7409 1.67082 13.101 1.17027Z" fill="#01B537"/>
</svg>
