<svg width="30" height="26" viewBox="0 0 30 26" fill="none" xmlns="http://www.w3.org/2000/svg">
<path d="M8.73047 16.75H26.25L21.8555 11.125L18.75 14.875L14.3555 9.25L8.73047 16.75ZM27.4805 2.98047C28.1445 2.98047 28.7305 3.23437 29.2383 3.74219C29.7461 4.25 30 4.83594 30 5.5V17.9805C30 18.6445 29.7461 19.2305 29.2383 19.7383C28.7305 20.2461 28.1445 20.5 27.4805 20.5H7.5C6.83594 20.5 6.25 20.2461 5.74219 19.7383C5.23438 19.2305 4.98047 18.6445 4.98047 17.9805L5.03906 2.98047C5.03906 2.31641 5.27344 1.75 5.74219 1.28125C6.25 0.773437 6.83594 0.519531 7.5 0.519531H15L17.5195 2.98047H27.4805ZM2.51953 5.5V23.0195H25.0195V25.4805H2.51953C1.85547 25.4805 1.26953 25.2461 0.761719 24.7773C0.253906 24.2695 0 23.6836 0 23.0195V5.5H2.51953Z" fill="#01B537"/>
</svg>
