<svg width="49" height="49" viewBox="0 0 49 49" fill="none" xmlns="http://www.w3.org/2000/svg">
<circle cx="24.5" cy="24.5" r="23.7097" fill="#C9F0D5" stroke="#01B537" stroke-width="1.58065"/>
<path d="M27.9082 24.4567C28.8302 24.4567 29.8346 24.5884 30.9213 24.8519C32.008 25.1153 33.0124 25.5434 33.9344 26.1361C34.8565 26.7289 35.3175 27.404 35.3175 28.1613V30.7793H28.9949V28.1613C28.9949 26.7124 28.3034 25.494 26.9203 24.5061C27.1508 24.4732 27.4801 24.4567 27.9082 24.4567ZM16.4979 24.8519C17.5846 24.5884 18.589 24.4567 19.511 24.4567C20.4331 24.4567 21.4374 24.5884 22.5241 24.8519C23.6108 25.1153 24.5987 25.5434 25.4878 26.1361C26.4099 26.7289 26.8709 27.404 26.8709 28.1613V30.7793H12.1018V28.1613C12.1018 27.404 12.5628 26.7289 13.4848 26.1361C14.4069 25.5434 15.4112 25.1153 16.4979 24.8519ZM21.6844 21.4436C21.0917 22.0693 20.3672 22.3821 19.511 22.3821C18.6548 22.3821 17.9139 22.0693 17.2882 21.4436C16.6626 20.8179 16.3497 20.077 16.3497 19.2208C16.3497 18.3646 16.6626 17.6237 17.2882 16.998C17.9139 16.3724 18.6548 16.0595 19.511 16.0595C20.3672 16.0595 21.0917 16.3724 21.6844 16.998C22.3101 17.6237 22.6229 18.3646 22.6229 19.2208C22.6229 20.077 22.3101 20.8179 21.6844 21.4436ZM30.131 21.4436C29.5053 22.0693 28.7644 22.3821 27.9082 22.3821C27.052 22.3821 26.3111 22.0693 25.6854 21.4436C25.0597 20.8179 24.7469 20.077 24.7469 19.2208C24.7469 18.3646 25.0597 17.6237 25.6854 16.998C26.3111 16.3724 27.052 16.0595 27.9082 16.0595C28.7644 16.0595 29.5053 16.3724 30.131 16.998C30.7567 17.6237 31.0695 18.3646 31.0695 19.2208C31.0695 20.077 30.7567 20.8179 30.131 21.4436Z" fill="#01B537"/>
</svg>
