<svg width="18" height="18" viewBox="0 0 18 18" fill="none" xmlns="http://www.w3.org/2000/svg">
<path d="M15.1875 0.5625H2.8125C2.19118 0.5625 1.6875 1.06618 1.6875 1.6875V16.3125C1.6875 16.9338 2.19118 17.4375 2.8125 17.4375H15.1875C15.8088 17.4375 16.3125 16.9338 16.3125 16.3125V1.6875C16.3125 1.06618 15.8088 0.5625 15.1875 0.5625Z" stroke="#25A268" stroke-linecap="round" stroke-linejoin="round"/>
<path d="M3.9375 2.8125H6.1875" stroke="#25A268" stroke-linecap="round" stroke-linejoin="round"/>
<path d="M1.6875 5.0625H16.3125" stroke="#25A268" stroke-linecap="round" stroke-linejoin="round"/>
<path d="M9 15.1875C11.1746 15.1875 12.9375 13.4246 12.9375 11.25C12.9375 9.07538 11.1746 7.3125 9 7.3125C6.82538 7.3125 5.0625 9.07538 5.0625 11.25C5.0625 13.4246 6.82538 15.1875 9 15.1875Z" stroke="#25A268" stroke-linecap="round" stroke-linejoin="round"/>
<path d="M13.7813 2.53125C13.8369 2.53125 13.8913 2.54774 13.9375 2.57865C13.9838 2.60955 14.0198 2.65348 14.0411 2.70487C14.0624 2.75626 14.0679 2.81281 14.0571 2.86737C14.0462 2.92193 14.0195 2.97204 13.9801 3.01137C13.9408 3.05071 13.8907 3.07749 13.8361 3.08835C13.7816 3.0992 13.725 3.09363 13.6736 3.07234C13.6222 3.05105 13.5783 3.01501 13.5474 2.96875C13.5165 2.9225 13.5 2.86813 13.5 2.8125C13.5 2.73791 13.5296 2.66637 13.5824 2.61363C13.6351 2.56088 13.7067 2.53125 13.7813 2.53125" stroke="#25A268" stroke-linecap="round" stroke-linejoin="round"/>
<path d="M7.3125 11.25C7.3125 10.8024 7.49029 10.3732 7.80676 10.0568C8.12323 9.74029 8.55245 9.5625 9 9.5625" stroke="#25A268" stroke-linecap="round" stroke-linejoin="round"/>
</svg>
