<svg width="18" height="19" viewBox="0 0 18 19" fill="none" xmlns="http://www.w3.org/2000/svg">
<path d="M15.613 5C16.0557 5 16.4333 5.16927 16.7458 5.50781C17.0844 5.84635 17.2537 6.23698 17.2537 6.67969V16.6797C17.2537 17.1224 17.0844 17.513 16.7458 17.8516C16.4333 18.1641 16.0557 18.3203 15.613 18.3203H2.25366C1.81095 18.3203 1.42033 18.1641 1.08179 17.8516C0.769287 17.513 0.613037 17.1224 0.613037 16.6797V6.67969C0.613037 6.23698 0.769287 5.84635 1.08179 5.50781C1.42033 5.16927 1.81095 5 2.25366 5H3.93335V0H10.613V3.32031H5.61304V10H7.25366V5H15.613Z" fill="#989898"/>
</svg>
